<ttFont>
    <TTGlyph name="A" xMin="35" yMin="0" xMax="513" yMax="700">
      <contour>
        <pt x="123" y="0" on="1"/>
        <pt x="35" y="0" on="1"/>
        <pt x="201" y="700" on="1"/>
        <pt x="347" y="700" on="1"/>
        <pt x="513" y="0" on="1"/>
        <pt x="425" y="0" on="1"/>
        <pt x="384" y="177" on="1"/>
        <pt x="164" y="177" on="1"/>
      </contour>
      <contour>
        <pt x="367" y="247" on="1"/>
        <pt x="277" y="636" on="1"/>
        <pt x="271" y="636" on="1"/>
        <pt x="180" y="247" on="1"/>
      </contour>
    </TTGlyph>
    <TTGlyph name="AE" xMin="0" yMin="0" xMax="716" yMax="700">
      <contour>
        <pt x="459" y="630" on="1"/>
        <pt x="459" y="346" on="1"/>
        <pt x="676" y="346" on="1"/>
        <pt x="676" y="276" on="1"/>
        <pt x="459" y="276" on="1"/>
        <pt x="459" y="70" on="1"/>
        <pt x="716" y="70" on="1"/>
        <pt x="716" y="0" on="1"/>
        <pt x="373" y="0" on="1"/>
        <pt x="373" y="276" on="1"/>
        <pt x="195" y="276" on="1"/>
        <pt x="88" y="0" on="1"/>
        <pt x="0" y="0" on="1"/>
        <pt x="275" y="700" on="1"/>
        <pt x="706" y="700" on="1"/>
        <pt x="696" y="630" on="1"/>
      </contour>
      <contour>
        <pt x="373" y="346" on="1"/>
        <pt x="373" y="630" on="1"/>
        <pt x="332" y="630" on="1"/>
        <pt x="222" y="346" on="1"/>
      </contour>
    </TTGlyph>
    <TTGlyph name="Aacute" xMin="35" yMin="0" xMax="513" yMax="901">
      <contour>
        <pt x="123" y="0" on="1"/>
        <pt x="35" y="0" on="1"/>
        <pt x="201" y="700" on="1"/>
        <pt x="347" y="700" on="1"/>
        <pt x="513" y="0" on="1"/>
        <pt x="425" y="0" on="1"/>
        <pt x="384" y="177" on="1"/>
        <pt x="164" y="177" on="1"/>
      </contour>
      <contour>
        <pt x="367" y="247" on="1"/>
        <pt x="277" y="636" on="1"/>
        <pt x="271" y="636" on="1"/>
        <pt x="180" y="247" on="1"/>
      </contour>
      <contour>
        <pt x="191" y="731" on="1"/>
        <pt x="168" y="765" on="1"/>
        <pt x="333" y="901" on="1"/>
        <pt x="379" y="834" on="1"/>
      </contour>
    </TTGlyph>
    <TTGlyph name="Acircumflex" xMin="35" yMin="0" xMax="513" yMax="891">
      <contour>
        <pt x="123" y="0" on="1"/>
        <pt x="35" y="0" on="1"/>
        <pt x="201" y="700" on="1"/>
        <pt x="347" y="700" on="1"/>
        <pt x="513" y="0" on="1"/>
        <pt x="425" y="0" on="1"/>
        <pt x="384" y="177" on="1"/>
        <pt x="164" y="177" on="1"/>
      </contour>
      <contour>
        <pt x="367" y="247" on="1"/>
        <pt x="277" y="636" on="1"/>
        <pt x="271" y="636" on="1"/>
        <pt x="180" y="247" on="1"/>
      </contour>
      <contour>
        <pt x="407" y="775" on="1"/>
        <pt x="376" y="738" on="1"/>
        <pt x="273" y="805" on="1"/>
        <pt x="170" y="738" on="1"/>
        <pt x="140" y="775" on="1"/>
        <pt x="273" y="891" on="1"/>
      </contour>
    </TTGlyph>
    <TTGlyph name="Adieresis" xMin="35" yMin="0" xMax="513" yMax="862">
      <contour>
        <pt x="123" y="0" on="1"/>
        <pt x="35" y="0" on="1"/>
        <pt x="201" y="700" on="1"/>
        <pt x="347" y="700" on="1"/>
        <pt x="513" y="0" on="1"/>
        <pt x="425" y="0" on="1"/>
        <pt x="384" y="177" on="1"/>
        <pt x="164" y="177" on="1"/>
      </contour>
      <contour>
        <pt x="367" y="247" on="1"/>
        <pt x="277" y="636" on="1"/>
        <pt x="271" y="636" on="1"/>
        <pt x="180" y="247" on="1"/>
      </contour>
      <contour>
        <pt x="169" y="862" on="0"/>
        <pt x="199" y="862" on="0"/>
        <pt x="213" y="860" on="0"/>
        <pt x="222" y="856" on="1"/>
        <pt x="236" y="848" on="0"/>
        <pt x="236" y="793" on="0"/>
        <pt x="230" y="772" on="0"/>
        <pt x="213" y="763" on="0"/>
        <pt x="199" y="761" on="0"/>
        <pt x="169" y="761" on="0"/>
        <pt x="155" y="763" on="0"/>
        <pt x="146" y="768" on="1"/>
        <pt x="132" y="775" on="0"/>
        <pt x="132" y="830" on="0"/>
        <pt x="138" y="851" on="0"/>
        <pt x="155" y="860" on="0"/>
      </contour>
      <contour>
        <pt x="349" y="862" on="0"/>
        <pt x="379" y="862" on="0"/>
        <pt x="393" y="860" on="0"/>
        <pt x="402" y="856" on="1"/>
        <pt x="416" y="848" on="0"/>
        <pt x="416" y="793" on="0"/>
        <pt x="410" y="772" on="0"/>
        <pt x="393" y="763" on="0"/>
        <pt x="379" y="761" on="0"/>
        <pt x="349" y="761" on="0"/>
        <pt x="335" y="763" on="0"/>
        <pt x="326" y="768" on="1"/>
        <pt x="312" y="775" on="0"/>
        <pt x="312" y="830" on="0"/>
        <pt x="318" y="851" on="0"/>
        <pt x="335" y="860" on="0"/>
      </contour>
    </TTGlyph>
    <TTGlyph name="Agrave" xMin="35" yMin="0" xMax="513" yMax="901">
      <contour>
        <pt x="123" y="0" on="1"/>
        <pt x="35" y="0" on="1"/>
        <pt x="201" y="700" on="1"/>
        <pt x="347" y="700" on="1"/>
        <pt x="513" y="0" on="1"/>
        <pt x="425" y="0" on="1"/>
        <pt x="384" y="177" on="1"/>
        <pt x="164" y="177" on="1"/>
      </contour>
      <contour>
        <pt x="367" y="247" on="1"/>
        <pt x="277" y="636" on="1"/>
        <pt x="271" y="636" on="1"/>
        <pt x="180" y="247" on="1"/>
      </contour>
      <contour>
        <pt x="379" y="765" on="1"/>
        <pt x="356" y="731" on="1"/>
        <pt x="168" y="834" on="1"/>
        <pt x="214" y="901" on="1"/>
      </contour>
    </TTGlyph>
    <TTGlyph name="Aring" xMin="35" yMin="0" xMax="513" yMax="896">
      <contour>
        <pt x="123" y="0" on="1"/>
        <pt x="35" y="0" on="1"/>
        <pt x="201" y="700" on="1"/>
        <pt x="347" y="700" on="1"/>
        <pt x="513" y="0" on="1"/>
        <pt x="425" y="0" on="1"/>
        <pt x="384" y="177" on="1"/>
        <pt x="164" y="177" on="1"/>
      </contour>
      <contour>
        <pt x="367" y="247" on="1"/>
        <pt x="277" y="636" on="1"/>
        <pt x="271" y="636" on="1"/>
        <pt x="180" y="247" on="1"/>
      </contour>
      <contour>
        <pt x="290" y="847" on="0"/>
        <pt x="258" y="847" on="0"/>
        <pt x="241" y="834" on="0"/>
        <pt x="241" y="790" on="0"/>
        <pt x="257" y="777" on="0"/>
        <pt x="285" y="777" on="0"/>
        <pt x="291" y="778" on="1"/>
        <pt x="307" y="782" on="0"/>
        <pt x="307" y="834" on="0"/>
      </contour>
      <contour>
        <pt x="229" y="896" on="0"/>
        <pt x="319" y="896" on="0"/>
        <pt x="361" y="864" on="0"/>
        <pt x="361" y="760" on="0"/>
        <pt x="319" y="728" on="0"/>
        <pt x="229" y="728" on="0"/>
        <pt x="187" y="760" on="0"/>
        <pt x="187" y="864" on="0"/>
      </contour>
    </TTGlyph>
    <TTGlyph name="Atilde" xMin="35" yMin="0" xMax="513" yMax="857">
      <contour>
        <pt x="123" y="0" on="1"/>
        <pt x="35" y="0" on="1"/>
        <pt x="201" y="700" on="1"/>
        <pt x="347" y="700" on="1"/>
        <pt x="513" y="0" on="1"/>
        <pt x="425" y="0" on="1"/>
        <pt x="384" y="177" on="1"/>
        <pt x="164" y="177" on="1"/>
      </contour>
      <contour>
        <pt x="367" y="247" on="1"/>
        <pt x="277" y="636" on="1"/>
        <pt x="271" y="636" on="1"/>
        <pt x="180" y="247" on="1"/>
      </contour>
      <contour>
        <pt x="376" y="783" on="0"/>
        <pt x="341" y="765" on="0"/>
        <pt x="304" y="765" on="0"/>
        <pt x="239" y="792" on="0"/>
        <pt x="195" y="792" on="0"/>
        <pt x="164" y="772" on="1"/>
        <pt x="142" y="810" on="1"/>
        <pt x="171" y="839" on="0"/>
        <pt x="206" y="857" on="0"/>
        <pt x="243" y="857" on="0"/>
        <pt x="308" y="830" on="0"/>
        <pt x="352" y="830" on="0"/>
        <pt x="383" y="850" on="1"/>
        <pt x="405" y="812" on="1"/>
      </contour>
    </TTGlyph>
    <TTGlyph name="B" xMin="90" yMin="0" xMax="473" yMax="700">
      <contour>
        <pt x="90" y="700" on="1"/>
        <pt x="256" y="700" on="1"/>
        <pt x="365" y="700" on="0"/>
        <pt x="453" y="609" on="0"/>
        <pt x="453" y="385" on="0"/>
        <pt x="383" y="351" on="1"/>
        <pt x="430" y="334" on="0"/>
        <pt x="473" y="261" on="0"/>
        <pt x="473" y="195" on="1"/>
        <pt x="473" y="91" on="0"/>
        <pt x="378" y="0" on="0"/>
        <pt x="261" y="0" on="1"/>
        <pt x="90" y="0" on="1"/>
      </contour>
      <contour>
        <pt x="386" y="176" on="1"/>
        <pt x="386" y="215" on="1"/>
        <pt x="386" y="277" on="0"/>
        <pt x="370" y="291" on="1"/>
        <pt x="343" y="313" on="0"/>
        <pt x="285" y="320" on="0"/>
        <pt x="252" y="320" on="1"/>
        <pt x="176" y="320" on="1"/>
        <pt x="176" y="71" on="1"/>
        <pt x="262" y="71" on="1"/>
        <pt x="329" y="71" on="0"/>
        <pt x="360" y="90" on="1"/>
        <pt x="382" y="103" on="0"/>
        <pt x="385" y="140" on="1"/>
        <pt x="386" y="152" on="0"/>
      </contour>
      <contour>
        <pt x="366" y="483" on="1"/>
        <pt x="366" y="522" on="1"/>
        <pt x="366" y="594" on="0"/>
        <pt x="342" y="610" on="1"/>
        <pt x="315" y="629" on="0"/>
        <pt x="255" y="629" on="1"/>
        <pt x="176" y="629" on="1"/>
        <pt x="176" y="377" on="1"/>
        <pt x="245" y="377" on="1"/>
        <pt x="310" y="377" on="0"/>
        <pt x="340" y="396" on="1"/>
        <pt x="362" y="409" on="0"/>
        <pt x="365" y="448" on="1"/>
        <pt x="366" y="459" on="0"/>
      </contour>
    </TTGlyph>
    <TTGlyph name="C" xMin="75" yMin="-12" xMax="439" yMax="712">
      <contour>
        <pt x="181" y="697" on="0"/>
        <pt x="249" y="712" on="0"/>
        <pt x="368" y="712" on="0"/>
        <pt x="426" y="694" on="1"/>
        <pt x="411" y="629" on="1"/>
        <pt x="361" y="641" on="0"/>
        <pt x="264" y="641" on="0"/>
        <pt x="216" y="633" on="0"/>
        <pt x="187" y="613" on="0"/>
        <pt x="170" y="595" on="0"/>
        <pt x="166" y="576" on="1"/>
        <pt x="162" y="552" on="0"/>
        <pt x="162" y="507" on="1"/>
        <pt x="162" y="193" on="1"/>
        <pt x="162" y="113" on="0"/>
        <pt x="178" y="96" on="1"/>
        <pt x="204" y="69" on="0"/>
        <pt x="264" y="59" on="0"/>
        <pt x="358" y="59" on="0"/>
        <pt x="420" y="75" on="1"/>
        <pt x="439" y="16" on="1"/>
        <pt x="372" y="-12" on="0"/>
        <pt x="296" y="-12" on="1"/>
        <pt x="224" y="-12" on="0"/>
        <pt x="168" y="8" on="0"/>
        <pt x="136" y="22" on="0"/>
        <pt x="111" y="56" on="0"/>
        <pt x="95" y="80" on="0"/>
        <pt x="84" y="134" on="0"/>
        <pt x="78" y="171" on="0"/>
        <pt x="77" y="210" on="1"/>
        <pt x="75" y="286" on="0"/>
        <pt x="75" y="420" on="0"/>
        <pt x="77" y="488" on="0"/>
        <pt x="84" y="584" on="0"/>
        <pt x="102" y="625" on="0"/>
        <pt x="132" y="678" on="0"/>
      </contour>
    </TTGlyph>
    <TTGlyph name="Ccedilla" xMin="75" yMin="-194" xMax="439" yMax="712">
      <contour>
        <pt x="181" y="697" on="0"/>
        <pt x="249" y="712" on="0"/>
        <pt x="368" y="712" on="0"/>
        <pt x="426" y="694" on="1"/>
        <pt x="411" y="629" on="1"/>
        <pt x="361" y="641" on="0"/>
        <pt x="264" y="641" on="0"/>
        <pt x="216" y="633" on="0"/>
        <pt x="187" y="613" on="0"/>
        <pt x="170" y="595" on="0"/>
        <pt x="166" y="576" on="1"/>
        <pt x="162" y="552" on="0"/>
        <pt x="162" y="507" on="1"/>
        <pt x="162" y="193" on="1"/>
        <pt x="162" y="113" on="0"/>
        <pt x="178" y="96" on="1"/>
        <pt x="204" y="69" on="0"/>
        <pt x="264" y="59" on="0"/>
        <pt x="358" y="59" on="0"/>
        <pt x="420" y="75" on="1"/>
        <pt x="439" y="16" on="1"/>
        <pt x="372" y="-12" on="0"/>
        <pt x="296" y="-12" on="1"/>
        <pt x="280" y="-12" on="1"/>
        <pt x="275" y="-56" on="1"/>
        <pt x="287" y="-56" on="1"/>
        <pt x="330" y="-56" on="0"/>
        <pt x="360" y="-89" on="0"/>
        <pt x="360" y="-153" on="0"/>
        <pt x="323" y="-194" on="0"/>
        <pt x="229" y="-194" on="0"/>
        <pt x="198" y="-177" on="1"/>
        <pt x="208" y="-142" on="1"/>
        <pt x="242" y="-150" on="0"/>
        <pt x="276" y="-150" on="0"/>
        <pt x="293" y="-141" on="0"/>
        <pt x="295" y="-131" on="0"/>
        <pt x="295" y="-114" on="0"/>
        <pt x="293" y="-105" on="0"/>
        <pt x="279" y="-94" on="0"/>
        <pt x="266" y="-94" on="1"/>
        <pt x="246" y="-94" on="1"/>
        <pt x="231" y="-70" on="1"/>
        <pt x="239" y="-9" on="1"/>
        <pt x="186" y="-5" on="0"/>
        <pt x="144" y="21" on="0"/>
        <pt x="120" y="37" on="0"/>
        <pt x="102" y="72" on="0"/>
        <pt x="90" y="97" on="0"/>
        <pt x="82" y="150" on="0"/>
        <pt x="77" y="185" on="0"/>
        <pt x="75" y="257" on="0"/>
        <pt x="75" y="280" on="1"/>
        <pt x="75" y="349" on="1"/>
        <pt x="75" y="564" on="0"/>
        <pt x="93" y="604" on="1"/>
        <pt x="102" y="625" on="0"/>
        <pt x="132" y="678" on="0"/>
      </contour>
    </TTGlyph>
    <TTGlyph name="D" xMin="90" yMin="0" xMax="512" yMax="700">
      <contour>
        <pt x="90" y="700" on="1"/>
        <pt x="290" y="700" on="1"/>
        <pt x="371" y="700" on="0"/>
        <pt x="430" y="678" on="1"/>
        <pt x="455" y="669" on="0"/>
        <pt x="485" y="620" on="0"/>
        <pt x="503" y="580" on="0"/>
        <pt x="506" y="534" on="1"/>
        <pt x="512" y="460" on="0"/>
        <pt x="512" y="251" on="0"/>
        <pt x="508" y="165" on="0"/>
        <pt x="487" y="62" on="0"/>
        <pt x="463" y="44" on="1"/>
        <pt x="404" y="0" on="0"/>
        <pt x="290" y="0" on="1"/>
        <pt x="90" y="0" on="1"/>
      </contour>
      <contour>
        <pt x="291" y="628" on="1"/>
        <pt x="176" y="628" on="1"/>
        <pt x="176" y="74" on="1"/>
        <pt x="291" y="74" on="1"/>
        <pt x="360" y="74" on="0"/>
        <pt x="396" y="97" on="1"/>
        <pt x="421" y="113" on="0"/>
        <pt x="424" y="160" on="1"/>
        <pt x="425" y="175" on="0"/>
        <pt x="425" y="205" on="1"/>
        <pt x="425" y="497" on="1"/>
        <pt x="425" y="527" on="0"/>
        <pt x="423" y="556" on="0"/>
        <pt x="410" y="596" on="0"/>
        <pt x="396" y="605" on="1"/>
        <pt x="360" y="628" on="0"/>
      </contour>
    </TTGlyph>
    <TTGlyph name="Delta" xMin="35" yMin="0" xMax="513" yMax="646">
      <contour>
        <pt x="513" y="0" on="1"/>
        <pt x="35" y="0" on="1"/>
        <pt x="211" y="646" on="1"/>
        <pt x="337" y="646" on="1"/>
      </contour>
      <contour>
        <pt x="274" y="582" on="1"/>
        <pt x="136" y="70" on="1"/>
        <pt x="411" y="70" on="1"/>
      </contour>
    </TTGlyph>
    <TTGlyph name="E" xMin="90" yMin="0" xMax="433" yMax="700">
      <contour>
        <pt x="90" y="0" on="1"/>
        <pt x="90" y="700" on="1"/>
        <pt x="423" y="700" on="1"/>
        <pt x="413" y="630" on="1"/>
        <pt x="176" y="630" on="1"/>
        <pt x="176" y="386" on="1"/>
        <pt x="393" y="386" on="1"/>
        <pt x="393" y="316" on="1"/>
        <pt x="176" y="316" on="1"/>
        <pt x="176" y="70" on="1"/>
        <pt x="433" y="70" on="1"/>
        <pt x="433" y="0" on="1"/>
      </contour>
    </TTGlyph>
    <TTGlyph name="Eacute" xMin="90" yMin="0" xMax="433" yMax="901">
      <contour>
        <pt x="90" y="0" on="1"/>
        <pt x="90" y="700" on="1"/>
        <pt x="423" y="700" on="1"/>
        <pt x="413" y="630" on="1"/>
        <pt x="176" y="630" on="1"/>
        <pt x="176" y="386" on="1"/>
        <pt x="393" y="386" on="1"/>
        <pt x="393" y="316" on="1"/>
        <pt x="176" y="316" on="1"/>
        <pt x="176" y="70" on="1"/>
        <pt x="433" y="70" on="1"/>
        <pt x="433" y="0" on="1"/>
      </contour>
      <contour>
        <pt x="194" y="731" on="1"/>
        <pt x="171" y="765" on="1"/>
        <pt x="336" y="901" on="1"/>
        <pt x="382" y="834" on="1"/>
      </contour>
    </TTGlyph>
    <TTGlyph name="Ecircumflex" xMin="90" yMin="0" xMax="433" yMax="891">
      <contour>
        <pt x="90" y="0" on="1"/>
        <pt x="90" y="700" on="1"/>
        <pt x="423" y="700" on="1"/>
        <pt x="413" y="630" on="1"/>
        <pt x="176" y="630" on="1"/>
        <pt x="176" y="386" on="1"/>
        <pt x="393" y="386" on="1"/>
        <pt x="393" y="316" on="1"/>
        <pt x="176" y="316" on="1"/>
        <pt x="176" y="70" on="1"/>
        <pt x="433" y="70" on="1"/>
        <pt x="433" y="0" on="1"/>
      </contour>
      <contour>
        <pt x="400" y="775" on="1"/>
        <pt x="369" y="738" on="1"/>
        <pt x="266" y="805" on="1"/>
        <pt x="163" y="738" on="1"/>
        <pt x="133" y="775" on="1"/>
        <pt x="266" y="891" on="1"/>
      </contour>
    </TTGlyph>
    <TTGlyph name="Edieresis" xMin="90" yMin="0" xMax="433" yMax="862">
      <contour>
        <pt x="90" y="0" on="1"/>
        <pt x="90" y="700" on="1"/>
        <pt x="423" y="700" on="1"/>
        <pt x="413" y="630" on="1"/>
        <pt x="176" y="630" on="1"/>
        <pt x="176" y="386" on="1"/>
        <pt x="393" y="386" on="1"/>
        <pt x="393" y="316" on="1"/>
        <pt x="176" y="316" on="1"/>
        <pt x="176" y="70" on="1"/>
        <pt x="433" y="70" on="1"/>
        <pt x="433" y="0" on="1"/>
      </contour>
      <contour>
        <pt x="156" y="862" on="0"/>
        <pt x="186" y="862" on="0"/>
        <pt x="200" y="860" on="0"/>
        <pt x="208" y="856" on="1"/>
        <pt x="223" y="848" on="0"/>
        <pt x="223" y="793" on="0"/>
        <pt x="217" y="772" on="0"/>
        <pt x="200" y="763" on="0"/>
        <pt x="186" y="761" on="0"/>
        <pt x="156" y="761" on="0"/>
        <pt x="142" y="763" on="0"/>
        <pt x="134" y="768" on="1"/>
        <pt x="119" y="775" on="0"/>
        <pt x="119" y="830" on="0"/>
        <pt x="125" y="851" on="0"/>
        <pt x="142" y="860" on="0"/>
      </contour>
      <contour>
        <pt x="336" y="862" on="0"/>
        <pt x="366" y="862" on="0"/>
        <pt x="380" y="860" on="0"/>
        <pt x="388" y="856" on="1"/>
        <pt x="403" y="848" on="0"/>
        <pt x="403" y="793" on="0"/>
        <pt x="397" y="772" on="0"/>
        <pt x="380" y="763" on="0"/>
        <pt x="366" y="761" on="0"/>
        <pt x="336" y="761" on="0"/>
        <pt x="322" y="763" on="0"/>
        <pt x="314" y="768" on="1"/>
        <pt x="299" y="775" on="0"/>
        <pt x="299" y="830" on="0"/>
        <pt x="305" y="851" on="0"/>
        <pt x="322" y="860" on="0"/>
      </contour>
    </TTGlyph>
    <TTGlyph name="Egrave" xMin="90" yMin="0" xMax="433" yMax="901">
      <contour>
        <pt x="90" y="0" on="1"/>
        <pt x="90" y="700" on="1"/>
        <pt x="423" y="700" on="1"/>
        <pt x="413" y="630" on="1"/>
        <pt x="176" y="630" on="1"/>
        <pt x="176" y="386" on="1"/>
        <pt x="393" y="386" on="1"/>
        <pt x="393" y="316" on="1"/>
        <pt x="176" y="316" on="1"/>
        <pt x="176" y="70" on="1"/>
        <pt x="433" y="70" on="1"/>
        <pt x="433" y="0" on="1"/>
      </contour>
      <contour>
        <pt x="372" y="765" on="1"/>
        <pt x="349" y="731" on="1"/>
        <pt x="161" y="834" on="1"/>
        <pt x="207" y="901" on="1"/>
      </contour>
    </TTGlyph>
    <TTGlyph name="Eth" xMin="36" yMin="0" xMax="512" yMax="700">
      <contour>
        <pt x="36" y="321" on="1"/>
        <pt x="36" y="381" on="1"/>
        <pt x="90" y="381" on="1"/>
        <pt x="90" y="700" on="1"/>
        <pt x="290" y="700" on="1"/>
        <pt x="371" y="700" on="0"/>
        <pt x="430" y="678" on="1"/>
        <pt x="455" y="669" on="0"/>
        <pt x="485" y="620" on="0"/>
        <pt x="503" y="580" on="0"/>
        <pt x="506" y="534" on="1"/>
        <pt x="512" y="460" on="0"/>
        <pt x="512" y="251" on="0"/>
        <pt x="508" y="165" on="0"/>
        <pt x="487" y="62" on="0"/>
        <pt x="463" y="44" on="1"/>
        <pt x="404" y="0" on="0"/>
        <pt x="290" y="0" on="1"/>
        <pt x="90" y="0" on="1"/>
        <pt x="90" y="321" on="1"/>
      </contour>
      <contour>
        <pt x="291" y="628" on="1"/>
        <pt x="176" y="628" on="1"/>
        <pt x="176" y="381" on="1"/>
        <pt x="316" y="381" on="1"/>
        <pt x="316" y="321" on="1"/>
        <pt x="176" y="321" on="1"/>
        <pt x="176" y="74" on="1"/>
        <pt x="291" y="74" on="1"/>
        <pt x="360" y="74" on="0"/>
        <pt x="396" y="97" on="1"/>
        <pt x="421" y="113" on="0"/>
        <pt x="424" y="160" on="1"/>
        <pt x="425" y="175" on="0"/>
        <pt x="425" y="205" on="1"/>
        <pt x="425" y="497" on="1"/>
        <pt x="425" y="527" on="0"/>
        <pt x="423" y="556" on="0"/>
        <pt x="410" y="596" on="0"/>
        <pt x="396" y="605" on="1"/>
        <pt x="360" y="628" on="0"/>
      </contour>
    </TTGlyph>
    <TTGlyph name="Euro" xMin="53" yMin="-12" xMax="464" yMax="658">
      <contour>
        <pt x="53" y="371" on="1"/>
        <pt x="53" y="431" on="1"/>
        <pt x="117" y="431" on="1"/>
        <pt x="122" y="549" on="0"/>
        <pt x="203" y="658" on="0"/>
        <pt x="319" y="658" on="1"/>
        <pt x="390" y="658" on="0"/>
        <pt x="464" y="626" on="1"/>
        <pt x="446" y="566" on="1"/>
        <pt x="386" y="587" on="0"/>
        <pt x="284" y="587" on="0"/>
        <pt x="240" y="574" on="0"/>
        <pt x="217" y="558" on="0"/>
        <pt x="212" y="541" on="1"/>
        <pt x="204" y="518" on="0"/>
        <pt x="204" y="480" on="1"/>
        <pt x="204" y="431" on="1"/>
        <pt x="389" y="431" on="1"/>
        <pt x="389" y="371" on="1"/>
        <pt x="204" y="371" on="1"/>
        <pt x="204" y="281" on="1"/>
        <pt x="389" y="281" on="1"/>
        <pt x="389" y="221" on="1"/>
        <pt x="204" y="221" on="1"/>
        <pt x="204" y="166" on="1"/>
        <pt x="204" y="97" on="0"/>
        <pt x="228" y="80" on="1"/>
        <pt x="259" y="59" on="0"/>
        <pt x="386" y="59" on="0"/>
        <pt x="446" y="80" on="1"/>
        <pt x="464" y="20" on="1"/>
        <pt x="390" y="-12" on="0"/>
        <pt x="258" y="-12" on="0"/>
        <pt x="178" y="18" on="0"/>
        <pt x="136" y="83" on="0"/>
        <pt x="119" y="161" on="0"/>
        <pt x="117" y="221" on="1"/>
        <pt x="53" y="221" on="1"/>
        <pt x="53" y="281" on="1"/>
        <pt x="116" y="281" on="1"/>
        <pt x="116" y="371" on="1"/>
      </contour>
    </TTGlyph>
    <TTGlyph name="F" xMin="90" yMin="0" xMax="413" yMax="700">
      <contour>
        <pt x="90" y="700" on="1"/>
        <pt x="413" y="700" on="1"/>
        <pt x="403" y="630" on="1"/>
        <pt x="176" y="630" on="1"/>
        <pt x="176" y="386" on="1"/>
        <pt x="383" y="386" on="1"/>
        <pt x="383" y="316" on="1"/>
        <pt x="176" y="316" on="1"/>
        <pt x="176" y="0" on="1"/>
        <pt x="90" y="0" on="1"/>
      </contour>
    </TTGlyph>
    <TTGlyph name="G" xMin="75" yMin="-12" xMax="472" yMax="712">
      <contour>
        <pt x="443" y="10" on="0"/>
        <pt x="339" y="-12" on="0"/>
        <pt x="263" y="-12" on="0"/>
        <pt x="210" y="-7" on="0"/>
        <pt x="168" y="8" on="0"/>
        <pt x="136" y="22" on="0"/>
        <pt x="111" y="56" on="0"/>
        <pt x="95" y="80" on="0"/>
        <pt x="84" y="134" on="0"/>
        <pt x="78" y="171" on="0"/>
        <pt x="77" y="210" on="1"/>
        <pt x="75" y="286" on="0"/>
        <pt x="75" y="420" on="0"/>
        <pt x="77" y="488" on="0"/>
        <pt x="84" y="584" on="0"/>
        <pt x="102" y="625" on="0"/>
        <pt x="132" y="678" on="0"/>
        <pt x="156" y="688" on="1"/>
        <pt x="220" y="712" on="0"/>
        <pt x="373" y="712" on="0"/>
        <pt x="446" y="690" on="1"/>
        <pt x="431" y="625" on="1"/>
        <pt x="364" y="641" on="0"/>
        <pt x="258" y="641" on="0"/>
        <pt x="205" y="627" on="0"/>
        <pt x="177" y="609" on="0"/>
        <pt x="164" y="569" on="0"/>
        <pt x="162" y="540" on="0"/>
        <pt x="162" y="510" on="1"/>
        <pt x="162" y="193" on="1"/>
        <pt x="162" y="113" on="0"/>
        <pt x="178" y="96" on="1"/>
        <pt x="204" y="69" on="0"/>
        <pt x="264" y="59" on="0"/>
        <pt x="348" y="59" on="0"/>
        <pt x="392" y="68" on="1"/>
        <pt x="392" y="295" on="1"/>
        <pt x="297" y="295" on="1"/>
        <pt x="297" y="355" on="1"/>
        <pt x="472" y="355" on="1"/>
        <pt x="472" y="26" on="1"/>
      </contour>
    </TTGlyph>
    <TTGlyph name="H" xMin="90" yMin="0" xMax="502" yMax="700">
      <contour>
        <pt x="416" y="700" on="1"/>
        <pt x="502" y="700" on="1"/>
        <pt x="502" y="0" on="1"/>
        <pt x="416" y="0" on="1"/>
        <pt x="416" y="316" on="1"/>
        <pt x="176" y="316" on="1"/>
        <pt x="176" y="0" on="1"/>
        <pt x="90" y="0" on="1"/>
        <pt x="90" y="700" on="1"/>
        <pt x="176" y="700" on="1"/>
        <pt x="176" y="386" on="1"/>
        <pt x="416" y="386" on="1"/>
      </contour>
    </TTGlyph>
    <TTGlyph name="I" xMin="90" yMin="0" xMax="176" yMax="700">
      <contour>
        <pt x="90" y="700" on="1"/>
        <pt x="176" y="700" on="1"/>
        <pt x="176" y="0" on="1"/>
        <pt x="90" y="0" on="1"/>
      </contour>
    </TTGlyph>
    <TTGlyph name="Iacute" xMin="28" yMin="0" xMax="239" yMax="901">
      <contour>
        <pt x="90" y="700" on="1"/>
        <pt x="176" y="700" on="1"/>
        <pt x="176" y="0" on="1"/>
        <pt x="90" y="0" on="1"/>
      </contour>
      <contour>
        <pt x="51" y="731" on="1"/>
        <pt x="28" y="765" on="1"/>
        <pt x="193" y="901" on="1"/>
        <pt x="239" y="834" on="1"/>
      </contour>
    </TTGlyph>
    <TTGlyph name="Icircumflex" xMin="0" yMin="0" xMax="267" yMax="891">
      <contour>
        <pt x="90" y="700" on="1"/>
        <pt x="176" y="700" on="1"/>
        <pt x="176" y="0" on="1"/>
        <pt x="90" y="0" on="1"/>
      </contour>
      <contour>
        <pt x="267" y="775" on="1"/>
        <pt x="236" y="738" on="1"/>
        <pt x="133" y="805" on="1"/>
        <pt x="30" y="738" on="1"/>
        <pt x="0" y="775" on="1"/>
        <pt x="133" y="891" on="1"/>
      </contour>
    </TTGlyph>
    <TTGlyph name="Idieresis" xMin="-9" yMin="0" xMax="275" yMax="862">
      <contour>
        <pt x="90" y="700" on="1"/>
        <pt x="176" y="700" on="1"/>
        <pt x="176" y="0" on="1"/>
        <pt x="90" y="0" on="1"/>
      </contour>
      <contour>
        <pt x="28" y="862" on="0"/>
        <pt x="58" y="862" on="0"/>
        <pt x="72" y="860" on="0"/>
        <pt x="80" y="856" on="1"/>
        <pt x="95" y="848" on="0"/>
        <pt x="95" y="793" on="0"/>
        <pt x="89" y="772" on="0"/>
        <pt x="72" y="763" on="0"/>
        <pt x="58" y="761" on="0"/>
        <pt x="28" y="761" on="0"/>
        <pt x="14" y="763" on="0"/>
        <pt x="6" y="768" on="1"/>
        <pt x="-9" y="775" on="0"/>
        <pt x="-9" y="830" on="0"/>
        <pt x="-3" y="851" on="0"/>
        <pt x="14" y="860" on="0"/>
      </contour>
      <contour>
        <pt x="208" y="862" on="0"/>
        <pt x="238" y="862" on="0"/>
        <pt x="252" y="860" on="0"/>
        <pt x="260" y="856" on="1"/>
        <pt x="275" y="848" on="0"/>
        <pt x="275" y="793" on="0"/>
        <pt x="269" y="772" on="0"/>
        <pt x="252" y="763" on="0"/>
        <pt x="238" y="761" on="0"/>
        <pt x="208" y="761" on="0"/>
        <pt x="194" y="763" on="0"/>
        <pt x="186" y="768" on="1"/>
        <pt x="171" y="775" on="0"/>
        <pt x="171" y="830" on="0"/>
        <pt x="177" y="851" on="0"/>
        <pt x="194" y="860" on="0"/>
      </contour>
    </TTGlyph>
    <TTGlyph name="Igrave" xMin="28" yMin="0" xMax="239" yMax="901">
      <contour>
        <pt x="90" y="700" on="1"/>
        <pt x="176" y="700" on="1"/>
        <pt x="176" y="0" on="1"/>
        <pt x="90" y="0" on="1"/>
      </contour>
      <contour>
        <pt x="239" y="765" on="1"/>
        <pt x="216" y="731" on="1"/>
        <pt x="28" y="834" on="1"/>
        <pt x="74" y="901" on="1"/>
      </contour>
    </TTGlyph>
    <TTGlyph name="J" xMin="26" yMin="-12" xMax="186" yMax="700">
      <contour>
        <pt x="186" y="700" on="1"/>
        <pt x="186" y="157" on="1"/>
        <pt x="186" y="54" on="0"/>
        <pt x="157" y="23" on="1"/>
        <pt x="124" y="-12" on="0"/>
        <pt x="59" y="-12" on="1"/>
        <pt x="44" y="-12" on="0"/>
        <pt x="26" y="-9" on="1"/>
        <pt x="26" y="47" on="1"/>
        <pt x="79" y="49" on="0"/>
        <pt x="90" y="72" on="1"/>
        <pt x="100" y="92" on="0"/>
        <pt x="100" y="135" on="1"/>
        <pt x="100" y="700" on="1"/>
      </contour>
    </TTGlyph>
    <TTGlyph name="K" xMin="90" yMin="0" xMax="478" yMax="700">
      <contour>
        <pt x="176" y="700" on="1"/>
        <pt x="176" y="0" on="1"/>
        <pt x="90" y="0" on="1"/>
        <pt x="90" y="700" on="1"/>
      </contour>
      <contour>
        <pt x="202" y="350" on="1"/>
        <pt x="386" y="700" on="1"/>
        <pt x="477" y="700" on="1"/>
        <pt x="293" y="350" on="1"/>
        <pt x="478" y="0" on="1"/>
        <pt x="386" y="0" on="1"/>
      </contour>
    </TTGlyph>
    <TTGlyph name="L" xMin="90" yMin="0" xMax="402" yMax="700">
      <contour>
        <pt x="90" y="0" on="1"/>
        <pt x="90" y="700" on="1"/>
        <pt x="176" y="700" on="1"/>
        <pt x="176" y="70" on="1"/>
        <pt x="402" y="70" on="1"/>
        <pt x="402" y="0" on="1"/>
      </contour>
    </TTGlyph>
    <TTGlyph name="Lslash" xMin="-6" yMin="0" xMax="402" yMax="700">
      <contour>
        <pt x="90" y="700" on="1"/>
        <pt x="176" y="700" on="1"/>
        <pt x="176" y="396" on="1"/>
        <pt x="243" y="430" on="1"/>
        <pt x="273" y="372" on="1"/>
        <pt x="176" y="322" on="1"/>
        <pt x="176" y="70" on="1"/>
        <pt x="402" y="70" on="1"/>
        <pt x="402" y="0" on="1"/>
        <pt x="90" y="0" on="1"/>
        <pt x="90" y="278" on="1"/>
        <pt x="24" y="245" on="1"/>
        <pt x="-6" y="303" on="1"/>
        <pt x="90" y="352" on="1"/>
      </contour>
    </TTGlyph>
    <TTGlyph name="M" xMin="82" yMin="0" xMax="644" yMax="700">
      <contour>
        <pt x="410" y="170" on="1"/>
        <pt x="316" y="170" on="1"/>
        <pt x="184" y="563" on="1"/>
        <pt x="178" y="563" on="1"/>
        <pt x="165" y="0" on="1"/>
        <pt x="82" y="0" on="1"/>
        <pt x="103" y="700" on="1"/>
        <pt x="213" y="700" on="1"/>
        <pt x="360" y="258" on="1"/>
        <pt x="366" y="258" on="1"/>
        <pt x="513" y="700" on="1"/>
        <pt x="623" y="700" on="1"/>
        <pt x="644" y="0" on="1"/>
        <pt x="561" y="0" on="1"/>
        <pt x="548" y="563" on="1"/>
        <pt x="542" y="563" on="1"/>
      </contour>
    </TTGlyph>
    <TTGlyph name="N" xMin="90" yMin="0" xMax="507" yMax="700">
      <contour>
        <pt x="90" y="700" on="1"/>
        <pt x="216" y="700" on="1"/>
        <pt x="417" y="116" on="1"/>
        <pt x="423" y="116" on="1"/>
        <pt x="423" y="700" on="1"/>
        <pt x="507" y="700" on="1"/>
        <pt x="507" y="0" on="1"/>
        <pt x="381" y="0" on="1"/>
        <pt x="180" y="584" on="1"/>
        <pt x="174" y="584" on="1"/>
        <pt x="174" y="0" on="1"/>
        <pt x="90" y="0" on="1"/>
      </contour>
    </TTGlyph>
    <TTGlyph name="Ntilde" xMin="90" yMin="0" xMax="507" yMax="857">
      <contour>
        <pt x="90" y="700" on="1"/>
        <pt x="216" y="700" on="1"/>
        <pt x="417" y="116" on="1"/>
        <pt x="423" y="116" on="1"/>
        <pt x="423" y="700" on="1"/>
        <pt x="507" y="700" on="1"/>
        <pt x="507" y="0" on="1"/>
        <pt x="381" y="0" on="1"/>
        <pt x="180" y="584" on="1"/>
        <pt x="174" y="584" on="1"/>
        <pt x="174" y="0" on="1"/>
        <pt x="90" y="0" on="1"/>
      </contour>
      <contour>
        <pt x="404" y="783" on="0"/>
        <pt x="369" y="765" on="0"/>
        <pt x="332" y="765" on="0"/>
        <pt x="267" y="792" on="0"/>
        <pt x="223" y="792" on="0"/>
        <pt x="192" y="772" on="1"/>
        <pt x="170" y="810" on="1"/>
        <pt x="199" y="839" on="0"/>
        <pt x="234" y="857" on="0"/>
        <pt x="271" y="857" on="0"/>
        <pt x="336" y="830" on="0"/>
        <pt x="380" y="830" on="0"/>
        <pt x="411" y="850" on="1"/>
        <pt x="433" y="812" on="1"/>
      </contour>
    </TTGlyph>
    <TTGlyph name="O" xMin="75" yMin="-12" xMax="518" yMax="712">
      <contour>
        <pt x="412" y="2" on="0"/>
        <pt x="343" y="-12" on="0"/>
        <pt x="263" y="-12" on="0"/>
        <pt x="210" y="-7" on="0"/>
        <pt x="168" y="8" on="0"/>
        <pt x="136" y="22" on="0"/>
        <pt x="111" y="56" on="0"/>
        <pt x="95" y="80" on="0"/>
        <pt x="84" y="134" on="0"/>
        <pt x="78" y="171" on="0"/>
        <pt x="77" y="210" on="1"/>
        <pt x="75" y="286" on="0"/>
        <pt x="75" y="420" on="0"/>
        <pt x="77" y="488" on="0"/>
        <pt x="84" y="584" on="0"/>
        <pt x="102" y="625" on="0"/>
        <pt x="132" y="678" on="0"/>
        <pt x="156" y="688" on="1"/>
        <pt x="220" y="712" on="0"/>
        <pt x="362" y="712" on="0"/>
        <pt x="445" y="683" on="0"/>
        <pt x="493" y="643" on="0"/>
        <pt x="514" y="535" on="0"/>
        <pt x="518" y="447" on="0"/>
        <pt x="518" y="278" on="0"/>
        <pt x="516" y="210" on="0"/>
        <pt x="509" y="114" on="0"/>
        <pt x="491" y="73" on="0"/>
        <pt x="461" y="21" on="0"/>
      </contour>
      <contour>
        <pt x="431" y="193" on="1"/>
        <pt x="431" y="507" on="1"/>
        <pt x="431" y="587" on="0"/>
        <pt x="414" y="604" on="1"/>
        <pt x="389" y="631" on="0"/>
        <pt x="330" y="641" on="0"/>
        <pt x="264" y="641" on="0"/>
        <pt x="216" y="633" on="0"/>
        <pt x="187" y="613" on="0"/>
        <pt x="170" y="595" on="0"/>
        <pt x="166" y="576" on="1"/>
        <pt x="162" y="552" on="0"/>
        <pt x="162" y="507" on="1"/>
        <pt x="162" y="193" on="1"/>
        <pt x="162" y="113" on="0"/>
        <pt x="178" y="96" on="1"/>
        <pt x="204" y="69" on="0"/>
        <pt x="264" y="59" on="0"/>
        <pt x="330" y="59" on="0"/>
        <pt x="377" y="67" on="0"/>
        <pt x="406" y="87" on="0"/>
        <pt x="423" y="105" on="0"/>
        <pt x="426" y="124" on="1"/>
        <pt x="431" y="148" on="0"/>
      </contour>
    </TTGlyph>
    <TTGlyph name="OE" xMin="75" yMin="0" xMax="774" yMax="700">
      <contour>
        <pt x="774" y="0" on="1"/>
        <pt x="296" y="0" on="1"/>
        <pt x="218" y="0" on="0"/>
        <pt x="156" y="22" on="1"/>
        <pt x="132" y="30" on="0"/>
        <pt x="102" y="79" on="0"/>
        <pt x="84" y="118" on="0"/>
        <pt x="80" y="164" on="1"/>
        <pt x="75" y="238" on="0"/>
        <pt x="75" y="431" on="0"/>
        <pt x="77" y="507" on="0"/>
        <pt x="90" y="606" on="0"/>
        <pt x="116" y="645" on="0"/>
        <pt x="166" y="688" on="0"/>
        <pt x="241" y="700" on="0"/>
        <pt x="296" y="700" on="1"/>
        <pt x="764" y="700" on="1"/>
        <pt x="754" y="630" on="1"/>
        <pt x="486" y="630" on="1"/>
        <pt x="505" y="596" on="0"/>
        <pt x="517" y="487" on="0"/>
        <pt x="518" y="386" on="1"/>
        <pt x="734" y="386" on="1"/>
        <pt x="734" y="316" on="1"/>
        <pt x="518" y="316" on="1"/>
        <pt x="517" y="211" on="0"/>
        <pt x="506" y="104" on="0"/>
        <pt x="487" y="70" on="1"/>
        <pt x="774" y="70" on="1"/>
      </contour>
      <contour>
        <pt x="431" y="205" on="1"/>
        <pt x="431" y="495" on="1"/>
        <pt x="431" y="575" on="0"/>
        <pt x="414" y="592" on="1"/>
        <pt x="389" y="619" on="0"/>
        <pt x="330" y="629" on="0"/>
        <pt x="264" y="629" on="0"/>
        <pt x="216" y="621" on="0"/>
        <pt x="187" y="601" on="0"/>
        <pt x="170" y="583" on="0"/>
        <pt x="166" y="564" on="1"/>
        <pt x="162" y="540" on="0"/>
        <pt x="162" y="495" on="1"/>
        <pt x="162" y="205" on="1"/>
        <pt x="162" y="125" on="0"/>
        <pt x="178" y="108" on="1"/>
        <pt x="204" y="81" on="0"/>
        <pt x="264" y="71" on="0"/>
        <pt x="330" y="71" on="0"/>
        <pt x="377" y="79" on="0"/>
        <pt x="406" y="99" on="0"/>
        <pt x="423" y="117" on="0"/>
        <pt x="426" y="136" on="1"/>
        <pt x="431" y="160" on="0"/>
      </contour>
    </TTGlyph>
    <TTGlyph name="Oacute" xMin="75" yMin="-12" xMax="518" yMax="901">
      <contour>
        <pt x="412" y="2" on="0"/>
        <pt x="343" y="-12" on="0"/>
        <pt x="263" y="-12" on="0"/>
        <pt x="210" y="-7" on="0"/>
        <pt x="168" y="8" on="0"/>
        <pt x="136" y="22" on="0"/>
        <pt x="111" y="56" on="0"/>
        <pt x="95" y="80" on="0"/>
        <pt x="84" y="134" on="0"/>
        <pt x="78" y="171" on="0"/>
        <pt x="77" y="210" on="1"/>
        <pt x="75" y="286" on="0"/>
        <pt x="75" y="420" on="0"/>
        <pt x="77" y="488" on="0"/>
        <pt x="84" y="584" on="0"/>
        <pt x="102" y="625" on="0"/>
        <pt x="132" y="678" on="0"/>
        <pt x="156" y="688" on="1"/>
        <pt x="220" y="712" on="0"/>
        <pt x="362" y="712" on="0"/>
        <pt x="445" y="683" on="0"/>
        <pt x="493" y="643" on="0"/>
        <pt x="514" y="535" on="0"/>
        <pt x="518" y="447" on="0"/>
        <pt x="518" y="278" on="0"/>
        <pt x="516" y="210" on="0"/>
        <pt x="509" y="114" on="0"/>
        <pt x="491" y="73" on="0"/>
        <pt x="461" y="21" on="0"/>
      </contour>
      <contour>
        <pt x="431" y="193" on="1"/>
        <pt x="431" y="507" on="1"/>
        <pt x="431" y="587" on="0"/>
        <pt x="414" y="604" on="1"/>
        <pt x="389" y="631" on="0"/>
        <pt x="330" y="641" on="0"/>
        <pt x="264" y="641" on="0"/>
        <pt x="216" y="633" on="0"/>
        <pt x="187" y="613" on="0"/>
        <pt x="170" y="595" on="0"/>
        <pt x="166" y="576" on="1"/>
        <pt x="162" y="552" on="0"/>
        <pt x="162" y="507" on="1"/>
        <pt x="162" y="193" on="1"/>
        <pt x="162" y="113" on="0"/>
        <pt x="178" y="96" on="1"/>
        <pt x="204" y="69" on="0"/>
        <pt x="264" y="59" on="0"/>
        <pt x="330" y="59" on="0"/>
        <pt x="377" y="67" on="0"/>
        <pt x="406" y="87" on="0"/>
        <pt x="423" y="105" on="0"/>
        <pt x="426" y="124" on="1"/>
        <pt x="431" y="148" on="0"/>
      </contour>
      <contour>
        <pt x="224" y="731" on="1"/>
        <pt x="201" y="765" on="1"/>
        <pt x="366" y="901" on="1"/>
        <pt x="412" y="834" on="1"/>
      </contour>
    </TTGlyph>
    <TTGlyph name="Ocircumflex" xMin="75" yMin="-12" xMax="518" yMax="891">
      <contour>
        <pt x="412" y="2" on="0"/>
        <pt x="343" y="-12" on="0"/>
        <pt x="263" y="-12" on="0"/>
        <pt x="210" y="-7" on="0"/>
        <pt x="168" y="8" on="0"/>
        <pt x="136" y="22" on="0"/>
        <pt x="111" y="56" on="0"/>
        <pt x="95" y="80" on="0"/>
        <pt x="84" y="134" on="0"/>
        <pt x="78" y="171" on="0"/>
        <pt x="77" y="210" on="1"/>
        <pt x="75" y="286" on="0"/>
        <pt x="75" y="420" on="0"/>
        <pt x="77" y="488" on="0"/>
        <pt x="84" y="584" on="0"/>
        <pt x="102" y="625" on="0"/>
        <pt x="132" y="678" on="0"/>
        <pt x="156" y="688" on="1"/>
        <pt x="220" y="712" on="0"/>
        <pt x="362" y="712" on="0"/>
        <pt x="445" y="683" on="0"/>
        <pt x="493" y="643" on="0"/>
        <pt x="514" y="535" on="0"/>
        <pt x="518" y="447" on="0"/>
        <pt x="518" y="278" on="0"/>
        <pt x="516" y="210" on="0"/>
        <pt x="509" y="114" on="0"/>
        <pt x="491" y="73" on="0"/>
        <pt x="461" y="21" on="0"/>
      </contour>
      <contour>
        <pt x="431" y="193" on="1"/>
        <pt x="431" y="507" on="1"/>
        <pt x="431" y="587" on="0"/>
        <pt x="414" y="604" on="1"/>
        <pt x="389" y="631" on="0"/>
        <pt x="330" y="641" on="0"/>
        <pt x="264" y="641" on="0"/>
        <pt x="216" y="633" on="0"/>
        <pt x="187" y="613" on="0"/>
        <pt x="170" y="595" on="0"/>
        <pt x="166" y="576" on="1"/>
        <pt x="162" y="552" on="0"/>
        <pt x="162" y="507" on="1"/>
        <pt x="162" y="193" on="1"/>
        <pt x="162" y="113" on="0"/>
        <pt x="178" y="96" on="1"/>
        <pt x="204" y="69" on="0"/>
        <pt x="264" y="59" on="0"/>
        <pt x="330" y="59" on="0"/>
        <pt x="377" y="67" on="0"/>
        <pt x="406" y="87" on="0"/>
        <pt x="423" y="105" on="0"/>
        <pt x="426" y="124" on="1"/>
        <pt x="431" y="148" on="0"/>
      </contour>
      <contour>
        <pt x="430" y="775" on="1"/>
        <pt x="399" y="738" on="1"/>
        <pt x="296" y="805" on="1"/>
        <pt x="193" y="738" on="1"/>
        <pt x="163" y="775" on="1"/>
        <pt x="296" y="891" on="1"/>
      </contour>
    </TTGlyph>
    <TTGlyph name="Odieresis" xMin="75" yMin="-12" xMax="518" yMax="862">
      <contour>
        <pt x="412" y="2" on="0"/>
        <pt x="343" y="-12" on="0"/>
        <pt x="263" y="-12" on="0"/>
        <pt x="210" y="-7" on="0"/>
        <pt x="168" y="8" on="0"/>
        <pt x="136" y="22" on="0"/>
        <pt x="111" y="56" on="0"/>
        <pt x="95" y="80" on="0"/>
        <pt x="84" y="134" on="0"/>
        <pt x="78" y="171" on="0"/>
        <pt x="77" y="210" on="1"/>
        <pt x="75" y="286" on="0"/>
        <pt x="75" y="420" on="0"/>
        <pt x="77" y="488" on="0"/>
        <pt x="84" y="584" on="0"/>
        <pt x="102" y="625" on="0"/>
        <pt x="132" y="678" on="0"/>
        <pt x="156" y="688" on="1"/>
        <pt x="220" y="712" on="0"/>
        <pt x="362" y="712" on="0"/>
        <pt x="445" y="683" on="0"/>
        <pt x="493" y="643" on="0"/>
        <pt x="514" y="535" on="0"/>
        <pt x="518" y="447" on="0"/>
        <pt x="518" y="278" on="0"/>
        <pt x="516" y="210" on="0"/>
        <pt x="509" y="114" on="0"/>
        <pt x="491" y="73" on="0"/>
        <pt x="461" y="21" on="0"/>
      </contour>
      <contour>
        <pt x="431" y="193" on="1"/>
        <pt x="431" y="507" on="1"/>
        <pt x="431" y="587" on="0"/>
        <pt x="414" y="604" on="1"/>
        <pt x="389" y="631" on="0"/>
        <pt x="330" y="641" on="0"/>
        <pt x="264" y="641" on="0"/>
        <pt x="216" y="633" on="0"/>
        <pt x="187" y="613" on="0"/>
        <pt x="170" y="595" on="0"/>
        <pt x="166" y="576" on="1"/>
        <pt x="162" y="552" on="0"/>
        <pt x="162" y="507" on="1"/>
        <pt x="162" y="193" on="1"/>
        <pt x="162" y="113" on="0"/>
        <pt x="178" y="96" on="1"/>
        <pt x="204" y="69" on="0"/>
        <pt x="264" y="59" on="0"/>
        <pt x="330" y="59" on="0"/>
        <pt x="377" y="67" on="0"/>
        <pt x="406" y="87" on="0"/>
        <pt x="423" y="105" on="0"/>
        <pt x="426" y="124" on="1"/>
        <pt x="431" y="148" on="0"/>
      </contour>
      <contour>
        <pt x="191" y="862" on="0"/>
        <pt x="221" y="862" on="0"/>
        <pt x="235" y="860" on="0"/>
        <pt x="244" y="856" on="1"/>
        <pt x="258" y="848" on="0"/>
        <pt x="258" y="793" on="0"/>
        <pt x="252" y="772" on="0"/>
        <pt x="235" y="763" on="0"/>
        <pt x="221" y="761" on="0"/>
        <pt x="191" y="761" on="0"/>
        <pt x="177" y="763" on="0"/>
        <pt x="168" y="768" on="1"/>
        <pt x="154" y="775" on="0"/>
        <pt x="154" y="830" on="0"/>
        <pt x="160" y="851" on="0"/>
        <pt x="177" y="860" on="0"/>
      </contour>
      <contour>
        <pt x="371" y="862" on="0"/>
        <pt x="401" y="862" on="0"/>
        <pt x="415" y="860" on="0"/>
        <pt x="424" y="856" on="1"/>
        <pt x="438" y="848" on="0"/>
        <pt x="438" y="793" on="0"/>
        <pt x="432" y="772" on="0"/>
        <pt x="415" y="763" on="0"/>
        <pt x="401" y="761" on="0"/>
        <pt x="371" y="761" on="0"/>
        <pt x="357" y="763" on="0"/>
        <pt x="348" y="768" on="1"/>
        <pt x="334" y="775" on="0"/>
        <pt x="334" y="830" on="0"/>
        <pt x="340" y="851" on="0"/>
        <pt x="357" y="860" on="0"/>
      </contour>
    </TTGlyph>
    <TTGlyph name="Ograve" xMin="75" yMin="-12" xMax="518" yMax="901">
      <contour>
        <pt x="412" y="2" on="0"/>
        <pt x="343" y="-12" on="0"/>
        <pt x="263" y="-12" on="0"/>
        <pt x="210" y="-7" on="0"/>
        <pt x="168" y="8" on="0"/>
        <pt x="136" y="22" on="0"/>
        <pt x="111" y="56" on="0"/>
        <pt x="95" y="80" on="0"/>
        <pt x="84" y="134" on="0"/>
        <pt x="78" y="171" on="0"/>
        <pt x="77" y="210" on="1"/>
        <pt x="75" y="286" on="0"/>
        <pt x="75" y="420" on="0"/>
        <pt x="77" y="488" on="0"/>
        <pt x="84" y="584" on="0"/>
        <pt x="102" y="625" on="0"/>
        <pt x="132" y="678" on="0"/>
        <pt x="156" y="688" on="1"/>
        <pt x="220" y="712" on="0"/>
        <pt x="362" y="712" on="0"/>
        <pt x="445" y="683" on="0"/>
        <pt x="493" y="643" on="0"/>
        <pt x="514" y="535" on="0"/>
        <pt x="518" y="447" on="0"/>
        <pt x="518" y="278" on="0"/>
        <pt x="516" y="210" on="0"/>
        <pt x="509" y="114" on="0"/>
        <pt x="491" y="73" on="0"/>
        <pt x="461" y="21" on="0"/>
      </contour>
      <contour>
        <pt x="431" y="193" on="1"/>
        <pt x="431" y="507" on="1"/>
        <pt x="431" y="587" on="0"/>
        <pt x="414" y="604" on="1"/>
        <pt x="389" y="631" on="0"/>
        <pt x="330" y="641" on="0"/>
        <pt x="264" y="641" on="0"/>
        <pt x="216" y="633" on="0"/>
        <pt x="187" y="613" on="0"/>
        <pt x="170" y="595" on="0"/>
        <pt x="166" y="576" on="1"/>
        <pt x="162" y="552" on="0"/>
        <pt x="162" y="507" on="1"/>
        <pt x="162" y="193" on="1"/>
        <pt x="162" y="113" on="0"/>
        <pt x="178" y="96" on="1"/>
        <pt x="204" y="69" on="0"/>
        <pt x="264" y="59" on="0"/>
        <pt x="330" y="59" on="0"/>
        <pt x="377" y="67" on="0"/>
        <pt x="406" y="87" on="0"/>
        <pt x="423" y="105" on="0"/>
        <pt x="426" y="124" on="1"/>
        <pt x="431" y="148" on="0"/>
      </contour>
      <contour>
        <pt x="402" y="765" on="1"/>
        <pt x="379" y="731" on="1"/>
        <pt x="191" y="834" on="1"/>
        <pt x="237" y="901" on="1"/>
      </contour>
    </TTGlyph>
    <TTGlyph name="Omega" xMin="75" yMin="0" xMax="589" yMax="658">
      <contour>
        <pt x="445" y="574" on="0"/>
        <pt x="380" y="587" on="0"/>
        <pt x="285" y="587" on="0"/>
        <pt x="220" y="574" on="0"/>
        <pt x="187" y="557" on="0"/>
        <pt x="170" y="522" on="0"/>
        <pt x="168" y="499" on="0"/>
        <pt x="168" y="476" on="1"/>
        <pt x="168" y="299" on="1"/>
        <pt x="168" y="239" on="0"/>
        <pt x="190" y="220" on="1"/>
        <pt x="217" y="197" on="0"/>
        <pt x="271" y="192" on="1"/>
        <pt x="271" y="0" on="1"/>
        <pt x="75" y="0" on="1"/>
        <pt x="75" y="70" on="1"/>
        <pt x="201" y="70" on="1"/>
        <pt x="201" y="143" on="1"/>
        <pt x="157" y="155" on="0"/>
        <pt x="124" y="183" on="1"/>
        <pt x="105" y="199" on="0"/>
        <pt x="90" y="250" on="1"/>
        <pt x="80" y="280" on="0"/>
        <pt x="80" y="448" on="0"/>
        <pt x="83" y="498" on="0"/>
        <pt x="96" y="573" on="0"/>
        <pt x="127" y="606" on="0"/>
        <pt x="182" y="644" on="0"/>
        <pt x="270" y="658" on="0"/>
        <pt x="394" y="658" on="0"/>
        <pt x="482" y="644" on="0"/>
        <pt x="537" y="606" on="0"/>
        <pt x="568" y="573" on="0"/>
        <pt x="574" y="536" on="1"/>
        <pt x="584" y="481" on="0"/>
        <pt x="584" y="357" on="0"/>
        <pt x="583" y="322" on="0"/>
        <pt x="579" y="264" on="0"/>
        <pt x="570" y="235" on="0"/>
        <pt x="553" y="194" on="0"/>
        <pt x="540" y="183" on="1"/>
        <pt x="507" y="155" on="0"/>
        <pt x="463" y="143" on="1"/>
        <pt x="463" y="70" on="1"/>
        <pt x="589" y="70" on="1"/>
        <pt x="589" y="0" on="1"/>
        <pt x="393" y="0" on="1"/>
        <pt x="393" y="192" on="1"/>
        <pt x="474" y="200" on="0"/>
        <pt x="490" y="244" on="1"/>
        <pt x="496" y="263" on="0"/>
        <pt x="496" y="299" on="1"/>
        <pt x="496" y="476" on="1"/>
        <pt x="496" y="499" on="0"/>
        <pt x="494" y="522" on="0"/>
        <pt x="477" y="557" on="0"/>
      </contour>
    </TTGlyph>
    <TTGlyph name="Oslash" xMin="75" yMin="-54" xMax="518" yMax="750">
      <contour>
        <pt x="75" y="420" on="0"/>
        <pt x="77" y="488" on="0"/>
        <pt x="84" y="584" on="0"/>
        <pt x="102" y="625" on="0"/>
        <pt x="132" y="678" on="0"/>
        <pt x="156" y="688" on="1"/>
        <pt x="220" y="712" on="0"/>
        <pt x="296" y="712" on="1"/>
        <pt x="326" y="712" on="0"/>
        <pt x="352" y="709" on="1"/>
        <pt x="361" y="750" on="1"/>
        <pt x="406" y="750" on="1"/>
        <pt x="395" y="702" on="1"/>
        <pt x="443" y="689" on="0"/>
        <pt x="465" y="664" on="1"/>
        <pt x="478" y="648" on="0"/>
        <pt x="496" y="621" on="0"/>
        <pt x="508" y="568" on="0"/>
        <pt x="514" y="529" on="0"/>
        <pt x="516" y="491" on="1"/>
        <pt x="518" y="428" on="0"/>
        <pt x="518" y="278" on="0"/>
        <pt x="516" y="210" on="0"/>
        <pt x="509" y="114" on="0"/>
        <pt x="491" y="73" on="0"/>
        <pt x="461" y="21" on="0"/>
        <pt x="436" y="12" on="1"/>
        <pt x="376" y="-12" on="0"/>
        <pt x="296" y="-12" on="1"/>
        <pt x="266" y="-12" on="0"/>
        <pt x="240" y="-9" on="1"/>
        <pt x="231" y="-54" on="1"/>
        <pt x="186" y="-54" on="1"/>
        <pt x="197" y="-2" on="1"/>
        <pt x="153" y="8" on="0"/>
        <pt x="120" y="41" on="1"/>
        <pt x="102" y="59" on="0"/>
        <pt x="85" y="127" on="1"/>
        <pt x="75" y="167" on="0"/>
      </contour>
      <contour>
        <pt x="431" y="193" on="1"/>
        <pt x="431" y="507" on="1"/>
        <pt x="431" y="588" on="0"/>
        <pt x="409" y="610" on="1"/>
        <pt x="398" y="621" on="0"/>
        <pt x="379" y="629" on="1"/>
        <pt x="256" y="61" on="1"/>
        <pt x="268" y="59" on="0"/>
        <pt x="330" y="59" on="0"/>
        <pt x="377" y="67" on="0"/>
        <pt x="406" y="87" on="0"/>
        <pt x="423" y="105" on="0"/>
        <pt x="426" y="124" on="1"/>
        <pt x="431" y="148" on="0"/>
      </contour>
      <contour>
        <pt x="162" y="507" on="1"/>
        <pt x="162" y="193" on="1"/>
        <pt x="162" y="112" on="0"/>
        <pt x="184" y="90" on="1"/>
        <pt x="195" y="78" on="0"/>
        <pt x="213" y="71" on="1"/>
        <pt x="337" y="639" on="1"/>
        <pt x="313" y="641" on="0"/>
        <pt x="264" y="641" on="0"/>
        <pt x="216" y="633" on="0"/>
        <pt x="187" y="613" on="0"/>
        <pt x="170" y="595" on="0"/>
        <pt x="166" y="576" on="1"/>
        <pt x="162" y="552" on="0"/>
      </contour>
    </TTGlyph>
    <TTGlyph name="Otilde" xMin="75" yMin="-12" xMax="518" yMax="857">
      <contour>
        <pt x="412" y="2" on="0"/>
        <pt x="343" y="-12" on="0"/>
        <pt x="263" y="-12" on="0"/>
        <pt x="210" y="-7" on="0"/>
        <pt x="168" y="8" on="0"/>
        <pt x="136" y="22" on="0"/>
        <pt x="111" y="56" on="0"/>
        <pt x="95" y="80" on="0"/>
        <pt x="84" y="134" on="0"/>
        <pt x="78" y="171" on="0"/>
        <pt x="77" y="210" on="1"/>
        <pt x="75" y="286" on="0"/>
        <pt x="75" y="420" on="0"/>
        <pt x="77" y="488" on="0"/>
        <pt x="84" y="584" on="0"/>
        <pt x="102" y="625" on="0"/>
        <pt x="132" y="678" on="0"/>
        <pt x="156" y="688" on="1"/>
        <pt x="220" y="712" on="0"/>
        <pt x="362" y="712" on="0"/>
        <pt x="445" y="683" on="0"/>
        <pt x="493" y="643" on="0"/>
        <pt x="514" y="535" on="0"/>
        <pt x="518" y="447" on="0"/>
        <pt x="518" y="278" on="0"/>
        <pt x="516" y="210" on="0"/>
        <pt x="509" y="114" on="0"/>
        <pt x="491" y="73" on="0"/>
        <pt x="461" y="21" on="0"/>
      </contour>
      <contour>
        <pt x="431" y="193" on="1"/>
        <pt x="431" y="507" on="1"/>
        <pt x="431" y="587" on="0"/>
        <pt x="414" y="604" on="1"/>
        <pt x="389" y="631" on="0"/>
        <pt x="330" y="641" on="0"/>
        <pt x="264" y="641" on="0"/>
        <pt x="216" y="633" on="0"/>
        <pt x="187" y="613" on="0"/>
        <pt x="170" y="595" on="0"/>
        <pt x="166" y="576" on="1"/>
        <pt x="162" y="552" on="0"/>
        <pt x="162" y="507" on="1"/>
        <pt x="162" y="193" on="1"/>
        <pt x="162" y="113" on="0"/>
        <pt x="178" y="96" on="1"/>
        <pt x="204" y="69" on="0"/>
        <pt x="264" y="59" on="0"/>
        <pt x="330" y="59" on="0"/>
        <pt x="377" y="67" on="0"/>
        <pt x="406" y="87" on="0"/>
        <pt x="423" y="105" on="0"/>
        <pt x="426" y="124" on="1"/>
        <pt x="431" y="148" on="0"/>
      </contour>
      <contour>
        <pt x="399" y="783" on="0"/>
        <pt x="364" y="765" on="0"/>
        <pt x="327" y="765" on="0"/>
        <pt x="262" y="792" on="0"/>
        <pt x="218" y="792" on="0"/>
        <pt x="187" y="772" on="1"/>
        <pt x="165" y="810" on="1"/>
        <pt x="194" y="839" on="0"/>
        <pt x="229" y="857" on="0"/>
        <pt x="266" y="857" on="0"/>
        <pt x="331" y="830" on="0"/>
        <pt x="375" y="830" on="0"/>
        <pt x="406" y="850" on="1"/>
        <pt x="428" y="812" on="1"/>
      </contour>
    </TTGlyph>
    <TTGlyph name="P" xMin="90" yMin="0" xMax="463" yMax="700">
      <contour>
        <pt x="90" y="700" on="1"/>
        <pt x="241" y="700" on="1"/>
        <pt x="361" y="700" on="0"/>
        <pt x="463" y="598" on="0"/>
        <pt x="463" y="350" on="0"/>
        <pt x="361" y="248" on="0"/>
        <pt x="241" y="248" on="1"/>
        <pt x="176" y="248" on="1"/>
        <pt x="176" y="0" on="1"/>
        <pt x="90" y="0" on="1"/>
      </contour>
      <contour>
        <pt x="376" y="450" on="1"/>
        <pt x="376" y="498" on="1"/>
        <pt x="376" y="528" on="0"/>
        <pt x="374" y="557" on="0"/>
        <pt x="361" y="597" on="0"/>
        <pt x="347" y="606" on="1"/>
        <pt x="311" y="629" on="0"/>
        <pt x="242" y="629" on="1"/>
        <pt x="176" y="629" on="1"/>
        <pt x="176" y="319" on="1"/>
        <pt x="242" y="319" on="1"/>
        <pt x="311" y="319" on="0"/>
        <pt x="347" y="342" on="1"/>
        <pt x="372" y="358" on="0"/>
        <pt x="375" y="406" on="1"/>
        <pt x="376" y="420" on="0"/>
      </contour>
    </TTGlyph>
    <TTGlyph name="Q" xMin="75" yMin="-124" xMax="518" yMax="712">
      <contour>
        <pt x="76" y="230" on="0"/>
        <pt x="75" y="290" on="0"/>
        <pt x="75" y="420" on="0"/>
        <pt x="77" y="488" on="0"/>
        <pt x="84" y="584" on="0"/>
        <pt x="102" y="625" on="0"/>
        <pt x="132" y="678" on="0"/>
        <pt x="156" y="688" on="1"/>
        <pt x="220" y="712" on="0"/>
        <pt x="362" y="712" on="0"/>
        <pt x="445" y="683" on="0"/>
        <pt x="493" y="643" on="0"/>
        <pt x="514" y="535" on="0"/>
        <pt x="518" y="447" on="0"/>
        <pt x="518" y="257" on="0"/>
        <pt x="515" y="171" on="0"/>
        <pt x="497" y="67" on="0"/>
        <pt x="478" y="46" on="1"/>
        <pt x="429" y="-6" on="0"/>
        <pt x="334" y="-11" on="1"/>
        <pt x="334" y="-16" on="1"/>
        <pt x="340" y="-21" on="1"/>
        <pt x="365" y="-124" on="1"/>
        <pt x="287" y="-124" on="1"/>
        <pt x="266" y="-11" on="1"/>
        <pt x="189" y="-7" on="0"/>
        <pt x="136" y="27" on="0"/>
        <pt x="109" y="51" on="0"/>
        <pt x="91" y="105" on="0"/>
        <pt x="81" y="145" on="0"/>
      </contour>
      <contour>
        <pt x="431" y="193" on="1"/>
        <pt x="431" y="507" on="1"/>
        <pt x="431" y="587" on="0"/>
        <pt x="414" y="604" on="1"/>
        <pt x="389" y="631" on="0"/>
        <pt x="330" y="641" on="0"/>
        <pt x="264" y="641" on="0"/>
        <pt x="216" y="633" on="0"/>
        <pt x="187" y="613" on="0"/>
        <pt x="170" y="595" on="0"/>
        <pt x="166" y="576" on="1"/>
        <pt x="162" y="552" on="0"/>
        <pt x="162" y="507" on="1"/>
        <pt x="162" y="193" on="1"/>
        <pt x="162" y="113" on="0"/>
        <pt x="178" y="96" on="1"/>
        <pt x="204" y="69" on="0"/>
        <pt x="264" y="59" on="0"/>
        <pt x="330" y="59" on="0"/>
        <pt x="377" y="67" on="0"/>
        <pt x="406" y="87" on="0"/>
        <pt x="423" y="105" on="0"/>
        <pt x="426" y="124" on="1"/>
        <pt x="431" y="148" on="0"/>
      </contour>
    </TTGlyph>
    <TTGlyph name="R" xMin="90" yMin="0" xMax="480" yMax="700">
      <contour>
        <pt x="241" y="268" on="1"/>
        <pt x="176" y="268" on="1"/>
        <pt x="176" y="0" on="1"/>
        <pt x="90" y="0" on="1"/>
        <pt x="90" y="700" on="1"/>
        <pt x="241" y="700" on="1"/>
        <pt x="361" y="700" on="0"/>
        <pt x="463" y="603" on="0"/>
        <pt x="463" y="484" on="1"/>
        <pt x="463" y="402" on="0"/>
        <pt x="416" y="307" on="0"/>
        <pt x="365" y="287" on="1"/>
        <pt x="480" y="0" on="1"/>
        <pt x="392" y="0" on="1"/>
        <pt x="282" y="269" on="1"/>
        <pt x="269" y="268" on="0"/>
      </contour>
      <contour>
        <pt x="376" y="462" on="1"/>
        <pt x="376" y="506" on="1"/>
        <pt x="376" y="534" on="0"/>
        <pt x="374" y="561" on="0"/>
        <pt x="361" y="599" on="0"/>
        <pt x="347" y="608" on="1"/>
        <pt x="312" y="629" on="0"/>
        <pt x="242" y="629" on="1"/>
        <pt x="176" y="629" on="1"/>
        <pt x="176" y="339" on="1"/>
        <pt x="242" y="339" on="1"/>
        <pt x="312" y="339" on="0"/>
        <pt x="347" y="360" on="1"/>
        <pt x="361" y="369" on="0"/>
        <pt x="374" y="407" on="0"/>
        <pt x="376" y="434" on="0"/>
      </contour>
    </TTGlyph>
    <TTGlyph name="S" xMin="55" yMin="-12" xMax="435" yMax="712">
      <contour>
        <pt x="435" y="97" on="0"/>
        <pt x="345" y="-12" on="0"/>
        <pt x="140" y="-12" on="0"/>
        <pt x="55" y="25" on="1"/>
        <pt x="73" y="87" on="1"/>
        <pt x="153" y="59" on="0"/>
        <pt x="237" y="59" on="1"/>
        <pt x="296" y="59" on="0"/>
        <pt x="351" y="117" on="0"/>
        <pt x="351" y="237" on="0"/>
        <pt x="321" y="299" on="0"/>
        <pt x="273" y="306" on="1"/>
        <pt x="174" y="320" on="1"/>
        <pt x="104" y="331" on="0"/>
        <pt x="57" y="423" on="0"/>
        <pt x="57" y="609" on="0"/>
        <pt x="154" y="712" on="0"/>
        <pt x="325" y="712" on="0"/>
        <pt x="411" y="680" on="1"/>
        <pt x="393" y="620" on="1"/>
        <pt x="318" y="641" on="0"/>
        <pt x="197" y="641" on="0"/>
        <pt x="141" y="592" on="0"/>
        <pt x="141" y="458" on="0"/>
        <pt x="170" y="400" on="0"/>
        <pt x="214" y="394" on="1"/>
        <pt x="308" y="380" on="1"/>
        <pt x="372" y="370" on="0"/>
        <pt x="435" y="285" on="0"/>
      </contour>
    </TTGlyph>
    <TTGlyph name="Scaron" xMin="55" yMin="-12" xMax="435" yMax="882">
      <contour>
        <pt x="435" y="97" on="0"/>
        <pt x="345" y="-12" on="0"/>
        <pt x="140" y="-12" on="0"/>
        <pt x="55" y="25" on="1"/>
        <pt x="73" y="87" on="1"/>
        <pt x="153" y="59" on="0"/>
        <pt x="237" y="59" on="1"/>
        <pt x="296" y="59" on="0"/>
        <pt x="351" y="117" on="0"/>
        <pt x="351" y="237" on="0"/>
        <pt x="321" y="299" on="0"/>
        <pt x="273" y="306" on="1"/>
        <pt x="174" y="320" on="1"/>
        <pt x="104" y="331" on="0"/>
        <pt x="57" y="423" on="0"/>
        <pt x="57" y="609" on="0"/>
        <pt x="154" y="712" on="0"/>
        <pt x="325" y="712" on="0"/>
        <pt x="411" y="680" on="1"/>
        <pt x="393" y="620" on="1"/>
        <pt x="318" y="641" on="0"/>
        <pt x="197" y="641" on="0"/>
        <pt x="141" y="592" on="0"/>
        <pt x="141" y="458" on="0"/>
        <pt x="170" y="400" on="0"/>
        <pt x="214" y="394" on="1"/>
        <pt x="308" y="380" on="1"/>
        <pt x="372" y="370" on="0"/>
        <pt x="435" y="285" on="0"/>
      </contour>
      <contour>
        <pt x="111" y="845" on="1"/>
        <pt x="142" y="882" on="1"/>
        <pt x="245" y="815" on="1"/>
        <pt x="348" y="882" on="1"/>
        <pt x="378" y="845" on="1"/>
        <pt x="245" y="729" on="1"/>
      </contour>
    </TTGlyph>
    <TTGlyph name="T" xMin="10" yMin="0" xMax="390" yMax="700">
      <contour>
        <pt x="10" y="630" on="1"/>
        <pt x="10" y="700" on="1"/>
        <pt x="390" y="700" on="1"/>
        <pt x="390" y="630" on="1"/>
        <pt x="243" y="630" on="1"/>
        <pt x="243" y="0" on="1"/>
        <pt x="157" y="0" on="1"/>
        <pt x="157" y="630" on="1"/>
      </contour>
    </TTGlyph>
    <TTGlyph name="Thorn" xMin="90" yMin="0" xMax="463" yMax="700">
      <contour>
        <pt x="90" y="700" on="1"/>
        <pt x="176" y="700" on="1"/>
        <pt x="176" y="576" on="1"/>
        <pt x="241" y="576" on="1"/>
        <pt x="361" y="576" on="0"/>
        <pt x="463" y="474" on="0"/>
        <pt x="463" y="226" on="0"/>
        <pt x="361" y="124" on="0"/>
        <pt x="241" y="124" on="1"/>
        <pt x="176" y="124" on="1"/>
        <pt x="176" y="0" on="1"/>
        <pt x="90" y="0" on="1"/>
      </contour>
      <contour>
        <pt x="376" y="326" on="1"/>
        <pt x="376" y="374" on="1"/>
        <pt x="376" y="404" on="0"/>
        <pt x="374" y="433" on="0"/>
        <pt x="361" y="473" on="0"/>
        <pt x="347" y="482" on="1"/>
        <pt x="311" y="505" on="0"/>
        <pt x="242" y="505" on="1"/>
        <pt x="176" y="505" on="1"/>
        <pt x="176" y="195" on="1"/>
        <pt x="242" y="195" on="1"/>
        <pt x="311" y="195" on="0"/>
        <pt x="347" y="218" on="1"/>
        <pt x="372" y="234" on="0"/>
        <pt x="375" y="282" on="1"/>
        <pt x="376" y="296" on="0"/>
      </contour>
    </TTGlyph>
    <TTGlyph name="U" xMin="85" yMin="-12" xMax="526" yMax="700">
      <contour>
        <pt x="440" y="193" on="1"/>
        <pt x="440" y="700" on="1"/>
        <pt x="526" y="700" on="1"/>
        <pt x="526" y="349" on="1"/>
        <pt x="526" y="135" on="0"/>
        <pt x="508" y="94" on="1"/>
        <pt x="500" y="74" on="0"/>
        <pt x="469" y="21" on="0"/>
        <pt x="421" y="2" on="0"/>
        <pt x="352" y="-12" on="0"/>
        <pt x="258" y="-12" on="0"/>
        <pt x="190" y="2" on="0"/>
        <pt x="141" y="21" on="0"/>
        <pt x="111" y="74" on="0"/>
        <pt x="94" y="114" on="0"/>
        <pt x="90" y="162" on="1"/>
        <pt x="85" y="222" on="0"/>
        <pt x="85" y="349" on="1"/>
        <pt x="85" y="700" on="1"/>
        <pt x="171" y="700" on="1"/>
        <pt x="171" y="193" on="1"/>
        <pt x="171" y="163" on="0"/>
        <pt x="173" y="134" on="0"/>
        <pt x="186" y="94" on="0"/>
        <pt x="214" y="76" on="0"/>
        <pt x="267" y="62" on="0"/>
        <pt x="345" y="62" on="0"/>
        <pt x="397" y="76" on="0"/>
        <pt x="425" y="94" on="0"/>
        <pt x="438" y="134" on="0"/>
        <pt x="440" y="163" on="0"/>
      </contour>
    </TTGlyph>
    <TTGlyph name="Uacute" xMin="85" yMin="-12" xMax="526" yMax="901">
      <contour>
        <pt x="440" y="193" on="1"/>
        <pt x="440" y="700" on="1"/>
        <pt x="526" y="700" on="1"/>
        <pt x="526" y="349" on="1"/>
        <pt x="526" y="135" on="0"/>
        <pt x="508" y="94" on="1"/>
        <pt x="500" y="74" on="0"/>
        <pt x="469" y="21" on="0"/>
        <pt x="421" y="2" on="0"/>
        <pt x="352" y="-12" on="0"/>
        <pt x="258" y="-12" on="0"/>
        <pt x="190" y="2" on="0"/>
        <pt x="141" y="21" on="0"/>
        <pt x="111" y="74" on="0"/>
        <pt x="94" y="114" on="0"/>
        <pt x="90" y="162" on="1"/>
        <pt x="85" y="222" on="0"/>
        <pt x="85" y="349" on="1"/>
        <pt x="85" y="700" on="1"/>
        <pt x="171" y="700" on="1"/>
        <pt x="171" y="193" on="1"/>
        <pt x="171" y="163" on="0"/>
        <pt x="173" y="134" on="0"/>
        <pt x="186" y="94" on="0"/>
        <pt x="214" y="76" on="0"/>
        <pt x="267" y="62" on="0"/>
        <pt x="345" y="62" on="0"/>
        <pt x="397" y="76" on="0"/>
        <pt x="425" y="94" on="0"/>
        <pt x="438" y="134" on="0"/>
        <pt x="440" y="163" on="0"/>
      </contour>
      <contour>
        <pt x="253" y="731" on="1"/>
        <pt x="230" y="765" on="1"/>
        <pt x="395" y="901" on="1"/>
        <pt x="441" y="834" on="1"/>
      </contour>
    </TTGlyph>
    <TTGlyph name="Ucircumflex" xMin="85" yMin="-12" xMax="526" yMax="891">
      <contour>
        <pt x="440" y="193" on="1"/>
        <pt x="440" y="700" on="1"/>
        <pt x="526" y="700" on="1"/>
        <pt x="526" y="349" on="1"/>
        <pt x="526" y="135" on="0"/>
        <pt x="508" y="94" on="1"/>
        <pt x="500" y="74" on="0"/>
        <pt x="469" y="21" on="0"/>
        <pt x="421" y="2" on="0"/>
        <pt x="352" y="-12" on="0"/>
        <pt x="258" y="-12" on="0"/>
        <pt x="190" y="2" on="0"/>
        <pt x="141" y="21" on="0"/>
        <pt x="111" y="74" on="0"/>
        <pt x="94" y="114" on="0"/>
        <pt x="90" y="162" on="1"/>
        <pt x="85" y="222" on="0"/>
        <pt x="85" y="349" on="1"/>
        <pt x="85" y="700" on="1"/>
        <pt x="171" y="700" on="1"/>
        <pt x="171" y="193" on="1"/>
        <pt x="171" y="163" on="0"/>
        <pt x="173" y="134" on="0"/>
        <pt x="186" y="94" on="0"/>
        <pt x="214" y="76" on="0"/>
        <pt x="267" y="62" on="0"/>
        <pt x="345" y="62" on="0"/>
        <pt x="397" y="76" on="0"/>
        <pt x="425" y="94" on="0"/>
        <pt x="438" y="134" on="0"/>
        <pt x="440" y="163" on="0"/>
      </contour>
      <contour>
        <pt x="439" y="775" on="1"/>
        <pt x="408" y="738" on="1"/>
        <pt x="305" y="805" on="1"/>
        <pt x="202" y="738" on="1"/>
        <pt x="172" y="775" on="1"/>
        <pt x="305" y="891" on="1"/>
      </contour>
    </TTGlyph>
    <TTGlyph name="Udieresis" xMin="85" yMin="-12" xMax="526" yMax="862">
      <contour>
        <pt x="440" y="193" on="1"/>
        <pt x="440" y="700" on="1"/>
        <pt x="526" y="700" on="1"/>
        <pt x="526" y="349" on="1"/>
        <pt x="526" y="135" on="0"/>
        <pt x="508" y="94" on="1"/>
        <pt x="500" y="74" on="0"/>
        <pt x="469" y="21" on="0"/>
        <pt x="421" y="2" on="0"/>
        <pt x="352" y="-12" on="0"/>
        <pt x="258" y="-12" on="0"/>
        <pt x="190" y="2" on="0"/>
        <pt x="141" y="21" on="0"/>
        <pt x="111" y="74" on="0"/>
        <pt x="94" y="114" on="0"/>
        <pt x="90" y="162" on="1"/>
        <pt x="85" y="222" on="0"/>
        <pt x="85" y="349" on="1"/>
        <pt x="85" y="700" on="1"/>
        <pt x="171" y="700" on="1"/>
        <pt x="171" y="193" on="1"/>
        <pt x="171" y="163" on="0"/>
        <pt x="173" y="134" on="0"/>
        <pt x="186" y="94" on="0"/>
        <pt x="214" y="76" on="0"/>
        <pt x="267" y="62" on="0"/>
        <pt x="345" y="62" on="0"/>
        <pt x="397" y="76" on="0"/>
        <pt x="425" y="94" on="0"/>
        <pt x="438" y="134" on="0"/>
        <pt x="440" y="163" on="0"/>
      </contour>
      <contour>
        <pt x="200" y="862" on="0"/>
        <pt x="230" y="862" on="0"/>
        <pt x="244" y="860" on="0"/>
        <pt x="252" y="856" on="1"/>
        <pt x="267" y="848" on="0"/>
        <pt x="267" y="793" on="0"/>
        <pt x="261" y="772" on="0"/>
        <pt x="244" y="763" on="0"/>
        <pt x="230" y="761" on="0"/>
        <pt x="200" y="761" on="0"/>
        <pt x="186" y="763" on="0"/>
        <pt x="178" y="768" on="1"/>
        <pt x="163" y="775" on="0"/>
        <pt x="163" y="830" on="0"/>
        <pt x="169" y="851" on="0"/>
        <pt x="186" y="860" on="0"/>
      </contour>
      <contour>
        <pt x="380" y="862" on="0"/>
        <pt x="410" y="862" on="0"/>
        <pt x="424" y="860" on="0"/>
        <pt x="432" y="856" on="1"/>
        <pt x="447" y="848" on="0"/>
        <pt x="447" y="793" on="0"/>
        <pt x="441" y="772" on="0"/>
        <pt x="424" y="763" on="0"/>
        <pt x="410" y="761" on="0"/>
        <pt x="380" y="761" on="0"/>
        <pt x="366" y="763" on="0"/>
        <pt x="358" y="768" on="1"/>
        <pt x="343" y="775" on="0"/>
        <pt x="343" y="830" on="0"/>
        <pt x="349" y="851" on="0"/>
        <pt x="366" y="860" on="0"/>
      </contour>
    </TTGlyph>
    <TTGlyph name="Ugrave" xMin="85" yMin="-12" xMax="526" yMax="901">
      <contour>
        <pt x="440" y="193" on="1"/>
        <pt x="440" y="700" on="1"/>
        <pt x="526" y="700" on="1"/>
        <pt x="526" y="349" on="1"/>
        <pt x="526" y="135" on="0"/>
        <pt x="508" y="94" on="1"/>
        <pt x="500" y="74" on="0"/>
        <pt x="469" y="21" on="0"/>
        <pt x="421" y="2" on="0"/>
        <pt x="352" y="-12" on="0"/>
        <pt x="258" y="-12" on="0"/>
        <pt x="190" y="2" on="0"/>
        <pt x="141" y="21" on="0"/>
        <pt x="111" y="74" on="0"/>
        <pt x="94" y="114" on="0"/>
        <pt x="90" y="162" on="1"/>
        <pt x="85" y="222" on="0"/>
        <pt x="85" y="349" on="1"/>
        <pt x="85" y="700" on="1"/>
        <pt x="171" y="700" on="1"/>
        <pt x="171" y="193" on="1"/>
        <pt x="171" y="163" on="0"/>
        <pt x="173" y="134" on="0"/>
        <pt x="186" y="94" on="0"/>
        <pt x="214" y="76" on="0"/>
        <pt x="267" y="62" on="0"/>
        <pt x="345" y="62" on="0"/>
        <pt x="397" y="76" on="0"/>
        <pt x="425" y="94" on="0"/>
        <pt x="438" y="134" on="0"/>
        <pt x="440" y="163" on="0"/>
      </contour>
      <contour>
        <pt x="411" y="765" on="1"/>
        <pt x="388" y="731" on="1"/>
        <pt x="200" y="834" on="1"/>
        <pt x="246" y="901" on="1"/>
      </contour>
    </TTGlyph>
    <TTGlyph name="V" xMin="35" yMin="0" xMax="497" yMax="700">
      <contour>
        <pt x="333" y="0" on="1"/>
        <pt x="199" y="0" on="1"/>
        <pt x="35" y="700" on="1"/>
        <pt x="120" y="700" on="1"/>
        <pt x="263" y="57" on="1"/>
        <pt x="269" y="57" on="1"/>
        <pt x="412" y="700" on="1"/>
        <pt x="497" y="700" on="1"/>
      </contour>
    </TTGlyph>
    <TTGlyph name="W" xMin="55" yMin="0" xMax="790" yMax="700">
      <contour>
        <pt x="672" y="0" on="1"/>
        <pt x="537" y="0" on="1"/>
        <pt x="425" y="572" on="1"/>
        <pt x="419" y="572" on="1"/>
        <pt x="308" y="0" on="1"/>
        <pt x="173" y="0" on="1"/>
        <pt x="55" y="700" on="1"/>
        <pt x="140" y="700" on="1"/>
        <pt x="241" y="57" on="1"/>
        <pt x="247" y="57" on="1"/>
        <pt x="375" y="700" on="1"/>
        <pt x="470" y="700" on="1"/>
        <pt x="598" y="57" on="1"/>
        <pt x="604" y="57" on="1"/>
        <pt x="705" y="700" on="1"/>
        <pt x="790" y="700" on="1"/>
      </contour>
    </TTGlyph>
    <TTGlyph name="X" xMin="30" yMin="0" xMax="485" yMax="700">
      <contour>
        <pt x="257" y="435" on="1"/>
        <pt x="393" y="700" on="1"/>
        <pt x="484" y="700" on="1"/>
        <pt x="305" y="350" on="1"/>
        <pt x="485" y="0" on="1"/>
        <pt x="393" y="0" on="1"/>
        <pt x="257" y="265" on="1"/>
        <pt x="122" y="0" on="1"/>
        <pt x="30" y="0" on="1"/>
        <pt x="210" y="350" on="1"/>
        <pt x="31" y="700" on="1"/>
        <pt x="122" y="700" on="1"/>
      </contour>
    </TTGlyph>
    <TTGlyph name="Y" xMin="25" yMin="0" xMax="453" yMax="700">
      <contour>
        <pt x="279" y="0" on="1"/>
        <pt x="199" y="0" on="1"/>
        <pt x="199" y="225" on="1"/>
        <pt x="25" y="700" on="1"/>
        <pt x="113" y="700" on="1"/>
        <pt x="236" y="319" on="1"/>
        <pt x="242" y="319" on="1"/>
        <pt x="365" y="700" on="1"/>
        <pt x="453" y="700" on="1"/>
        <pt x="279" y="225" on="1"/>
      </contour>
    </TTGlyph>
    <TTGlyph name="Yacute" xMin="25" yMin="0" xMax="453" yMax="901">
      <contour>
        <pt x="279" y="0" on="1"/>
        <pt x="199" y="0" on="1"/>
        <pt x="199" y="225" on="1"/>
        <pt x="25" y="700" on="1"/>
        <pt x="113" y="700" on="1"/>
        <pt x="236" y="319" on="1"/>
        <pt x="242" y="319" on="1"/>
        <pt x="365" y="700" on="1"/>
        <pt x="453" y="700" on="1"/>
        <pt x="279" y="225" on="1"/>
      </contour>
      <contour>
        <pt x="176" y="731" on="1"/>
        <pt x="153" y="765" on="1"/>
        <pt x="318" y="901" on="1"/>
        <pt x="364" y="834" on="1"/>
      </contour>
    </TTGlyph>
    <TTGlyph name="Ydieresis" xMin="25" yMin="0" xMax="453" yMax="862">
      <contour>
        <pt x="279" y="0" on="1"/>
        <pt x="199" y="0" on="1"/>
        <pt x="199" y="225" on="1"/>
        <pt x="25" y="700" on="1"/>
        <pt x="113" y="700" on="1"/>
        <pt x="236" y="319" on="1"/>
        <pt x="242" y="319" on="1"/>
        <pt x="365" y="700" on="1"/>
        <pt x="453" y="700" on="1"/>
        <pt x="279" y="225" on="1"/>
      </contour>
      <contour>
        <pt x="314" y="862" on="0"/>
        <pt x="344" y="862" on="0"/>
        <pt x="358" y="860" on="0"/>
        <pt x="366" y="856" on="1"/>
        <pt x="381" y="848" on="0"/>
        <pt x="381" y="793" on="0"/>
        <pt x="375" y="772" on="0"/>
        <pt x="358" y="763" on="0"/>
        <pt x="344" y="761" on="0"/>
        <pt x="314" y="761" on="0"/>
        <pt x="300" y="763" on="0"/>
        <pt x="292" y="768" on="1"/>
        <pt x="277" y="775" on="0"/>
        <pt x="277" y="830" on="0"/>
        <pt x="283" y="851" on="0"/>
        <pt x="300" y="860" on="0"/>
      </contour>
      <contour>
        <pt x="134" y="862" on="0"/>
        <pt x="164" y="862" on="0"/>
        <pt x="178" y="860" on="0"/>
        <pt x="186" y="856" on="1"/>
        <pt x="201" y="848" on="0"/>
        <pt x="201" y="793" on="0"/>
        <pt x="195" y="772" on="0"/>
        <pt x="178" y="763" on="0"/>
        <pt x="164" y="761" on="0"/>
        <pt x="134" y="761" on="0"/>
        <pt x="120" y="763" on="0"/>
        <pt x="112" y="768" on="1"/>
        <pt x="97" y="775" on="0"/>
        <pt x="97" y="830" on="0"/>
        <pt x="103" y="851" on="0"/>
        <pt x="120" y="860" on="0"/>
      </contour>
    </TTGlyph>
    <TTGlyph name="Z" xMin="40" yMin="0" xMax="447" yMax="700">
      <contour>
        <pt x="60" y="630" on="1"/>
        <pt x="60" y="700" on="1"/>
        <pt x="447" y="700" on="1"/>
        <pt x="447" y="641" on="1"/>
        <pt x="133" y="70" on="1"/>
        <pt x="442" y="70" on="1"/>
        <pt x="442" y="0" on="1"/>
        <pt x="40" y="0" on="1"/>
        <pt x="40" y="59" on="1"/>
        <pt x="355" y="630" on="1"/>
      </contour>
    </TTGlyph>
    <TTGlyph name="Zcaron" xMin="40" yMin="0" xMax="447" yMax="882">
      <contour>
        <pt x="60" y="630" on="1"/>
        <pt x="60" y="700" on="1"/>
        <pt x="447" y="700" on="1"/>
        <pt x="447" y="641" on="1"/>
        <pt x="133" y="70" on="1"/>
        <pt x="442" y="70" on="1"/>
        <pt x="442" y="0" on="1"/>
        <pt x="40" y="0" on="1"/>
        <pt x="40" y="59" on="1"/>
        <pt x="355" y="630" on="1"/>
      </contour>
      <contour>
        <pt x="110" y="845" on="1"/>
        <pt x="141" y="882" on="1"/>
        <pt x="244" y="815" on="1"/>
        <pt x="347" y="882" on="1"/>
        <pt x="377" y="845" on="1"/>
        <pt x="244" y="729" on="1"/>
      </contour>
    </TTGlyph>
    <TTGlyph name="a" xMin="70" yMin="-12" xMax="417" yMax="530">
      <contour>
        <pt x="417" y="0" on="1"/>
        <pt x="372" y="0" on="1"/>
        <pt x="359" y="49" on="1"/>
        <pt x="335" y="22" on="0"/>
        <pt x="275" y="-7" on="0"/>
        <pt x="235" y="-12" on="0"/>
        <pt x="162" y="-12" on="0"/>
        <pt x="106" y="14" on="0"/>
        <pt x="92" y="40" on="1"/>
        <pt x="70" y="82" on="0"/>
        <pt x="70" y="153" on="1"/>
        <pt x="70" y="243" on="0"/>
        <pt x="122" y="270" on="1"/>
        <pt x="143" y="280" on="0"/>
        <pt x="176" y="292" on="0"/>
        <pt x="243" y="298" on="0"/>
        <pt x="290" y="299" on="0"/>
        <pt x="335" y="300" on="1"/>
        <pt x="335" y="375" on="1"/>
        <pt x="335" y="427" on="0"/>
        <pt x="291" y="464" on="0"/>
        <pt x="175" y="464" on="0"/>
        <pt x="107" y="442" on="1"/>
        <pt x="91" y="492" on="1"/>
        <pt x="169" y="530" on="0"/>
        <pt x="256" y="530" on="1"/>
        <pt x="360" y="530" on="0"/>
        <pt x="390" y="488" on="1"/>
        <pt x="406" y="465" on="0"/>
        <pt x="417" y="415" on="0"/>
        <pt x="417" y="375" on="1"/>
      </contour>
      <contour>
        <pt x="335" y="140" on="1"/>
        <pt x="335" y="243" on="1"/>
        <pt x="233" y="243" on="0"/>
        <pt x="194" y="228" on="0"/>
        <pt x="179" y="220" on="1"/>
        <pt x="152" y="206" on="0"/>
        <pt x="152" y="165" on="1"/>
        <pt x="152" y="142" on="1"/>
        <pt x="152" y="93" on="0"/>
        <pt x="182" y="53" on="0"/>
        <pt x="295" y="53" on="0"/>
        <pt x="335" y="98" on="0"/>
      </contour>
    </TTGlyph>
    <TTGlyph name="aacute" xMin="70" yMin="-12" xMax="417" yMax="756">
      <contour>
        <pt x="417" y="0" on="1"/>
        <pt x="372" y="0" on="1"/>
        <pt x="359" y="49" on="1"/>
        <pt x="335" y="22" on="0"/>
        <pt x="275" y="-7" on="0"/>
        <pt x="235" y="-12" on="0"/>
        <pt x="162" y="-12" on="0"/>
        <pt x="106" y="14" on="0"/>
        <pt x="92" y="40" on="1"/>
        <pt x="70" y="82" on="0"/>
        <pt x="70" y="153" on="1"/>
        <pt x="70" y="243" on="0"/>
        <pt x="122" y="270" on="1"/>
        <pt x="143" y="280" on="0"/>
        <pt x="176" y="292" on="0"/>
        <pt x="243" y="298" on="0"/>
        <pt x="290" y="299" on="0"/>
        <pt x="335" y="300" on="1"/>
        <pt x="335" y="375" on="1"/>
        <pt x="335" y="427" on="0"/>
        <pt x="291" y="464" on="0"/>
        <pt x="175" y="464" on="0"/>
        <pt x="107" y="442" on="1"/>
        <pt x="91" y="492" on="1"/>
        <pt x="169" y="530" on="0"/>
        <pt x="256" y="530" on="1"/>
        <pt x="360" y="530" on="0"/>
        <pt x="390" y="488" on="1"/>
        <pt x="406" y="465" on="0"/>
        <pt x="417" y="415" on="0"/>
        <pt x="417" y="375" on="1"/>
      </contour>
      <contour>
        <pt x="335" y="140" on="1"/>
        <pt x="335" y="243" on="1"/>
        <pt x="233" y="243" on="0"/>
        <pt x="194" y="228" on="0"/>
        <pt x="179" y="220" on="1"/>
        <pt x="152" y="206" on="0"/>
        <pt x="152" y="165" on="1"/>
        <pt x="152" y="142" on="1"/>
        <pt x="152" y="93" on="0"/>
        <pt x="182" y="53" on="0"/>
        <pt x="295" y="53" on="0"/>
        <pt x="335" y="98" on="0"/>
      </contour>
      <contour>
        <pt x="196" y="586" on="1"/>
        <pt x="173" y="620" on="1"/>
        <pt x="338" y="756" on="1"/>
        <pt x="384" y="689" on="1"/>
      </contour>
    </TTGlyph>
    <TTGlyph name="acircumflex" xMin="70" yMin="-12" xMax="417" yMax="756">
      <contour>
        <pt x="417" y="0" on="1"/>
        <pt x="372" y="0" on="1"/>
        <pt x="359" y="49" on="1"/>
        <pt x="335" y="22" on="0"/>
        <pt x="275" y="-7" on="0"/>
        <pt x="235" y="-12" on="0"/>
        <pt x="162" y="-12" on="0"/>
        <pt x="106" y="14" on="0"/>
        <pt x="92" y="40" on="1"/>
        <pt x="70" y="82" on="0"/>
        <pt x="70" y="153" on="1"/>
        <pt x="70" y="243" on="0"/>
        <pt x="122" y="270" on="1"/>
        <pt x="143" y="280" on="0"/>
        <pt x="176" y="292" on="0"/>
        <pt x="243" y="298" on="0"/>
        <pt x="290" y="299" on="0"/>
        <pt x="335" y="300" on="1"/>
        <pt x="335" y="375" on="1"/>
        <pt x="335" y="427" on="0"/>
        <pt x="291" y="464" on="0"/>
        <pt x="175" y="464" on="0"/>
        <pt x="107" y="442" on="1"/>
        <pt x="91" y="492" on="1"/>
        <pt x="169" y="530" on="0"/>
        <pt x="256" y="530" on="1"/>
        <pt x="360" y="530" on="0"/>
        <pt x="390" y="488" on="1"/>
        <pt x="406" y="465" on="0"/>
        <pt x="417" y="415" on="0"/>
        <pt x="417" y="375" on="1"/>
      </contour>
      <contour>
        <pt x="335" y="140" on="1"/>
        <pt x="335" y="243" on="1"/>
        <pt x="233" y="243" on="0"/>
        <pt x="194" y="228" on="0"/>
        <pt x="179" y="220" on="1"/>
        <pt x="152" y="206" on="0"/>
        <pt x="152" y="165" on="1"/>
        <pt x="152" y="142" on="1"/>
        <pt x="152" y="93" on="0"/>
        <pt x="182" y="53" on="0"/>
        <pt x="295" y="53" on="0"/>
        <pt x="335" y="98" on="0"/>
      </contour>
      <contour>
        <pt x="392" y="640" on="1"/>
        <pt x="361" y="603" on="1"/>
        <pt x="258" y="670" on="1"/>
        <pt x="155" y="603" on="1"/>
        <pt x="125" y="640" on="1"/>
        <pt x="258" y="756" on="1"/>
      </contour>
    </TTGlyph>
    <TTGlyph name="acute" xMin="124" yMin="586" xMax="335" yMax="756">
      <contour>
        <pt x="147" y="586" on="1"/>
        <pt x="124" y="620" on="1"/>
        <pt x="289" y="756" on="1"/>
        <pt x="335" y="689" on="1"/>
      </contour>
    </TTGlyph>
    <TTGlyph name="acute.case" xMin="124" yMin="731" xMax="335" yMax="901">
      <contour>
        <pt x="147" y="731" on="1"/>
        <pt x="124" y="765" on="1"/>
        <pt x="289" y="901" on="1"/>
        <pt x="335" y="834" on="1"/>
      </contour>
    </TTGlyph>
    <TTGlyph name="adieresis" xMin="70" yMin="-12" xMax="417" yMax="717">
      <contour>
        <pt x="417" y="0" on="1"/>
        <pt x="372" y="0" on="1"/>
        <pt x="359" y="49" on="1"/>
        <pt x="335" y="22" on="0"/>
        <pt x="275" y="-7" on="0"/>
        <pt x="235" y="-12" on="0"/>
        <pt x="162" y="-12" on="0"/>
        <pt x="106" y="14" on="0"/>
        <pt x="92" y="40" on="1"/>
        <pt x="70" y="82" on="0"/>
        <pt x="70" y="153" on="1"/>
        <pt x="70" y="243" on="0"/>
        <pt x="122" y="270" on="1"/>
        <pt x="143" y="280" on="0"/>
        <pt x="176" y="292" on="0"/>
        <pt x="243" y="298" on="0"/>
        <pt x="290" y="299" on="0"/>
        <pt x="335" y="300" on="1"/>
        <pt x="335" y="375" on="1"/>
        <pt x="335" y="427" on="0"/>
        <pt x="291" y="464" on="0"/>
        <pt x="175" y="464" on="0"/>
        <pt x="107" y="442" on="1"/>
        <pt x="91" y="492" on="1"/>
        <pt x="169" y="530" on="0"/>
        <pt x="256" y="530" on="1"/>
        <pt x="360" y="530" on="0"/>
        <pt x="390" y="488" on="1"/>
        <pt x="406" y="465" on="0"/>
        <pt x="417" y="415" on="0"/>
        <pt x="417" y="375" on="1"/>
      </contour>
      <contour>
        <pt x="335" y="140" on="1"/>
        <pt x="335" y="243" on="1"/>
        <pt x="233" y="243" on="0"/>
        <pt x="194" y="228" on="0"/>
        <pt x="179" y="220" on="1"/>
        <pt x="152" y="206" on="0"/>
        <pt x="152" y="165" on="1"/>
        <pt x="152" y="142" on="1"/>
        <pt x="152" y="93" on="0"/>
        <pt x="182" y="53" on="0"/>
        <pt x="295" y="53" on="0"/>
        <pt x="335" y="98" on="0"/>
      </contour>
      <contour>
        <pt x="153" y="717" on="0"/>
        <pt x="183" y="717" on="0"/>
        <pt x="197" y="715" on="0"/>
        <pt x="206" y="710" on="1"/>
        <pt x="220" y="703" on="0"/>
        <pt x="220" y="648" on="0"/>
        <pt x="214" y="627" on="0"/>
        <pt x="197" y="618" on="0"/>
        <pt x="183" y="616" on="0"/>
        <pt x="153" y="616" on="0"/>
        <pt x="139" y="618" on="0"/>
        <pt x="130" y="622" on="1"/>
        <pt x="116" y="630" on="0"/>
        <pt x="116" y="685" on="0"/>
        <pt x="122" y="706" on="0"/>
        <pt x="139" y="715" on="0"/>
      </contour>
      <contour>
        <pt x="333" y="717" on="0"/>
        <pt x="363" y="717" on="0"/>
        <pt x="377" y="715" on="0"/>
        <pt x="386" y="710" on="1"/>
        <pt x="400" y="703" on="0"/>
        <pt x="400" y="648" on="0"/>
        <pt x="394" y="627" on="0"/>
        <pt x="377" y="618" on="0"/>
        <pt x="363" y="616" on="0"/>
        <pt x="333" y="616" on="0"/>
        <pt x="319" y="618" on="0"/>
        <pt x="310" y="622" on="1"/>
        <pt x="296" y="630" on="0"/>
        <pt x="296" y="685" on="0"/>
        <pt x="302" y="706" on="0"/>
        <pt x="319" y="715" on="0"/>
      </contour>
    </TTGlyph>
    <TTGlyph name="ae" xMin="70" yMin="-12" xMax="682" yMax="531">
      <contour>
        <pt x="654" y="488" on="1"/>
        <pt x="671" y="465" on="0"/>
        <pt x="682" y="418" on="0"/>
        <pt x="682" y="345" on="0"/>
        <pt x="668" y="293" on="0"/>
        <pt x="632" y="261" on="0"/>
        <pt x="595" y="242" on="0"/>
        <pt x="560" y="238" on="1"/>
        <pt x="508" y="231" on="0"/>
        <pt x="417" y="231" on="1"/>
        <pt x="417" y="137" on="1"/>
        <pt x="417" y="88" on="0"/>
        <pt x="463" y="54" on="0"/>
        <pt x="506" y="54" on="1"/>
        <pt x="589" y="54" on="0"/>
        <pt x="655" y="82" on="1"/>
        <pt x="671" y="32" on="1"/>
        <pt x="596" y="-12" on="0"/>
        <pt x="505" y="-12" on="1"/>
        <pt x="396" y="-12" on="0"/>
        <pt x="362" y="53" on="1"/>
        <pt x="316" y="-12" on="0"/>
        <pt x="212" y="-12" on="1"/>
        <pt x="127" y="-12" on="0"/>
        <pt x="70" y="70" on="0"/>
        <pt x="70" y="147" on="1"/>
        <pt x="70" y="221" on="0"/>
        <pt x="114" y="256" on="1"/>
        <pt x="148" y="282" on="0"/>
        <pt x="242" y="286" on="1"/>
        <pt x="275" y="288" on="0"/>
        <pt x="335" y="288" on="1"/>
        <pt x="335" y="376" on="1"/>
        <pt x="335" y="428" on="0"/>
        <pt x="291" y="465" on="0"/>
        <pt x="175" y="465" on="0"/>
        <pt x="107" y="443" on="1"/>
        <pt x="91" y="493" on="1"/>
        <pt x="169" y="531" on="0"/>
        <pt x="347" y="531" on="0"/>
        <pt x="384" y="494" on="1"/>
        <pt x="424" y="531" on="0"/>
        <pt x="623" y="531" on="0"/>
      </contour>
      <contour>
        <pt x="417" y="385" on="1"/>
        <pt x="417" y="288" on="1"/>
        <pt x="561" y="288" on="0"/>
        <pt x="587" y="318" on="1"/>
        <pt x="600" y="332" on="0"/>
        <pt x="600" y="356" on="1"/>
        <pt x="600" y="376" on="1"/>
        <pt x="600" y="425" on="0"/>
        <pt x="570" y="465" on="0"/>
        <pt x="459" y="465" on="0"/>
        <pt x="417" y="423" on="0"/>
      </contour>
      <contour>
        <pt x="335" y="140" on="1"/>
        <pt x="335" y="231" on="1"/>
        <pt x="232" y="231" on="0"/>
        <pt x="194" y="218" on="0"/>
        <pt x="179" y="210" on="1"/>
        <pt x="152" y="197" on="0"/>
        <pt x="152" y="162" on="1"/>
        <pt x="152" y="142" on="1"/>
        <pt x="152" y="93" on="0"/>
        <pt x="182" y="53" on="0"/>
        <pt x="295" y="53" on="0"/>
        <pt x="335" y="98" on="0"/>
      </contour>
    </TTGlyph>
    <TTGlyph name="agrave" xMin="70" yMin="-12" xMax="417" yMax="756">
      <contour>
        <pt x="417" y="0" on="1"/>
        <pt x="372" y="0" on="1"/>
        <pt x="359" y="49" on="1"/>
        <pt x="335" y="22" on="0"/>
        <pt x="275" y="-7" on="0"/>
        <pt x="235" y="-12" on="0"/>
        <pt x="162" y="-12" on="0"/>
        <pt x="106" y="14" on="0"/>
        <pt x="92" y="40" on="1"/>
        <pt x="70" y="82" on="0"/>
        <pt x="70" y="153" on="1"/>
        <pt x="70" y="243" on="0"/>
        <pt x="122" y="270" on="1"/>
        <pt x="143" y="280" on="0"/>
        <pt x="176" y="292" on="0"/>
        <pt x="243" y="298" on="0"/>
        <pt x="290" y="299" on="0"/>
        <pt x="335" y="300" on="1"/>
        <pt x="335" y="375" on="1"/>
        <pt x="335" y="427" on="0"/>
        <pt x="291" y="464" on="0"/>
        <pt x="175" y="464" on="0"/>
        <pt x="107" y="442" on="1"/>
        <pt x="91" y="492" on="1"/>
        <pt x="169" y="530" on="0"/>
        <pt x="256" y="530" on="1"/>
        <pt x="360" y="530" on="0"/>
        <pt x="390" y="488" on="1"/>
        <pt x="406" y="465" on="0"/>
        <pt x="417" y="415" on="0"/>
        <pt x="417" y="375" on="1"/>
      </contour>
      <contour>
        <pt x="335" y="140" on="1"/>
        <pt x="335" y="243" on="1"/>
        <pt x="233" y="243" on="0"/>
        <pt x="194" y="228" on="0"/>
        <pt x="179" y="220" on="1"/>
        <pt x="152" y="206" on="0"/>
        <pt x="152" y="165" on="1"/>
        <pt x="152" y="142" on="1"/>
        <pt x="152" y="93" on="0"/>
        <pt x="182" y="53" on="0"/>
        <pt x="295" y="53" on="0"/>
        <pt x="335" y="98" on="0"/>
      </contour>
      <contour>
        <pt x="354" y="620" on="1"/>
        <pt x="331" y="586" on="1"/>
        <pt x="143" y="689" on="1"/>
        <pt x="189" y="756" on="1"/>
      </contour>
    </TTGlyph>
    <TTGlyph name="ampersand" xMin="40" yMin="-13" xMax="563" yMax="691">
      <contour>
        <pt x="216" y="-12" on="1"/>
        <pt x="83" y="-12" on="0"/>
        <pt x="54" y="74" on="1"/>
        <pt x="40" y="114" on="0"/>
        <pt x="40" y="173" on="1"/>
        <pt x="40" y="292" on="0"/>
        <pt x="108" y="331" on="1"/>
        <pt x="165" y="363" on="1"/>
        <pt x="143" y="391" on="1"/>
        <pt x="114" y="427" on="0"/>
        <pt x="92" y="491" on="0"/>
        <pt x="92" y="571" on="0"/>
        <pt x="104" y="619" on="0"/>
        <pt x="138" y="666" on="0"/>
        <pt x="213" y="691" on="0"/>
        <pt x="325" y="691" on="0"/>
        <pt x="397" y="666" on="0"/>
        <pt x="431" y="619" on="0"/>
        <pt x="442" y="572" on="0"/>
        <pt x="442" y="473" on="0"/>
        <pt x="417" y="422" on="0"/>
        <pt x="364" y="392" on="1"/>
        <pt x="284" y="346" on="1"/>
        <pt x="563" y="0" on="1"/>
        <pt x="466" y="-13" on="1"/>
        <pt x="406" y="62" on="1"/>
        <pt x="367" y="-12" on="0"/>
      </contour>
      <contour>
        <pt x="222" y="59" on="1"/>
        <pt x="343" y="59" on="0"/>
        <pt x="358" y="122" on="1"/>
        <pt x="212" y="304" on="1"/>
        <pt x="178" y="285" on="1"/>
        <pt x="145" y="267" on="0"/>
        <pt x="123" y="235" on="0"/>
        <pt x="123" y="214" on="1"/>
        <pt x="123" y="123" on="1"/>
        <pt x="123" y="107" on="0"/>
        <pt x="135" y="91" on="1"/>
        <pt x="159" y="59" on="0"/>
      </contour>
      <contour>
        <pt x="175" y="565" on="1"/>
        <pt x="175" y="511" on="1"/>
        <pt x="175" y="483" on="0"/>
        <pt x="204" y="446" on="1"/>
        <pt x="237" y="405" on="1"/>
        <pt x="320" y="453" on="1"/>
        <pt x="344" y="467" on="0"/>
        <pt x="359" y="490" on="0"/>
        <pt x="359" y="510" on="1"/>
        <pt x="359" y="565" on="1"/>
        <pt x="359" y="579" on="0"/>
        <pt x="336" y="607" on="0"/>
        <pt x="296" y="620" on="0"/>
        <pt x="238" y="620" on="0"/>
        <pt x="198" y="607" on="0"/>
        <pt x="190" y="597" on="1"/>
        <pt x="175" y="580" on="0"/>
      </contour>
    </TTGlyph>
    <TTGlyph name="apple" xMin="120" yMin="-114" xMax="843" yMax="608">
      <contour>
        <pt x="609" y="-89" on="1"/>
        <pt x="586" y="-88" on="1"/>
        <pt x="572" y="-88" on="0"/>
        <pt x="537" y="-112" on="0"/>
        <pt x="528" y="-112" on="1"/>
        <pt x="482" y="-102" on="1"/>
        <pt x="474" y="-102" on="0"/>
        <pt x="443" y="-114" on="0"/>
        <pt x="426" y="-114" on="0"/>
        <pt x="394" y="-89" on="0"/>
        <pt x="381" y="-89" on="1"/>
        <pt x="357" y="-91" on="1"/>
        <pt x="342" y="-91" on="0"/>
        <pt x="324" y="-74" on="1"/>
        <pt x="306" y="-55" on="1"/>
        <pt x="294" y="-49" on="0"/>
        <pt x="268" y="-47" on="0"/>
        <pt x="250" y="-36" on="0"/>
        <pt x="236" y="-1" on="0"/>
        <pt x="225" y="8" on="0"/>
        <pt x="197" y="19" on="0"/>
        <pt x="191" y="28" on="1"/>
        <pt x="186" y="37" on="0"/>
        <pt x="182" y="66" on="0"/>
        <pt x="174" y="79" on="0"/>
        <pt x="164" y="86" on="1"/>
        <pt x="142" y="104" on="0"/>
        <pt x="142" y="124" on="1"/>
        <pt x="145" y="149" on="1"/>
        <pt x="145" y="158" on="0"/>
        <pt x="120" y="193" on="0"/>
        <pt x="120" y="211" on="0"/>
        <pt x="132" y="240" on="0"/>
        <pt x="132" y="257" on="0"/>
        <pt x="120" y="283" on="0"/>
        <pt x="120" y="301" on="0"/>
        <pt x="145" y="342" on="0"/>
        <pt x="145" y="351" on="1"/>
        <pt x="144" y="376" on="1"/>
        <pt x="144" y="391" on="0"/>
        <pt x="177" y="420" on="0"/>
        <pt x="182" y="430" on="0"/>
        <pt x="186" y="462" on="0"/>
        <pt x="194" y="474" on="0"/>
        <pt x="225" y="486" on="0"/>
        <pt x="235" y="496" on="0"/>
        <pt x="249" y="527" on="0"/>
        <pt x="262" y="538" on="0"/>
        <pt x="300" y="546" on="0"/>
        <pt x="311" y="552" on="0"/>
        <pt x="341" y="586" on="0"/>
        <pt x="355" y="587" on="1"/>
        <pt x="381" y="585" on="1"/>
        <pt x="394" y="585" on="0"/>
        <pt x="425" y="608" on="0"/>
        <pt x="436" y="608" on="1"/>
        <pt x="480" y="596" on="1"/>
        <pt x="525" y="608" on="1"/>
        <pt x="538" y="608" on="0"/>
        <pt x="570" y="583" on="0"/>
        <pt x="582" y="583" on="1"/>
        <pt x="610" y="586" on="1"/>
        <pt x="626" y="586" on="0"/>
        <pt x="652" y="553" on="0"/>
        <pt x="665" y="546" on="0"/>
        <pt x="695" y="540" on="0"/>
        <pt x="710" y="530" on="0"/>
        <pt x="720" y="502" on="0"/>
        <pt x="731" y="492" on="0"/>
        <pt x="771" y="471" on="0"/>
        <pt x="780" y="455" on="0"/>
        <pt x="781" y="423" on="0"/>
        <pt x="786" y="414" on="0"/>
        <pt x="820" y="385" on="0"/>
        <pt x="820" y="369" on="1"/>
        <pt x="819" y="344" on="1"/>
        <pt x="819" y="331" on="0"/>
        <pt x="843" y="294" on="0"/>
        <pt x="843" y="276" on="0"/>
        <pt x="832" y="250" on="0"/>
        <pt x="832" y="236" on="0"/>
        <pt x="843" y="207" on="0"/>
        <pt x="842" y="191" on="0"/>
        <pt x="818" y="166" on="0"/>
        <pt x="818" y="152" on="1"/>
        <pt x="820" y="120" on="1"/>
        <pt x="820" y="104" on="0"/>
        <pt x="788" y="78" on="0"/>
        <pt x="783" y="68" on="0"/>
        <pt x="774" y="30" on="0"/>
        <pt x="763" y="17" on="0"/>
        <pt x="738" y="6" on="0"/>
        <pt x="728" y="-4" on="0"/>
        <pt x="710" y="-37" on="0"/>
        <pt x="696" y="-47" on="0"/>
        <pt x="661" y="-56" on="0"/>
        <pt x="651" y="-62" on="0"/>
        <pt x="624" y="-89" on="0"/>
      </contour>
      <contour>
        <pt x="482" y="-6" on="1"/>
        <pt x="515" y="-13" on="1"/>
        <pt x="521" y="-13" on="0"/>
        <pt x="532" y="-6" on="1"/>
        <pt x="547" y="4" on="0"/>
        <pt x="559" y="4" on="1"/>
        <pt x="574" y="3" on="1"/>
        <pt x="586" y="3" on="0"/>
        <pt x="604" y="23" on="0"/>
        <pt x="611" y="27" on="0"/>
        <pt x="637" y="34" on="0"/>
        <pt x="648" y="42" on="0"/>
        <pt x="661" y="65" on="0"/>
        <pt x="668" y="72" on="0"/>
        <pt x="686" y="80" on="0"/>
        <pt x="694" y="89" on="0"/>
        <pt x="700" y="117" on="0"/>
        <pt x="705" y="125" on="0"/>
        <pt x="727" y="143" on="0"/>
        <pt x="727" y="157" on="1"/>
        <pt x="726" y="177" on="1"/>
        <pt x="726" y="188" on="0"/>
        <pt x="743" y="207" on="0"/>
        <pt x="744" y="213" on="1"/>
        <pt x="736" y="245" on="1"/>
        <pt x="744" y="273" on="1"/>
        <pt x="744" y="281" on="0"/>
        <pt x="726" y="309" on="0"/>
        <pt x="726" y="318" on="1"/>
        <pt x="727" y="335" on="1"/>
        <pt x="727" y="347" on="0"/>
        <pt x="703" y="367" on="0"/>
        <pt x="699" y="375" on="0"/>
        <pt x="698" y="398" on="0"/>
        <pt x="692" y="409" on="0"/>
        <pt x="663" y="424" on="0"/>
        <pt x="655" y="432" on="0"/>
        <pt x="647" y="452" on="0"/>
        <pt x="637" y="460" on="0"/>
        <pt x="615" y="464" on="0"/>
        <pt x="605" y="469" on="0"/>
        <pt x="587" y="493" on="0"/>
        <pt x="575" y="493" on="1"/>
        <pt x="555" y="491" on="1"/>
        <pt x="546" y="491" on="0"/>
        <pt x="524" y="509" on="0"/>
        <pt x="514" y="509" on="1"/>
        <pt x="481" y="500" on="1"/>
        <pt x="449" y="509" on="1"/>
        <pt x="441" y="509" on="0"/>
        <pt x="417" y="492" on="0"/>
        <pt x="407" y="492" on="1"/>
        <pt x="390" y="493" on="1"/>
        <pt x="379" y="493" on="0"/>
        <pt x="358" y="468" on="0"/>
        <pt x="349" y="463" on="0"/>
        <pt x="323" y="458" on="0"/>
        <pt x="313" y="450" on="0"/>
        <pt x="303" y="428" on="0"/>
        <pt x="295" y="420" on="0"/>
        <pt x="274" y="412" on="0"/>
        <pt x="270" y="407" on="1"/>
        <pt x="268" y="403" on="0"/>
        <pt x="264" y="380" on="0"/>
        <pt x="260" y="372" on="0"/>
        <pt x="236" y="351" on="0"/>
        <pt x="236" y="340" on="1"/>
        <pt x="237" y="324" on="1"/>
        <pt x="237" y="316" on="0"/>
        <pt x="220" y="286" on="0"/>
        <pt x="220" y="278" on="1"/>
        <pt x="228" y="248" on="1"/>
        <pt x="220" y="215" on="1"/>
        <pt x="220" y="207" on="0"/>
        <pt x="237" y="182" on="0"/>
        <pt x="237" y="174" on="1"/>
        <pt x="235" y="158" on="1"/>
        <pt x="235" y="147" on="0"/>
        <pt x="260" y="124" on="0"/>
        <pt x="264" y="116" on="0"/>
        <pt x="267" y="95" on="0"/>
        <pt x="275" y="82" on="0"/>
        <pt x="295" y="74" on="0"/>
        <pt x="303" y="67" on="0"/>
        <pt x="314" y="41" on="0"/>
        <pt x="326" y="33" on="0"/>
        <pt x="345" y="33" on="0"/>
        <pt x="357" y="27" on="0"/>
        <pt x="380" y="2" on="0"/>
        <pt x="391" y="2" on="1"/>
        <pt x="406" y="3" on="1"/>
        <pt x="416" y="3" on="0"/>
        <pt x="440" y="-14" on="0"/>
        <pt x="446" y="-15" on="1"/>
      </contour>
      <contour>
        <pt x="412" y="417" on="0"/>
        <pt x="552" y="417" on="0"/>
        <pt x="652" y="318" on="0"/>
        <pt x="652" y="176" on="0"/>
        <pt x="552" y="77" on="0"/>
        <pt x="412" y="77" on="0"/>
        <pt x="312" y="176" on="0"/>
        <pt x="312" y="318" on="0"/>
      </contour>
      <contour>
        <pt x="525" y="292" on="1"/>
        <pt x="577" y="292" on="1"/>
        <pt x="577" y="360" on="1"/>
        <pt x="386" y="360" on="1"/>
        <pt x="386" y="292" on="1"/>
        <pt x="440" y="292" on="1"/>
        <pt x="440" y="117" on="1"/>
        <pt x="525" y="117" on="1"/>
      </contour>
    </TTGlyph>
    <TTGlyph name="approxequal" xMin="60" yMin="150" xMax="440" yMax="480">
      <contour>
        <pt x="60" y="452" on="1"/>
        <pt x="95" y="421" on="0"/>
        <pt x="178" y="421" on="0"/>
        <pt x="309" y="480" on="0"/>
        <pt x="399" y="480" on="0"/>
        <pt x="440" y="452" on="1"/>
        <pt x="440" y="382" on="1"/>
        <pt x="400" y="410" on="0"/>
        <pt x="312" y="410" on="0"/>
        <pt x="186" y="350" on="0"/>
        <pt x="96" y="350" on="0"/>
        <pt x="60" y="382" on="1"/>
      </contour>
      <contour>
        <pt x="60" y="252" on="1"/>
        <pt x="95" y="221" on="0"/>
        <pt x="182" y="221" on="0"/>
        <pt x="307" y="283" on="0"/>
        <pt x="397" y="283" on="0"/>
        <pt x="440" y="252" on="1"/>
        <pt x="440" y="182" on="1"/>
        <pt x="401" y="212" on="0"/>
        <pt x="312" y="212" on="0"/>
        <pt x="187" y="150" on="0"/>
        <pt x="93" y="150" on="0"/>
        <pt x="60" y="182" on="1"/>
      </contour>
    </TTGlyph>
    <TTGlyph name="aring" xMin="70" yMin="-12" xMax="417" yMax="761">
      <contour>
        <pt x="417" y="0" on="1"/>
        <pt x="372" y="0" on="1"/>
        <pt x="359" y="49" on="1"/>
        <pt x="335" y="22" on="0"/>
        <pt x="275" y="-7" on="0"/>
        <pt x="235" y="-12" on="0"/>
        <pt x="162" y="-12" on="0"/>
        <pt x="106" y="14" on="0"/>
        <pt x="92" y="40" on="1"/>
        <pt x="70" y="82" on="0"/>
        <pt x="70" y="153" on="1"/>
        <pt x="70" y="243" on="0"/>
        <pt x="122" y="270" on="1"/>
        <pt x="143" y="280" on="0"/>
        <pt x="176" y="292" on="0"/>
        <pt x="243" y="298" on="0"/>
        <pt x="290" y="299" on="0"/>
        <pt x="335" y="300" on="1"/>
        <pt x="335" y="375" on="1"/>
        <pt x="335" y="427" on="0"/>
        <pt x="291" y="464" on="0"/>
        <pt x="175" y="464" on="0"/>
        <pt x="107" y="442" on="1"/>
        <pt x="91" y="492" on="1"/>
        <pt x="169" y="530" on="0"/>
        <pt x="256" y="530" on="1"/>
        <pt x="360" y="530" on="0"/>
        <pt x="390" y="488" on="1"/>
        <pt x="406" y="465" on="0"/>
        <pt x="417" y="415" on="0"/>
        <pt x="417" y="375" on="1"/>
      </contour>
      <contour>
        <pt x="335" y="140" on="1"/>
        <pt x="335" y="243" on="1"/>
        <pt x="233" y="243" on="0"/>
        <pt x="194" y="228" on="0"/>
        <pt x="179" y="220" on="1"/>
        <pt x="152" y="206" on="0"/>
        <pt x="152" y="165" on="1"/>
        <pt x="152" y="142" on="1"/>
        <pt x="152" y="93" on="0"/>
        <pt x="182" y="53" on="0"/>
        <pt x="295" y="53" on="0"/>
        <pt x="335" y="98" on="0"/>
      </contour>
      <contour>
        <pt x="284" y="712" on="0"/>
        <pt x="252" y="712" on="0"/>
        <pt x="235" y="699" on="0"/>
        <pt x="235" y="655" on="0"/>
        <pt x="251" y="642" on="0"/>
        <pt x="279" y="642" on="0"/>
        <pt x="285" y="644" on="1"/>
        <pt x="301" y="648" on="0"/>
        <pt x="301" y="699" on="0"/>
      </contour>
      <contour>
        <pt x="223" y="761" on="0"/>
        <pt x="313" y="761" on="0"/>
        <pt x="355" y="729" on="0"/>
        <pt x="355" y="625" on="0"/>
        <pt x="313" y="593" on="0"/>
        <pt x="223" y="593" on="0"/>
        <pt x="181" y="625" on="0"/>
        <pt x="181" y="729" on="0"/>
      </contour>
    </TTGlyph>
    <TTGlyph name="asciicircum" xMin="80" yMin="352" xMax="420" yMax="646">
      <contour>
        <pt x="215" y="646" on="1"/>
        <pt x="285" y="646" on="1"/>
        <pt x="420" y="352" on="1"/>
        <pt x="350" y="352" on="1"/>
        <pt x="250" y="569" on="1"/>
        <pt x="150" y="352" on="1"/>
        <pt x="80" y="352" on="1"/>
      </contour>
    </TTGlyph>
    <TTGlyph name="asciitilde" xMin="60" yMin="250" xMax="440" yMax="383">
      <contour>
        <pt x="60" y="352" on="1"/>
        <pt x="95" y="321" on="0"/>
        <pt x="182" y="321" on="0"/>
        <pt x="307" y="383" on="0"/>
        <pt x="397" y="383" on="0"/>
        <pt x="440" y="352" on="1"/>
        <pt x="440" y="282" on="1"/>
        <pt x="401" y="312" on="0"/>
        <pt x="312" y="312" on="0"/>
        <pt x="187" y="250" on="0"/>
        <pt x="93" y="250" on="0"/>
        <pt x="60" y="282" on="1"/>
      </contour>
    </TTGlyph>
    <TTGlyph name="asterisk" xMin="40" yMin="435" xMax="367" yMax="744">
      <contour>
        <pt x="235" y="744" on="1"/>
        <pt x="235" y="626" on="1"/>
        <pt x="346" y="663" on="1"/>
        <pt x="367" y="605" on="1"/>
        <pt x="255" y="567" on="1"/>
        <pt x="324" y="473" on="1"/>
        <pt x="274" y="435" on="1"/>
        <pt x="203" y="529" on="1"/>
        <pt x="183" y="498" on="0"/>
        <pt x="144" y="445" on="0"/>
        <pt x="137" y="435" on="1"/>
        <pt x="84" y="470" on="1"/>
        <pt x="151" y="567" on="1"/>
        <pt x="40" y="604" on="1"/>
        <pt x="61" y="663" on="1"/>
        <pt x="173" y="626" on="1"/>
        <pt x="173" y="744" on="1"/>
      </contour>
    </TTGlyph>
    <TTGlyph name="at" xMin="70" yMin="-116" xMax="648" yMax="620">
      <contour>
        <pt x="600" y="84" on="0"/>
        <pt x="476" y="60" on="0"/>
        <pt x="377" y="60" on="0"/>
        <pt x="321" y="86" on="0"/>
        <pt x="308" y="112" on="1"/>
        <pt x="285" y="154" on="0"/>
        <pt x="285" y="225" on="1"/>
        <pt x="285" y="315" on="0"/>
        <pt x="338" y="342" on="1"/>
        <pt x="358" y="352" on="0"/>
        <pt x="391" y="364" on="0"/>
        <pt x="458" y="370" on="0"/>
        <pt x="505" y="371" on="0"/>
        <pt x="550" y="372" on="1"/>
        <pt x="550" y="461" on="1"/>
        <pt x="550" y="506" on="0"/>
        <pt x="518" y="528" on="1"/>
        <pt x="495" y="545" on="0"/>
        <pt x="424" y="548" on="1"/>
        <pt x="399" y="549" on="0"/>
        <pt x="326" y="549" on="0"/>
        <pt x="291" y="548" on="0"/>
        <pt x="248" y="542" on="0"/>
        <pt x="223" y="530" on="0"/>
        <pt x="194" y="511" on="0"/>
        <pt x="179" y="481" on="0"/>
        <pt x="172" y="460" on="1"/>
        <pt x="159" y="422" on="0"/>
        <pt x="159" y="347" on="1"/>
        <pt x="159" y="157" on="1"/>
        <pt x="159" y="82" on="0"/>
        <pt x="179" y="23" on="0"/>
        <pt x="194" y="-7" on="0"/>
        <pt x="223" y="-26" on="0"/>
        <pt x="248" y="-38" on="0"/>
        <pt x="270" y="-41" on="1"/>
        <pt x="298" y="-45" on="0"/>
        <pt x="354" y="-45" on="1"/>
        <pt x="475" y="-45" on="0"/>
        <pt x="628" y="6" on="1"/>
        <pt x="648" y="-50" on="1"/>
        <pt x="494" y="-116" on="0"/>
        <pt x="354" y="-116" on="1"/>
        <pt x="222" y="-116" on="0"/>
        <pt x="174" y="-82" on="1"/>
        <pt x="120" y="-43" on="0"/>
        <pt x="98" y="26" on="1"/>
        <pt x="70" y="112" on="0"/>
        <pt x="70" y="252" on="1"/>
        <pt x="70" y="467" on="0"/>
        <pt x="132" y="544" on="1"/>
        <pt x="153" y="571" on="0"/>
        <pt x="194" y="600" on="0"/>
        <pt x="227" y="608" on="1"/>
        <pt x="276" y="620" on="0"/>
        <pt x="407" y="620" on="0"/>
        <pt x="484" y="613" on="0"/>
        <pt x="559" y="592" on="0"/>
        <pt x="582" y="574" on="1"/>
        <pt x="632" y="534" on="0"/>
        <pt x="632" y="450" on="1"/>
        <pt x="632" y="97" on="1"/>
      </contour>
      <contour>
        <pt x="550" y="315" on="1"/>
        <pt x="448" y="315" on="0"/>
        <pt x="409" y="300" on="0"/>
        <pt x="394" y="292" on="1"/>
        <pt x="367" y="278" on="0"/>
        <pt x="367" y="237" on="1"/>
        <pt x="367" y="214" on="1"/>
        <pt x="367" y="165" on="0"/>
        <pt x="397" y="125" on="0"/>
        <pt x="496" y="125" on="0"/>
        <pt x="550" y="135" on="1"/>
      </contour>
    </TTGlyph>
    <TTGlyph name="atilde" xMin="70" yMin="-12" xMax="417" yMax="722">
      <contour>
        <pt x="417" y="0" on="1"/>
        <pt x="372" y="0" on="1"/>
        <pt x="359" y="49" on="1"/>
        <pt x="335" y="22" on="0"/>
        <pt x="275" y="-7" on="0"/>
        <pt x="235" y="-12" on="0"/>
        <pt x="162" y="-12" on="0"/>
        <pt x="106" y="14" on="0"/>
        <pt x="92" y="40" on="1"/>
        <pt x="70" y="82" on="0"/>
        <pt x="70" y="153" on="1"/>
        <pt x="70" y="243" on="0"/>
        <pt x="122" y="270" on="1"/>
        <pt x="143" y="280" on="0"/>
        <pt x="176" y="292" on="0"/>
        <pt x="243" y="298" on="0"/>
        <pt x="290" y="299" on="0"/>
        <pt x="335" y="300" on="1"/>
        <pt x="335" y="375" on="1"/>
        <pt x="335" y="427" on="0"/>
        <pt x="291" y="464" on="0"/>
        <pt x="175" y="464" on="0"/>
        <pt x="107" y="442" on="1"/>
        <pt x="91" y="492" on="1"/>
        <pt x="169" y="530" on="0"/>
        <pt x="256" y="530" on="1"/>
        <pt x="360" y="530" on="0"/>
        <pt x="390" y="488" on="1"/>
        <pt x="406" y="465" on="0"/>
        <pt x="417" y="415" on="0"/>
        <pt x="417" y="375" on="1"/>
      </contour>
      <contour>
        <pt x="335" y="140" on="1"/>
        <pt x="335" y="243" on="1"/>
        <pt x="233" y="243" on="0"/>
        <pt x="194" y="228" on="0"/>
        <pt x="179" y="220" on="1"/>
        <pt x="152" y="206" on="0"/>
        <pt x="152" y="165" on="1"/>
        <pt x="152" y="142" on="1"/>
        <pt x="152" y="93" on="0"/>
        <pt x="182" y="53" on="0"/>
        <pt x="295" y="53" on="0"/>
        <pt x="335" y="98" on="0"/>
      </contour>
      <contour>
        <pt x="371" y="648" on="0"/>
        <pt x="336" y="630" on="0"/>
        <pt x="299" y="630" on="0"/>
        <pt x="234" y="657" on="0"/>
        <pt x="190" y="657" on="0"/>
        <pt x="159" y="637" on="1"/>
        <pt x="137" y="675" on="1"/>
        <pt x="166" y="704" on="0"/>
        <pt x="201" y="722" on="0"/>
        <pt x="238" y="722" on="0"/>
        <pt x="303" y="695" on="0"/>
        <pt x="347" y="695" on="0"/>
        <pt x="378" y="715" on="1"/>
        <pt x="400" y="677" on="1"/>
      </contour>
    </TTGlyph>
    <TTGlyph name="b" xMin="90" yMin="-12" xMax="439" yMax="720">
      <contour>
        <pt x="172" y="374" on="1"/>
        <pt x="172" y="64" on="1"/>
        <pt x="227" y="53" on="0"/>
        <pt x="322" y="53" on="0"/>
        <pt x="355" y="91" on="0"/>
        <pt x="355" y="147" on="1"/>
        <pt x="355" y="372" on="1"/>
        <pt x="355" y="421" on="0"/>
        <pt x="325" y="461" on="0"/>
        <pt x="212" y="461" on="0"/>
        <pt x="172" y="416" on="0"/>
      </contour>
      <contour>
        <pt x="90" y="720" on="1"/>
        <pt x="167" y="720" on="1"/>
        <pt x="167" y="486" on="1"/>
        <pt x="209" y="525" on="0"/>
        <pt x="386" y="525" on="0"/>
        <pt x="439" y="418" on="0"/>
        <pt x="439" y="284" on="1"/>
        <pt x="439" y="168" on="0"/>
        <pt x="431" y="115" on="0"/>
        <pt x="423" y="72" on="0"/>
        <pt x="410" y="49" on="0"/>
        <pt x="391" y="21" on="0"/>
        <pt x="366" y="7" on="0"/>
        <pt x="350" y="0" on="1"/>
        <pt x="321" y="-12" on="0"/>
        <pt x="189" y="-12" on="0"/>
        <pt x="90" y="17" on="1"/>
      </contour>
    </TTGlyph>
    <TTGlyph name="backslash" xMin="0" yMin="0" xMax="352" yMax="700">
      <contour>
        <pt x="0" y="700" on="1"/>
        <pt x="76" y="700" on="1"/>
        <pt x="352" y="0" on="1"/>
        <pt x="276" y="0" on="1"/>
      </contour>
    </TTGlyph>
    <TTGlyph name="bar" xMin="120" yMin="-100" xMax="206" yMax="800">
      <contour>
        <pt x="120" y="800" on="1"/>
        <pt x="206" y="800" on="1"/>
        <pt x="206" y="-100" on="1"/>
        <pt x="120" y="-100" on="1"/>
      </contour>
    </TTGlyph>
    <TTGlyph name="barra" xMin="105" yMin="305" xMax="385" yMax="365">
      <contour>
        <pt x="105" y="305" on="1"/>
        <pt x="105" y="365" on="1"/>
        <pt x="385" y="365" on="1"/>
        <pt x="385" y="305" on="1"/>
      </contour>
    </TTGlyph>
    <TTGlyph name="braceleft" xMin="23" yMin="-112" xMax="295" yMax="810">
      <contour>
        <pt x="82" y="469" on="1"/>
        <pt x="80" y="530" on="1"/>
        <pt x="80" y="689" on="0"/>
        <pt x="163" y="810" on="0"/>
        <pt x="290" y="810" on="1"/>
        <pt x="295" y="745" on="1"/>
        <pt x="213" y="745" on="0"/>
        <pt x="187" y="690" on="1"/>
        <pt x="174" y="663" on="0"/>
        <pt x="166" y="604" on="0"/>
        <pt x="166" y="447" on="0"/>
        <pt x="140" y="365" on="0"/>
        <pt x="99" y="352" on="1"/>
        <pt x="99" y="344" on="1"/>
        <pt x="140" y="330" on="0"/>
        <pt x="166" y="250" on="0"/>
        <pt x="166" y="94" on="0"/>
        <pt x="174" y="35" on="0"/>
        <pt x="187" y="8" on="1"/>
        <pt x="213" y="-47" on="0"/>
        <pt x="295" y="-47" on="1"/>
        <pt x="290" y="-112" on="1"/>
        <pt x="163" y="-112" on="0"/>
        <pt x="80" y="10" on="0"/>
        <pt x="80" y="170" on="1"/>
        <pt x="82" y="228" on="1"/>
        <pt x="82" y="313" on="0"/>
        <pt x="23" y="319" on="1"/>
        <pt x="23" y="369" on="1"/>
        <pt x="82" y="375" on="0"/>
      </contour>
    </TTGlyph>
    <TTGlyph name="braceright" xMin="45" yMin="-112" xMax="317" yMax="810">
      <contour>
        <pt x="258" y="228" on="1"/>
        <pt x="260" y="170" on="1"/>
        <pt x="260" y="10" on="0"/>
        <pt x="177" y="-112" on="0"/>
        <pt x="50" y="-112" on="1"/>
        <pt x="45" y="-47" on="1"/>
        <pt x="127" y="-47" on="0"/>
        <pt x="153" y="8" on="1"/>
        <pt x="166" y="35" on="0"/>
        <pt x="174" y="94" on="0"/>
        <pt x="174" y="250" on="0"/>
        <pt x="200" y="330" on="0"/>
        <pt x="241" y="344" on="1"/>
        <pt x="241" y="352" on="1"/>
        <pt x="200" y="365" on="0"/>
        <pt x="174" y="447" on="0"/>
        <pt x="174" y="604" on="0"/>
        <pt x="166" y="663" on="0"/>
        <pt x="153" y="690" on="1"/>
        <pt x="127" y="745" on="0"/>
        <pt x="45" y="745" on="1"/>
        <pt x="50" y="810" on="1"/>
        <pt x="177" y="810" on="0"/>
        <pt x="260" y="689" on="0"/>
        <pt x="260" y="530" on="1"/>
        <pt x="258" y="469" on="1"/>
        <pt x="258" y="375" on="0"/>
        <pt x="317" y="369" on="1"/>
        <pt x="317" y="319" on="1"/>
        <pt x="258" y="313" on="0"/>
      </contour>
    </TTGlyph>
    <TTGlyph name="bracketleft" xMin="90" yMin="-100" xMax="280" yMax="800">
      <contour>
        <pt x="90" y="-100" on="1"/>
        <pt x="90" y="800" on="1"/>
        <pt x="280" y="800" on="1"/>
        <pt x="280" y="730" on="1"/>
        <pt x="176" y="730" on="1"/>
        <pt x="176" y="-30" on="1"/>
        <pt x="280" y="-30" on="1"/>
        <pt x="280" y="-100" on="1"/>
      </contour>
    </TTGlyph>
    <TTGlyph name="bracketright" xMin="60" yMin="-100" xMax="250" yMax="800">
      <contour>
        <pt x="250" y="800" on="1"/>
        <pt x="250" y="-100" on="1"/>
        <pt x="60" y="-100" on="1"/>
        <pt x="60" y="-30" on="1"/>
        <pt x="164" y="-30" on="1"/>
        <pt x="164" y="730" on="1"/>
        <pt x="60" y="730" on="1"/>
        <pt x="60" y="800" on="1"/>
      </contour>
    </TTGlyph>
    <TTGlyph name="breve" xMin="86" yMin="591" xMax="344" yMax="724">
      <contour>
        <pt x="257" y="591" on="0"/>
        <pt x="173" y="591" on="0"/>
        <pt x="124" y="623" on="0"/>
        <pt x="107" y="658" on="1"/>
        <pt x="86" y="702" on="1"/>
        <pt x="131" y="724" on="1"/>
        <pt x="142" y="702" on="0"/>
        <pt x="155" y="683" on="0"/>
        <pt x="190" y="661" on="0"/>
        <pt x="240" y="661" on="0"/>
        <pt x="275" y="683" on="0"/>
        <pt x="288" y="702" on="0"/>
        <pt x="299" y="724" on="1"/>
        <pt x="344" y="702" on="1"/>
        <pt x="323" y="658" on="1"/>
        <pt x="306" y="623" on="0"/>
      </contour>
    </TTGlyph>
    <TTGlyph name="breve.case" xMin="86" yMin="736" xMax="344" yMax="869">
      <contour>
        <pt x="257" y="736" on="0"/>
        <pt x="173" y="736" on="0"/>
        <pt x="124" y="768" on="0"/>
        <pt x="107" y="803" on="1"/>
        <pt x="86" y="847" on="1"/>
        <pt x="131" y="869" on="1"/>
        <pt x="142" y="847" on="0"/>
        <pt x="155" y="828" on="0"/>
        <pt x="190" y="806" on="0"/>
        <pt x="240" y="806" on="0"/>
        <pt x="275" y="828" on="0"/>
        <pt x="288" y="847" on="0"/>
        <pt x="299" y="869" on="1"/>
        <pt x="344" y="847" on="1"/>
        <pt x="323" y="803" on="1"/>
        <pt x="306" y="768" on="0"/>
      </contour>
    </TTGlyph>
    <TTGlyph name="brokenbar" xMin="120" yMin="-100" xMax="206" yMax="800">
      <contour>
        <pt x="120" y="800" on="1"/>
        <pt x="206" y="800" on="1"/>
        <pt x="206" y="453" on="1"/>
        <pt x="120" y="453" on="1"/>
      </contour>
      <contour>
        <pt x="120" y="247" on="1"/>
        <pt x="206" y="247" on="1"/>
        <pt x="206" y="-100" on="1"/>
        <pt x="120" y="-100" on="1"/>
      </contour>
    </TTGlyph>
    <TTGlyph name="bullet" xMin="60" yMin="226" xMax="214" yMax="376">
      <contour>
        <pt x="94" y="373" on="0"/>
        <pt x="115" y="376" on="0"/>
        <pt x="160" y="376" on="0"/>
        <pt x="180" y="373" on="0"/>
        <pt x="205" y="360" on="0"/>
        <pt x="214" y="328" on="0"/>
        <pt x="214" y="274" on="0"/>
        <pt x="205" y="242" on="0"/>
        <pt x="192" y="236" on="1"/>
        <pt x="174" y="226" on="0"/>
        <pt x="115" y="226" on="0"/>
        <pt x="94" y="229" on="0"/>
        <pt x="69" y="242" on="0"/>
        <pt x="60" y="274" on="0"/>
        <pt x="60" y="328" on="0"/>
        <pt x="69" y="360" on="0"/>
      </contour>
    </TTGlyph>
    <TTGlyph name="c" xMin="75" yMin="-12" xMax="373" yMax="531">
      <contour>
        <pt x="371" y="507" on="1"/>
        <pt x="355" y="454" on="1"/>
        <pt x="311" y="465" on="0"/>
        <pt x="221" y="465" on="0"/>
        <pt x="179" y="453" on="0"/>
        <pt x="162" y="423" on="0"/>
        <pt x="158" y="399" on="0"/>
        <pt x="158" y="374" on="1"/>
        <pt x="158" y="146" on="1"/>
        <pt x="158" y="52" on="0"/>
        <pt x="254" y="52" on="1"/>
        <pt x="293" y="52" on="0"/>
        <pt x="361" y="68" on="1"/>
        <pt x="373" y="14" on="1"/>
        <pt x="316" y="-12" on="0"/>
        <pt x="246" y="-12" on="1"/>
        <pt x="198" y="-12" on="0"/>
        <pt x="139" y="9" on="0"/>
        <pt x="114" y="35" on="0"/>
        <pt x="96" y="57" on="0"/>
        <pt x="85" y="99" on="0"/>
        <pt x="79" y="130" on="0"/>
        <pt x="78" y="158" on="1"/>
        <pt x="75" y="206" on="0"/>
        <pt x="75" y="248" on="1"/>
        <pt x="75" y="308" on="1"/>
        <pt x="75" y="361" on="0"/>
        <pt x="83" y="407" on="0"/>
        <pt x="91" y="448" on="0"/>
        <pt x="105" y="469" on="0"/>
        <pt x="124" y="497" on="0"/>
        <pt x="151" y="511" on="0"/>
        <pt x="168" y="518" on="1"/>
        <pt x="195" y="531" on="0"/>
        <pt x="316" y="531" on="0"/>
      </contour>
    </TTGlyph>
    <TTGlyph name="caron" xMin="82" yMin="594" xMax="349" yMax="747">
      <contour>
        <pt x="82" y="710" on="1"/>
        <pt x="113" y="747" on="1"/>
        <pt x="216" y="680" on="1"/>
        <pt x="319" y="747" on="1"/>
        <pt x="349" y="710" on="1"/>
        <pt x="216" y="594" on="1"/>
      </contour>
    </TTGlyph>
    <TTGlyph name="caron.case" xMin="82" yMin="729" xMax="349" yMax="882">
      <contour>
        <pt x="82" y="845" on="1"/>
        <pt x="113" y="882" on="1"/>
        <pt x="216" y="815" on="1"/>
        <pt x="319" y="882" on="1"/>
        <pt x="349" y="845" on="1"/>
        <pt x="216" y="729" on="1"/>
      </contour>
    </TTGlyph>
    <TTGlyph name="ccedilla" xMin="75" yMin="-194" xMax="373" yMax="531">
      <contour>
        <pt x="371" y="507" on="1"/>
        <pt x="355" y="454" on="1"/>
        <pt x="311" y="465" on="0"/>
        <pt x="221" y="465" on="0"/>
        <pt x="179" y="453" on="0"/>
        <pt x="162" y="423" on="0"/>
        <pt x="158" y="399" on="0"/>
        <pt x="158" y="374" on="1"/>
        <pt x="158" y="146" on="1"/>
        <pt x="158" y="52" on="0"/>
        <pt x="254" y="52" on="1"/>
        <pt x="293" y="52" on="0"/>
        <pt x="361" y="68" on="1"/>
        <pt x="373" y="14" on="1"/>
        <pt x="316" y="-12" on="0"/>
        <pt x="243" y="-12" on="1"/>
        <pt x="238" y="-56" on="1"/>
        <pt x="250" y="-56" on="1"/>
        <pt x="293" y="-56" on="0"/>
        <pt x="323" y="-89" on="0"/>
        <pt x="323" y="-153" on="0"/>
        <pt x="286" y="-194" on="0"/>
        <pt x="192" y="-194" on="0"/>
        <pt x="161" y="-177" on="1"/>
        <pt x="171" y="-142" on="1"/>
        <pt x="205" y="-150" on="0"/>
        <pt x="239" y="-150" on="0"/>
        <pt x="256" y="-141" on="0"/>
        <pt x="258" y="-131" on="0"/>
        <pt x="258" y="-114" on="0"/>
        <pt x="256" y="-105" on="0"/>
        <pt x="242" y="-94" on="0"/>
        <pt x="229" y="-94" on="1"/>
        <pt x="209" y="-94" on="1"/>
        <pt x="194" y="-70" on="1"/>
        <pt x="202" y="-9" on="1"/>
        <pt x="138" y="-1" on="0"/>
        <pt x="113" y="36" on="1"/>
        <pt x="99" y="56" on="0"/>
        <pt x="83" y="92" on="0"/>
        <pt x="80" y="128" on="1"/>
        <pt x="75" y="173" on="0"/>
        <pt x="75" y="232" on="1"/>
        <pt x="75" y="308" on="1"/>
        <pt x="75" y="361" on="0"/>
        <pt x="83" y="407" on="0"/>
        <pt x="91" y="448" on="0"/>
        <pt x="105" y="469" on="0"/>
        <pt x="124" y="497" on="0"/>
        <pt x="151" y="511" on="0"/>
        <pt x="168" y="518" on="1"/>
        <pt x="195" y="531" on="0"/>
        <pt x="316" y="531" on="0"/>
      </contour>
    </TTGlyph>
    <TTGlyph name="cedilla" xMin="10" yMin="-194" xMax="172" yMax="0">
      <contour>
        <pt x="99" y="-56" on="1"/>
        <pt x="142" y="-56" on="0"/>
        <pt x="172" y="-89" on="0"/>
        <pt x="172" y="-153" on="0"/>
        <pt x="135" y="-194" on="0"/>
        <pt x="41" y="-194" on="0"/>
        <pt x="10" y="-177" on="1"/>
        <pt x="20" y="-142" on="1"/>
        <pt x="54" y="-150" on="0"/>
        <pt x="88" y="-150" on="0"/>
        <pt x="105" y="-141" on="0"/>
        <pt x="107" y="-131" on="0"/>
        <pt x="107" y="-114" on="0"/>
        <pt x="105" y="-105" on="0"/>
        <pt x="91" y="-94" on="0"/>
        <pt x="78" y="-94" on="1"/>
        <pt x="58" y="-94" on="1"/>
        <pt x="43" y="-70" on="1"/>
        <pt x="53" y="0" on="1"/>
        <pt x="94" y="0" on="1"/>
        <pt x="87" y="-56" on="1"/>
      </contour>
    </TTGlyph>
    <TTGlyph name="cent" xMin="104" yMin="-100" xMax="432" yMax="750">
      <contour>
        <pt x="249" y="-100" on="1"/>
        <pt x="249" y="57" on="1"/>
        <pt x="175" y="65" on="0"/>
        <pt x="148" y="101" on="1"/>
        <pt x="132" y="121" on="0"/>
        <pt x="114" y="158" on="0"/>
        <pt x="110" y="194" on="1"/>
        <pt x="104" y="247" on="0"/>
        <pt x="104" y="367" on="0"/>
        <pt x="105" y="410" on="0"/>
        <pt x="110" y="473" on="0"/>
        <pt x="122" y="507" on="0"/>
        <pt x="142" y="549" on="0"/>
        <pt x="158" y="560" on="1"/>
        <pt x="194" y="588" on="0"/>
        <pt x="249" y="595" on="1"/>
        <pt x="249" y="750" on="1"/>
        <pt x="312" y="750" on="1"/>
        <pt x="312" y="598" on="1"/>
        <pt x="375" y="596" on="0"/>
        <pt x="430" y="574" on="1"/>
        <pt x="414" y="521" on="1"/>
        <pt x="363" y="532" on="0"/>
        <pt x="259" y="532" on="0"/>
        <pt x="211" y="520" on="0"/>
        <pt x="191" y="490" on="0"/>
        <pt x="187" y="466" on="0"/>
        <pt x="187" y="441" on="1"/>
        <pt x="187" y="213" on="1"/>
        <pt x="187" y="119" on="0"/>
        <pt x="297" y="119" on="1"/>
        <pt x="342" y="119" on="0"/>
        <pt x="420" y="135" on="1"/>
        <pt x="432" y="81" on="1"/>
        <pt x="377" y="58" on="0"/>
        <pt x="312" y="55" on="1"/>
        <pt x="312" y="-100" on="1"/>
      </contour>
    </TTGlyph>
    <TTGlyph name="circumflex" xMin="82" yMin="603" xMax="349" yMax="756">
      <contour>
        <pt x="349" y="640" on="1"/>
        <pt x="318" y="603" on="1"/>
        <pt x="215" y="670" on="1"/>
        <pt x="112" y="603" on="1"/>
        <pt x="82" y="640" on="1"/>
        <pt x="215" y="756" on="1"/>
      </contour>
    </TTGlyph>
    <TTGlyph name="circumflex.case" xMin="82" yMin="738" xMax="349" yMax="891">
      <contour>
        <pt x="349" y="775" on="1"/>
        <pt x="318" y="738" on="1"/>
        <pt x="215" y="805" on="1"/>
        <pt x="112" y="738" on="1"/>
        <pt x="82" y="775" on="1"/>
        <pt x="215" y="891" on="1"/>
      </contour>
    </TTGlyph>
    <TTGlyph name="colon" xMin="64" yMin="-12" xMax="178" yMax="449">
      <contour>
        <pt x="104" y="99" on="0"/>
        <pt x="138" y="99" on="0"/>
        <pt x="153" y="97" on="0"/>
        <pt x="171" y="87" on="0"/>
        <pt x="178" y="64" on="0"/>
        <pt x="178" y="24" on="0"/>
        <pt x="171" y="0" on="0"/>
        <pt x="153" y="-10" on="0"/>
        <pt x="138" y="-12" on="0"/>
        <pt x="104" y="-12" on="0"/>
        <pt x="89" y="-10" on="0"/>
        <pt x="71" y="0" on="0"/>
        <pt x="64" y="24" on="0"/>
        <pt x="64" y="64" on="0"/>
        <pt x="71" y="87" on="0"/>
        <pt x="89" y="97" on="0"/>
      </contour>
      <contour>
        <pt x="104" y="449" on="0"/>
        <pt x="138" y="449" on="0"/>
        <pt x="153" y="447" on="0"/>
        <pt x="171" y="437" on="0"/>
        <pt x="178" y="414" on="0"/>
        <pt x="178" y="374" on="0"/>
        <pt x="171" y="350" on="0"/>
        <pt x="153" y="340" on="0"/>
        <pt x="138" y="338" on="0"/>
        <pt x="104" y="338" on="0"/>
        <pt x="89" y="340" on="0"/>
        <pt x="71" y="350" on="0"/>
        <pt x="64" y="374" on="0"/>
        <pt x="64" y="414" on="0"/>
        <pt x="71" y="437" on="0"/>
        <pt x="89" y="447" on="0"/>
      </contour>
    </TTGlyph>
    <TTGlyph name="comma" xMin="46" yMin="-136" xMax="178" yMax="99">
      <contour>
        <pt x="138" y="99" on="0"/>
        <pt x="153" y="97" on="0"/>
        <pt x="162" y="92" on="1"/>
        <pt x="178" y="83" on="0"/>
        <pt x="178" y="44" on="1"/>
        <pt x="178" y="2" on="0"/>
        <pt x="145" y="-51" on="1"/>
        <pt x="91" y="-136" on="1"/>
        <pt x="46" y="-112" on="1"/>
        <pt x="87" y="-9" on="1"/>
        <pt x="64" y="-1" on="0"/>
        <pt x="64" y="44" on="1"/>
        <pt x="64" y="83" on="0"/>
        <pt x="80" y="92" on="1"/>
        <pt x="93" y="99" on="0"/>
      </contour>
    </TTGlyph>
    <TTGlyph name="copyright" xMin="50" yMin="209" xMax="493" yMax="710">
      <contour>
        <pt x="493" y="519" on="0"/>
        <pt x="493" y="399" on="0"/>
        <pt x="490" y="344" on="0"/>
        <pt x="468" y="267" on="0"/>
        <pt x="445" y="250" on="1"/>
        <pt x="387" y="209" on="0"/>
        <pt x="270" y="209" on="1"/>
        <pt x="156" y="209" on="0"/>
        <pt x="116" y="240" on="1"/>
        <pt x="99" y="252" on="0"/>
        <pt x="77" y="271" on="0"/>
        <pt x="62" y="312" on="0"/>
        <pt x="54" y="338" on="0"/>
        <pt x="51" y="393" on="0"/>
        <pt x="50" y="425" on="0"/>
        <pt x="50" y="493" on="0"/>
        <pt x="51" y="525" on="0"/>
        <pt x="54" y="581" on="0"/>
        <pt x="62" y="607" on="0"/>
        <pt x="77" y="648" on="0"/>
        <pt x="99" y="667" on="0"/>
        <pt x="132" y="692" on="0"/>
        <pt x="154" y="697" on="1"/>
        <pt x="209" y="710" on="0"/>
        <pt x="335" y="710" on="0"/>
        <pt x="422" y="684" on="0"/>
        <pt x="468" y="652" on="0"/>
        <pt x="490" y="574" on="0"/>
      </contour>
      <contour>
        <pt x="209" y="248" on="0"/>
        <pt x="329" y="248" on="0"/>
        <pt x="402" y="265" on="0"/>
        <pt x="431" y="304" on="0"/>
        <pt x="437" y="334" on="0"/>
        <pt x="437" y="365" on="1"/>
        <pt x="437" y="554" on="1"/>
        <pt x="437" y="585" on="0"/>
        <pt x="431" y="615" on="0"/>
        <pt x="402" y="654" on="0"/>
        <pt x="329" y="671" on="0"/>
        <pt x="209" y="671" on="0"/>
        <pt x="136" y="654" on="0"/>
        <pt x="107" y="615" on="0"/>
        <pt x="101" y="585" on="0"/>
        <pt x="101" y="554" on="1"/>
        <pt x="101" y="365" on="1"/>
        <pt x="101" y="334" on="0"/>
        <pt x="107" y="304" on="0"/>
        <pt x="136" y="265" on="0"/>
      </contour>
      <contour>
        <pt x="209" y="621" on="0"/>
        <pt x="254" y="636" on="0"/>
        <pt x="318" y="636" on="0"/>
        <pt x="359" y="624" on="1"/>
        <pt x="349" y="577" on="1"/>
        <pt x="304" y="583" on="0"/>
        <pt x="261" y="583" on="0"/>
        <pt x="235" y="568" on="0"/>
        <pt x="231" y="550" on="0"/>
        <pt x="231" y="529" on="1"/>
        <pt x="231" y="389" on="1"/>
        <pt x="231" y="363" on="0"/>
        <pt x="237" y="352" on="1"/>
        <pt x="247" y="334" on="0"/>
        <pt x="312" y="334" on="0"/>
        <pt x="353" y="343" on="1"/>
        <pt x="366" y="301" on="1"/>
        <pt x="321" y="282" on="0"/>
        <pt x="254" y="282" on="0"/>
        <pt x="209" y="297" on="0"/>
        <pt x="184" y="318" on="0"/>
        <pt x="172" y="371" on="0"/>
        <pt x="170" y="413" on="0"/>
        <pt x="170" y="505" on="0"/>
        <pt x="172" y="547" on="0"/>
        <pt x="184" y="600" on="0"/>
      </contour>
    </TTGlyph>
    <TTGlyph name="currency" xMin="28" yMin="95" xMax="472" yMax="539">
      <contour>
        <pt x="396" y="382" on="0"/>
        <pt x="396" y="252" on="0"/>
        <pt x="387" y="228" on="1"/>
        <pt x="472" y="144" on="1"/>
        <pt x="423" y="95" on="1"/>
        <pt x="337" y="181" on="1"/>
        <pt x="308" y="170" on="0"/>
        <pt x="196" y="170" on="0"/>
        <pt x="163" y="181" on="1"/>
        <pt x="77" y="95" on="1"/>
        <pt x="28" y="144" on="1"/>
        <pt x="113" y="229" on="1"/>
        <pt x="106" y="253" on="0"/>
        <pt x="106" y="381" on="0"/>
        <pt x="113" y="404" on="1"/>
        <pt x="28" y="490" on="1"/>
        <pt x="77" y="539" on="1"/>
        <pt x="163" y="452" on="1"/>
        <pt x="194" y="464" on="0"/>
        <pt x="304" y="464" on="0"/>
        <pt x="337" y="453" on="1"/>
        <pt x="423" y="539" on="1"/>
        <pt x="472" y="490" on="1"/>
        <pt x="387" y="405" on="1"/>
      </contour>
      <contour>
        <pt x="325" y="278" on="1"/>
        <pt x="325" y="355" on="1"/>
        <pt x="325" y="376" on="0"/>
        <pt x="317" y="386" on="1"/>
        <pt x="303" y="403" on="0"/>
        <pt x="215" y="403" on="0"/>
        <pt x="182" y="388" on="0"/>
        <pt x="177" y="372" on="0"/>
        <pt x="177" y="355" on="1"/>
        <pt x="177" y="278" on="1"/>
        <pt x="177" y="240" on="0"/>
        <pt x="209" y="234" on="1"/>
        <pt x="225" y="230" on="0"/>
        <pt x="278" y="230" on="0"/>
        <pt x="310" y="237" on="0"/>
        <pt x="316" y="245" on="1"/>
        <pt x="325" y="257" on="0"/>
      </contour>
    </TTGlyph>
    <TTGlyph name="d" xMin="75" yMin="-12" xMax="424" yMax="720">
      <contour>
        <pt x="342" y="140" on="1"/>
        <pt x="342" y="450" on="1"/>
        <pt x="287" y="461" on="0"/>
        <pt x="192" y="461" on="0"/>
        <pt x="159" y="423" on="0"/>
        <pt x="159" y="367" on="1"/>
        <pt x="159" y="142" on="1"/>
        <pt x="159" y="93" on="0"/>
        <pt x="189" y="53" on="0"/>
        <pt x="302" y="53" on="0"/>
        <pt x="342" y="98" on="0"/>
      </contour>
      <contour>
        <pt x="75" y="345" on="0"/>
        <pt x="83" y="398" on="0"/>
        <pt x="91" y="441" on="0"/>
        <pt x="104" y="464" on="0"/>
        <pt x="123" y="492" on="0"/>
        <pt x="148" y="506" on="0"/>
        <pt x="164" y="513" on="1"/>
        <pt x="193" y="525" on="0"/>
        <pt x="303" y="525" on="0"/>
        <pt x="347" y="512" on="1"/>
        <pt x="347" y="720" on="1"/>
        <pt x="424" y="720" on="1"/>
        <pt x="424" y="0" on="1"/>
        <pt x="379" y="0" on="1"/>
        <pt x="366" y="49" on="1"/>
        <pt x="347" y="22" on="0"/>
        <pt x="286" y="-7" on="0"/>
        <pt x="243" y="-12" on="0"/>
        <pt x="212" y="-12" on="1"/>
        <pt x="128" y="-12" on="0"/>
        <pt x="75" y="95" on="0"/>
      </contour>
    </TTGlyph>
    <TTGlyph name="dagger" xMin="60" yMin="0" xMax="440" yMax="700">
      <contour>
        <pt x="60" y="450" on="1"/>
        <pt x="60" y="520" on="1"/>
        <pt x="215" y="520" on="1"/>
        <pt x="215" y="700" on="1"/>
        <pt x="285" y="700" on="1"/>
        <pt x="285" y="520" on="1"/>
        <pt x="440" y="520" on="1"/>
        <pt x="440" y="450" on="1"/>
        <pt x="285" y="450" on="1"/>
        <pt x="285" y="0" on="1"/>
        <pt x="215" y="0" on="1"/>
        <pt x="215" y="450" on="1"/>
      </contour>
    </TTGlyph>
    <TTGlyph name="daggerdbl" xMin="60" yMin="0" xMax="440" yMax="700">
      <contour>
        <pt x="60" y="450" on="1"/>
        <pt x="60" y="520" on="1"/>
        <pt x="215" y="520" on="1"/>
        <pt x="215" y="700" on="1"/>
        <pt x="285" y="700" on="1"/>
        <pt x="285" y="520" on="1"/>
        <pt x="440" y="520" on="1"/>
        <pt x="440" y="450" on="1"/>
        <pt x="285" y="450" on="1"/>
        <pt x="285" y="250" on="1"/>
        <pt x="440" y="250" on="1"/>
        <pt x="440" y="180" on="1"/>
        <pt x="285" y="180" on="1"/>
        <pt x="285" y="0" on="1"/>
        <pt x="215" y="0" on="1"/>
        <pt x="215" y="180" on="1"/>
        <pt x="60" y="180" on="1"/>
        <pt x="60" y="250" on="1"/>
        <pt x="215" y="250" on="1"/>
        <pt x="215" y="450" on="1"/>
      </contour>
    </TTGlyph>
    <TTGlyph name="degree" xMin="50" yMin="418" xMax="310" yMax="712">
      <contour>
        <pt x="310" y="600" on="0"/>
        <pt x="310" y="530" on="0"/>
        <pt x="308" y="498" on="0"/>
        <pt x="295" y="452" on="0"/>
        <pt x="268" y="433" on="0"/>
        <pt x="217" y="418" on="0"/>
        <pt x="141" y="418" on="0"/>
        <pt x="91" y="433" on="0"/>
        <pt x="65" y="452" on="0"/>
        <pt x="52" y="498" on="0"/>
        <pt x="50" y="530" on="0"/>
        <pt x="50" y="600" on="0"/>
        <pt x="52" y="632" on="0"/>
        <pt x="65" y="678" on="0"/>
        <pt x="91" y="697" on="0"/>
        <pt x="141" y="712" on="0"/>
        <pt x="217" y="712" on="0"/>
        <pt x="268" y="697" on="0"/>
        <pt x="295" y="678" on="0"/>
        <pt x="308" y="632" on="0"/>
      </contour>
      <contour>
        <pt x="239" y="526" on="1"/>
        <pt x="239" y="603" on="1"/>
        <pt x="239" y="641" on="0"/>
        <pt x="214" y="648" on="1"/>
        <pt x="202" y="651" on="0"/>
        <pt x="159" y="651" on="0"/>
        <pt x="133" y="644" on="0"/>
        <pt x="128" y="636" on="1"/>
        <pt x="121" y="625" on="0"/>
        <pt x="121" y="603" on="1"/>
        <pt x="121" y="526" on="1"/>
        <pt x="121" y="504" on="0"/>
        <pt x="127" y="495" on="1"/>
        <pt x="137" y="478" on="0"/>
        <pt x="181" y="478" on="1"/>
        <pt x="223" y="478" on="0"/>
        <pt x="232" y="493" on="1"/>
        <pt x="239" y="504" on="0"/>
      </contour>
    </TTGlyph>
    <TTGlyph name="dieresis" xMin="73" yMin="616" xMax="357" yMax="717">
      <contour>
        <pt x="110" y="717" on="0"/>
        <pt x="140" y="717" on="0"/>
        <pt x="154" y="715" on="0"/>
        <pt x="162" y="710" on="1"/>
        <pt x="177" y="703" on="0"/>
        <pt x="177" y="648" on="0"/>
        <pt x="171" y="627" on="0"/>
        <pt x="154" y="618" on="0"/>
        <pt x="140" y="616" on="0"/>
        <pt x="110" y="616" on="0"/>
        <pt x="96" y="618" on="0"/>
        <pt x="88" y="622" on="1"/>
        <pt x="73" y="630" on="0"/>
        <pt x="73" y="685" on="0"/>
        <pt x="79" y="706" on="0"/>
        <pt x="96" y="715" on="0"/>
      </contour>
      <contour>
        <pt x="290" y="717" on="0"/>
        <pt x="320" y="717" on="0"/>
        <pt x="334" y="715" on="0"/>
        <pt x="342" y="710" on="1"/>
        <pt x="357" y="703" on="0"/>
        <pt x="357" y="648" on="0"/>
        <pt x="351" y="627" on="0"/>
        <pt x="334" y="618" on="0"/>
        <pt x="320" y="616" on="0"/>
        <pt x="290" y="616" on="0"/>
        <pt x="276" y="618" on="0"/>
        <pt x="268" y="622" on="1"/>
        <pt x="253" y="630" on="0"/>
        <pt x="253" y="685" on="0"/>
        <pt x="259" y="706" on="0"/>
        <pt x="276" y="715" on="0"/>
      </contour>
    </TTGlyph>
    <TTGlyph name="dieresis.case" xMin="73" yMin="761" xMax="357" yMax="862">
      <contour>
        <pt x="110" y="862" on="0"/>
        <pt x="140" y="862" on="0"/>
        <pt x="154" y="860" on="0"/>
        <pt x="162" y="856" on="1"/>
        <pt x="177" y="848" on="0"/>
        <pt x="177" y="793" on="0"/>
        <pt x="171" y="772" on="0"/>
        <pt x="154" y="763" on="0"/>
        <pt x="140" y="761" on="0"/>
        <pt x="110" y="761" on="0"/>
        <pt x="96" y="763" on="0"/>
        <pt x="88" y="768" on="1"/>
        <pt x="73" y="775" on="0"/>
        <pt x="73" y="830" on="0"/>
        <pt x="79" y="851" on="0"/>
        <pt x="96" y="860" on="0"/>
      </contour>
      <contour>
        <pt x="290" y="862" on="0"/>
        <pt x="320" y="862" on="0"/>
        <pt x="334" y="860" on="0"/>
        <pt x="342" y="856" on="1"/>
        <pt x="357" y="848" on="0"/>
        <pt x="357" y="793" on="0"/>
        <pt x="351" y="772" on="0"/>
        <pt x="334" y="763" on="0"/>
        <pt x="320" y="761" on="0"/>
        <pt x="290" y="761" on="0"/>
        <pt x="276" y="763" on="0"/>
        <pt x="268" y="768" on="1"/>
        <pt x="253" y="775" on="0"/>
        <pt x="253" y="830" on="0"/>
        <pt x="259" y="851" on="0"/>
        <pt x="276" y="860" on="0"/>
      </contour>
    </TTGlyph>
    <TTGlyph name="divide" xMin="60" yMin="81" xMax="440" yMax="553">
      <contour>
        <pt x="234" y="192" on="0"/>
        <pt x="268" y="192" on="0"/>
        <pt x="283" y="190" on="0"/>
        <pt x="301" y="180" on="0"/>
        <pt x="308" y="157" on="0"/>
        <pt x="308" y="117" on="0"/>
        <pt x="301" y="93" on="0"/>
        <pt x="283" y="83" on="0"/>
        <pt x="268" y="81" on="0"/>
        <pt x="234" y="81" on="0"/>
        <pt x="219" y="83" on="0"/>
        <pt x="201" y="93" on="0"/>
        <pt x="194" y="117" on="0"/>
        <pt x="194" y="157" on="0"/>
        <pt x="201" y="180" on="0"/>
        <pt x="219" y="190" on="0"/>
      </contour>
      <contour>
        <pt x="234" y="553" on="0"/>
        <pt x="268" y="553" on="0"/>
        <pt x="283" y="551" on="0"/>
        <pt x="301" y="541" on="0"/>
        <pt x="308" y="518" on="0"/>
        <pt x="308" y="478" on="0"/>
        <pt x="301" y="454" on="0"/>
        <pt x="283" y="444" on="0"/>
        <pt x="268" y="442" on="0"/>
        <pt x="234" y="442" on="0"/>
        <pt x="219" y="444" on="0"/>
        <pt x="201" y="454" on="0"/>
        <pt x="194" y="478" on="0"/>
        <pt x="194" y="518" on="0"/>
        <pt x="201" y="541" on="0"/>
        <pt x="219" y="551" on="0"/>
      </contour>
      <contour>
        <pt x="60" y="282" on="1"/>
        <pt x="60" y="352" on="1"/>
        <pt x="440" y="352" on="1"/>
        <pt x="440" y="282" on="1"/>
      </contour>
    </TTGlyph>
    <TTGlyph name="dollar" xMin="60" yMin="-100" xMax="440" yMax="750">
      <contour>
        <pt x="216" y="-100" on="1"/>
        <pt x="216" y="-11" on="1"/>
        <pt x="126" y="-4" on="0"/>
        <pt x="60" y="25" on="1"/>
        <pt x="78" y="87" on="1"/>
        <pt x="158" y="59" on="0"/>
        <pt x="300" y="59" on="0"/>
        <pt x="356" y="111" on="0"/>
        <pt x="356" y="218" on="0"/>
        <pt x="326" y="270" on="0"/>
        <pt x="278" y="281" on="1"/>
        <pt x="179" y="304" on="1"/>
        <pt x="108" y="321" on="0"/>
        <pt x="62" y="400" on="0"/>
        <pt x="62" y="480" on="1"/>
        <pt x="62" y="636" on="0"/>
        <pt x="217" y="655" on="1"/>
        <pt x="217" y="750" on="1"/>
        <pt x="280" y="750" on="1"/>
        <pt x="280" y="656" on="1"/>
        <pt x="344" y="651" on="0"/>
        <pt x="417" y="625" on="1"/>
        <pt x="399" y="565" on="1"/>
        <pt x="324" y="586" on="0"/>
        <pt x="199" y="586" on="0"/>
        <pt x="142" y="546" on="0"/>
        <pt x="142" y="428" on="0"/>
        <pt x="170" y="382" on="0"/>
        <pt x="216" y="371" on="1"/>
        <pt x="311" y="348" on="1"/>
        <pt x="379" y="332" on="0"/>
        <pt x="440" y="260" on="0"/>
        <pt x="440" y="97" on="0"/>
        <pt x="361" y="-3" on="0"/>
        <pt x="280" y="-11" on="1"/>
        <pt x="280" y="-100" on="1"/>
      </contour>
    </TTGlyph>
    <TTGlyph name="dotaccent" xMin="70" yMin="621" xMax="184" yMax="732">
      <contour>
        <pt x="110" y="732" on="0"/>
        <pt x="144" y="732" on="0"/>
        <pt x="159" y="730" on="0"/>
        <pt x="177" y="720" on="0"/>
        <pt x="184" y="697" on="0"/>
        <pt x="184" y="657" on="0"/>
        <pt x="177" y="633" on="0"/>
        <pt x="159" y="623" on="0"/>
        <pt x="144" y="621" on="0"/>
        <pt x="110" y="621" on="0"/>
        <pt x="95" y="623" on="0"/>
        <pt x="77" y="633" on="0"/>
        <pt x="70" y="657" on="0"/>
        <pt x="70" y="697" on="0"/>
        <pt x="77" y="720" on="0"/>
        <pt x="95" y="730" on="0"/>
      </contour>
    </TTGlyph>
    <TTGlyph name="dotaccent.case" xMin="70" yMin="756" xMax="184" yMax="867">
      <contour>
        <pt x="110" y="867" on="0"/>
        <pt x="144" y="867" on="0"/>
        <pt x="159" y="865" on="0"/>
        <pt x="177" y="855" on="0"/>
        <pt x="184" y="832" on="0"/>
        <pt x="184" y="792" on="0"/>
        <pt x="177" y="768" on="0"/>
        <pt x="159" y="758" on="0"/>
        <pt x="144" y="756" on="0"/>
        <pt x="110" y="756" on="0"/>
        <pt x="95" y="758" on="0"/>
        <pt x="77" y="768" on="0"/>
        <pt x="70" y="792" on="0"/>
        <pt x="70" y="832" on="0"/>
        <pt x="77" y="855" on="0"/>
        <pt x="95" y="865" on="0"/>
      </contour>
    </TTGlyph>
    <TTGlyph name="dotlessi" xMin="90" yMin="0" xMax="172" yMax="520">
      <contour>
        <pt x="90" y="520" on="1"/>
        <pt x="172" y="520" on="1"/>
        <pt x="172" y="0" on="1"/>
        <pt x="90" y="0" on="1"/>
      </contour>
    </TTGlyph>
    <TTGlyph name="e" xMin="75" yMin="-12" xMax="423" yMax="531">
      <contour>
        <pt x="158" y="378" on="1"/>
        <pt x="158" y="275" on="1"/>
        <pt x="260" y="275" on="0"/>
        <pt x="299" y="290" on="0"/>
        <pt x="314" y="298" on="1"/>
        <pt x="341" y="312" on="0"/>
        <pt x="341" y="353" on="1"/>
        <pt x="341" y="376" on="1"/>
        <pt x="341" y="425" on="0"/>
        <pt x="311" y="465" on="0"/>
        <pt x="198" y="465" on="0"/>
        <pt x="158" y="420" on="0"/>
      </contour>
      <contour>
        <pt x="184" y="526" on="0"/>
        <pt x="228" y="531" on="0"/>
        <pt x="309" y="531" on="0"/>
        <pt x="379" y="509" on="0"/>
        <pt x="412" y="462" on="0"/>
        <pt x="423" y="413" on="0"/>
        <pt x="423" y="350" on="0"/>
        <pt x="415" y="309" on="0"/>
        <pt x="404" y="279" on="0"/>
        <pt x="379" y="256" on="0"/>
        <pt x="358" y="240" on="0"/>
        <pt x="317" y="229" on="0"/>
        <pt x="287" y="223" on="0"/>
        <pt x="259" y="221" on="1"/>
        <pt x="217" y="218" on="0"/>
        <pt x="158" y="218" on="1"/>
        <pt x="158" y="143" on="1"/>
        <pt x="158" y="91" on="0"/>
        <pt x="202" y="54" on="0"/>
        <pt x="247" y="54" on="1"/>
        <pt x="330" y="54" on="0"/>
        <pt x="396" y="82" on="1"/>
        <pt x="412" y="32" on="1"/>
        <pt x="337" y="-12" on="0"/>
        <pt x="246" y="-12" on="1"/>
        <pt x="198" y="-12" on="0"/>
        <pt x="139" y="9" on="0"/>
        <pt x="114" y="35" on="0"/>
        <pt x="96" y="57" on="0"/>
        <pt x="85" y="99" on="0"/>
        <pt x="79" y="130" on="0"/>
        <pt x="78" y="158" on="1"/>
        <pt x="75" y="206" on="0"/>
        <pt x="75" y="248" on="1"/>
        <pt x="75" y="308" on="1"/>
        <pt x="75" y="361" on="0"/>
        <pt x="83" y="407" on="0"/>
        <pt x="91" y="448" on="0"/>
        <pt x="105" y="469" on="0"/>
        <pt x="124" y="497" on="0"/>
        <pt x="151" y="511" on="0"/>
      </contour>
    </TTGlyph>
    <TTGlyph name="eacute" xMin="75" yMin="-12" xMax="423" yMax="756">
      <contour>
        <pt x="158" y="378" on="1"/>
        <pt x="158" y="275" on="1"/>
        <pt x="260" y="275" on="0"/>
        <pt x="299" y="290" on="0"/>
        <pt x="314" y="298" on="1"/>
        <pt x="341" y="312" on="0"/>
        <pt x="341" y="353" on="1"/>
        <pt x="341" y="376" on="1"/>
        <pt x="341" y="425" on="0"/>
        <pt x="311" y="465" on="0"/>
        <pt x="198" y="465" on="0"/>
        <pt x="158" y="420" on="0"/>
      </contour>
      <contour>
        <pt x="184" y="526" on="0"/>
        <pt x="228" y="531" on="0"/>
        <pt x="309" y="531" on="0"/>
        <pt x="379" y="509" on="0"/>
        <pt x="412" y="462" on="0"/>
        <pt x="423" y="413" on="0"/>
        <pt x="423" y="350" on="0"/>
        <pt x="415" y="309" on="0"/>
        <pt x="404" y="279" on="0"/>
        <pt x="379" y="256" on="0"/>
        <pt x="358" y="240" on="0"/>
        <pt x="317" y="229" on="0"/>
        <pt x="287" y="223" on="0"/>
        <pt x="259" y="221" on="1"/>
        <pt x="217" y="218" on="0"/>
        <pt x="158" y="218" on="1"/>
        <pt x="158" y="143" on="1"/>
        <pt x="158" y="91" on="0"/>
        <pt x="202" y="54" on="0"/>
        <pt x="247" y="54" on="1"/>
        <pt x="330" y="54" on="0"/>
        <pt x="396" y="82" on="1"/>
        <pt x="412" y="32" on="1"/>
        <pt x="337" y="-12" on="0"/>
        <pt x="246" y="-12" on="1"/>
        <pt x="198" y="-12" on="0"/>
        <pt x="139" y="9" on="0"/>
        <pt x="114" y="35" on="0"/>
        <pt x="96" y="57" on="0"/>
        <pt x="85" y="99" on="0"/>
        <pt x="79" y="130" on="0"/>
        <pt x="78" y="158" on="1"/>
        <pt x="75" y="206" on="0"/>
        <pt x="75" y="248" on="1"/>
        <pt x="75" y="308" on="1"/>
        <pt x="75" y="361" on="0"/>
        <pt x="83" y="407" on="0"/>
        <pt x="91" y="448" on="0"/>
        <pt x="105" y="469" on="0"/>
        <pt x="124" y="497" on="0"/>
        <pt x="151" y="511" on="0"/>
      </contour>
      <contour>
        <pt x="187" y="586" on="1"/>
        <pt x="164" y="620" on="1"/>
        <pt x="329" y="756" on="1"/>
        <pt x="375" y="689" on="1"/>
      </contour>
    </TTGlyph>
    <TTGlyph name="ecircumflex" xMin="75" yMin="-12" xMax="423" yMax="756">
      <contour>
        <pt x="158" y="378" on="1"/>
        <pt x="158" y="275" on="1"/>
        <pt x="260" y="275" on="0"/>
        <pt x="299" y="290" on="0"/>
        <pt x="314" y="298" on="1"/>
        <pt x="341" y="312" on="0"/>
        <pt x="341" y="353" on="1"/>
        <pt x="341" y="376" on="1"/>
        <pt x="341" y="425" on="0"/>
        <pt x="311" y="465" on="0"/>
        <pt x="198" y="465" on="0"/>
        <pt x="158" y="420" on="0"/>
      </contour>
      <contour>
        <pt x="184" y="526" on="0"/>
        <pt x="228" y="531" on="0"/>
        <pt x="309" y="531" on="0"/>
        <pt x="379" y="509" on="0"/>
        <pt x="412" y="462" on="0"/>
        <pt x="423" y="413" on="0"/>
        <pt x="423" y="350" on="0"/>
        <pt x="415" y="309" on="0"/>
        <pt x="404" y="279" on="0"/>
        <pt x="379" y="256" on="0"/>
        <pt x="358" y="240" on="0"/>
        <pt x="317" y="229" on="0"/>
        <pt x="287" y="223" on="0"/>
        <pt x="259" y="221" on="1"/>
        <pt x="217" y="218" on="0"/>
        <pt x="158" y="218" on="1"/>
        <pt x="158" y="143" on="1"/>
        <pt x="158" y="91" on="0"/>
        <pt x="202" y="54" on="0"/>
        <pt x="247" y="54" on="1"/>
        <pt x="330" y="54" on="0"/>
        <pt x="396" y="82" on="1"/>
        <pt x="412" y="32" on="1"/>
        <pt x="337" y="-12" on="0"/>
        <pt x="246" y="-12" on="1"/>
        <pt x="198" y="-12" on="0"/>
        <pt x="139" y="9" on="0"/>
        <pt x="114" y="35" on="0"/>
        <pt x="96" y="57" on="0"/>
        <pt x="85" y="99" on="0"/>
        <pt x="79" y="130" on="0"/>
        <pt x="78" y="158" on="1"/>
        <pt x="75" y="206" on="0"/>
        <pt x="75" y="248" on="1"/>
        <pt x="75" y="308" on="1"/>
        <pt x="75" y="361" on="0"/>
        <pt x="83" y="407" on="0"/>
        <pt x="91" y="448" on="0"/>
        <pt x="105" y="469" on="0"/>
        <pt x="124" y="497" on="0"/>
        <pt x="151" y="511" on="0"/>
      </contour>
      <contour>
        <pt x="393" y="640" on="1"/>
        <pt x="362" y="603" on="1"/>
        <pt x="259" y="670" on="1"/>
        <pt x="156" y="603" on="1"/>
        <pt x="126" y="640" on="1"/>
        <pt x="259" y="756" on="1"/>
      </contour>
    </TTGlyph>
    <TTGlyph name="edieresis" xMin="75" yMin="-12" xMax="423" yMax="717">
      <contour>
        <pt x="158" y="378" on="1"/>
        <pt x="158" y="275" on="1"/>
        <pt x="260" y="275" on="0"/>
        <pt x="299" y="290" on="0"/>
        <pt x="314" y="298" on="1"/>
        <pt x="341" y="312" on="0"/>
        <pt x="341" y="353" on="1"/>
        <pt x="341" y="376" on="1"/>
        <pt x="341" y="425" on="0"/>
        <pt x="311" y="465" on="0"/>
        <pt x="198" y="465" on="0"/>
        <pt x="158" y="420" on="0"/>
      </contour>
      <contour>
        <pt x="184" y="526" on="0"/>
        <pt x="228" y="531" on="0"/>
        <pt x="309" y="531" on="0"/>
        <pt x="379" y="509" on="0"/>
        <pt x="412" y="462" on="0"/>
        <pt x="423" y="413" on="0"/>
        <pt x="423" y="350" on="0"/>
        <pt x="415" y="309" on="0"/>
        <pt x="404" y="279" on="0"/>
        <pt x="379" y="256" on="0"/>
        <pt x="358" y="240" on="0"/>
        <pt x="317" y="229" on="0"/>
        <pt x="287" y="223" on="0"/>
        <pt x="259" y="221" on="1"/>
        <pt x="217" y="218" on="0"/>
        <pt x="158" y="218" on="1"/>
        <pt x="158" y="143" on="1"/>
        <pt x="158" y="91" on="0"/>
        <pt x="202" y="54" on="0"/>
        <pt x="247" y="54" on="1"/>
        <pt x="330" y="54" on="0"/>
        <pt x="396" y="82" on="1"/>
        <pt x="412" y="32" on="1"/>
        <pt x="337" y="-12" on="0"/>
        <pt x="246" y="-12" on="1"/>
        <pt x="198" y="-12" on="0"/>
        <pt x="139" y="9" on="0"/>
        <pt x="114" y="35" on="0"/>
        <pt x="96" y="57" on="0"/>
        <pt x="85" y="99" on="0"/>
        <pt x="79" y="130" on="0"/>
        <pt x="78" y="158" on="1"/>
        <pt x="75" y="206" on="0"/>
        <pt x="75" y="248" on="1"/>
        <pt x="75" y="308" on="1"/>
        <pt x="75" y="361" on="0"/>
        <pt x="83" y="407" on="0"/>
        <pt x="91" y="448" on="0"/>
        <pt x="105" y="469" on="0"/>
        <pt x="124" y="497" on="0"/>
        <pt x="151" y="511" on="0"/>
      </contour>
      <contour>
        <pt x="144" y="717" on="0"/>
        <pt x="174" y="717" on="0"/>
        <pt x="188" y="715" on="0"/>
        <pt x="196" y="710" on="1"/>
        <pt x="211" y="703" on="0"/>
        <pt x="211" y="648" on="0"/>
        <pt x="205" y="627" on="0"/>
        <pt x="188" y="618" on="0"/>
        <pt x="174" y="616" on="0"/>
        <pt x="144" y="616" on="0"/>
        <pt x="130" y="618" on="0"/>
        <pt x="122" y="622" on="1"/>
        <pt x="107" y="630" on="0"/>
        <pt x="107" y="685" on="0"/>
        <pt x="113" y="706" on="0"/>
        <pt x="130" y="715" on="0"/>
      </contour>
      <contour>
        <pt x="324" y="717" on="0"/>
        <pt x="354" y="717" on="0"/>
        <pt x="368" y="715" on="0"/>
        <pt x="376" y="710" on="1"/>
        <pt x="391" y="703" on="0"/>
        <pt x="391" y="648" on="0"/>
        <pt x="385" y="627" on="0"/>
        <pt x="368" y="618" on="0"/>
        <pt x="354" y="616" on="0"/>
        <pt x="324" y="616" on="0"/>
        <pt x="310" y="618" on="0"/>
        <pt x="302" y="622" on="1"/>
        <pt x="287" y="630" on="0"/>
        <pt x="287" y="685" on="0"/>
        <pt x="293" y="706" on="0"/>
        <pt x="310" y="715" on="0"/>
      </contour>
    </TTGlyph>
    <TTGlyph name="egrave" xMin="75" yMin="-12" xMax="423" yMax="756">
      <contour>
        <pt x="158" y="378" on="1"/>
        <pt x="158" y="275" on="1"/>
        <pt x="260" y="275" on="0"/>
        <pt x="299" y="290" on="0"/>
        <pt x="314" y="298" on="1"/>
        <pt x="341" y="312" on="0"/>
        <pt x="341" y="353" on="1"/>
        <pt x="341" y="376" on="1"/>
        <pt x="341" y="425" on="0"/>
        <pt x="311" y="465" on="0"/>
        <pt x="198" y="465" on="0"/>
        <pt x="158" y="420" on="0"/>
      </contour>
      <contour>
        <pt x="184" y="526" on="0"/>
        <pt x="228" y="531" on="0"/>
        <pt x="309" y="531" on="0"/>
        <pt x="379" y="509" on="0"/>
        <pt x="412" y="462" on="0"/>
        <pt x="423" y="413" on="0"/>
        <pt x="423" y="350" on="0"/>
        <pt x="415" y="309" on="0"/>
        <pt x="404" y="279" on="0"/>
        <pt x="379" y="256" on="0"/>
        <pt x="358" y="240" on="0"/>
        <pt x="317" y="229" on="0"/>
        <pt x="287" y="223" on="0"/>
        <pt x="259" y="221" on="1"/>
        <pt x="217" y="218" on="0"/>
        <pt x="158" y="218" on="1"/>
        <pt x="158" y="143" on="1"/>
        <pt x="158" y="91" on="0"/>
        <pt x="202" y="54" on="0"/>
        <pt x="247" y="54" on="1"/>
        <pt x="330" y="54" on="0"/>
        <pt x="396" y="82" on="1"/>
        <pt x="412" y="32" on="1"/>
        <pt x="337" y="-12" on="0"/>
        <pt x="246" y="-12" on="1"/>
        <pt x="198" y="-12" on="0"/>
        <pt x="139" y="9" on="0"/>
        <pt x="114" y="35" on="0"/>
        <pt x="96" y="57" on="0"/>
        <pt x="85" y="99" on="0"/>
        <pt x="79" y="130" on="0"/>
        <pt x="78" y="158" on="1"/>
        <pt x="75" y="206" on="0"/>
        <pt x="75" y="248" on="1"/>
        <pt x="75" y="308" on="1"/>
        <pt x="75" y="361" on="0"/>
        <pt x="83" y="407" on="0"/>
        <pt x="91" y="448" on="0"/>
        <pt x="105" y="469" on="0"/>
        <pt x="124" y="497" on="0"/>
        <pt x="151" y="511" on="0"/>
      </contour>
      <contour>
        <pt x="344" y="620" on="1"/>
        <pt x="321" y="586" on="1"/>
        <pt x="133" y="689" on="1"/>
        <pt x="179" y="756" on="1"/>
      </contour>
    </TTGlyph>
    <TTGlyph name="eight" xMin="51" yMin="-13" xMax="448" yMax="658">
      <contour>
        <pt x="76" y="287" on="1"/>
        <pt x="89" y="303" on="0"/>
        <pt x="110" y="312" on="1"/>
        <pt x="82" y="328" on="0"/>
        <pt x="55" y="388" on="0"/>
        <pt x="51" y="435" on="0"/>
        <pt x="51" y="519" on="0"/>
        <pt x="66" y="575" on="0"/>
        <pt x="86" y="602" on="1"/>
        <pt x="125" y="658" on="0"/>
        <pt x="252" y="658" on="1"/>
        <pt x="448" y="658" on="0"/>
        <pt x="448" y="501" on="1"/>
        <pt x="448" y="356" on="0"/>
        <pt x="393" y="325" on="1"/>
        <pt x="432" y="301" on="0"/>
        <pt x="442" y="251" on="1"/>
        <pt x="448" y="215" on="0"/>
        <pt x="448" y="135" on="0"/>
        <pt x="444" y="95" on="0"/>
        <pt x="422" y="42" on="0"/>
        <pt x="402" y="26" on="1"/>
        <pt x="352" y="-12" on="0"/>
        <pt x="137" y="-12" on="0"/>
        <pt x="51" y="81" on="0"/>
        <pt x="51" y="256" on="0"/>
      </contour>
      <contour>
        <pt x="139" y="523" on="1"/>
        <pt x="139" y="423" on="1"/>
        <pt x="139" y="378" on="0"/>
        <pt x="209" y="365" on="1"/>
        <pt x="360" y="337" on="1"/>
        <pt x="360" y="523" on="1"/>
        <pt x="360" y="587" on="0"/>
        <pt x="252" y="587" on="1"/>
        <pt x="171" y="587" on="0"/>
        <pt x="148" y="551" on="1"/>
        <pt x="139" y="538" on="0"/>
      </contour>
      <contour>
        <pt x="360" y="123" on="1"/>
        <pt x="360" y="219" on="1"/>
        <pt x="360" y="264" on="0"/>
        <pt x="290" y="277" on="1"/>
        <pt x="139" y="305" on="1"/>
        <pt x="139" y="123" on="1"/>
        <pt x="139" y="79" on="0"/>
        <pt x="198" y="64" on="1"/>
        <pt x="221" y="59" on="0"/>
        <pt x="252" y="59" on="1"/>
        <pt x="360" y="59" on="0"/>
      </contour>
    </TTGlyph>
    <TTGlyph name="eightinferior" xMin="51" yMin="-6" xMax="278" yMax="354">
      <contour>
        <pt x="101" y="-6" on="0"/>
        <pt x="51" y="46" on="0"/>
        <pt x="51" y="151" on="0"/>
        <pt x="77" y="169" on="1"/>
        <pt x="51" y="191" on="0"/>
        <pt x="51" y="301" on="0"/>
        <pt x="98" y="354" on="0"/>
        <pt x="167" y="354" on="1"/>
        <pt x="278" y="354" on="0"/>
        <pt x="278" y="266" on="1"/>
        <pt x="278" y="198" on="0"/>
        <pt x="255" y="175" on="1"/>
        <pt x="278" y="154" on="0"/>
        <pt x="278" y="92" on="1"/>
        <pt x="278" y="20" on="0"/>
        <pt x="229" y="2" on="1"/>
        <pt x="205" y="-6" on="0"/>
        <pt x="167" y="-6" on="1"/>
      </contour>
      <contour>
        <pt x="114" y="276" on="1"/>
        <pt x="114" y="225" on="1"/>
        <pt x="114" y="209" on="0"/>
        <pt x="146" y="203" on="1"/>
        <pt x="216" y="190" on="1"/>
        <pt x="216" y="276" on="1"/>
        <pt x="216" y="302" on="0"/>
        <pt x="114" y="302" on="0"/>
      </contour>
      <contour>
        <pt x="216" y="71" on="1"/>
        <pt x="216" y="120" on="1"/>
        <pt x="216" y="138" on="0"/>
        <pt x="185" y="143" on="1"/>
        <pt x="114" y="155" on="1"/>
        <pt x="114" y="71" on="1"/>
        <pt x="114" y="46" on="0"/>
        <pt x="216" y="46" on="0"/>
      </contour>
    </TTGlyph>
    <TTGlyph name="ellipsis" xMin="64" yMin="-12" xMax="658" yMax="99">
      <contour>
        <pt x="104" y="99" on="0"/>
        <pt x="138" y="99" on="0"/>
        <pt x="153" y="97" on="0"/>
        <pt x="171" y="87" on="0"/>
        <pt x="178" y="64" on="0"/>
        <pt x="178" y="24" on="0"/>
        <pt x="171" y="0" on="0"/>
        <pt x="153" y="-10" on="0"/>
        <pt x="138" y="-12" on="0"/>
        <pt x="104" y="-12" on="0"/>
        <pt x="89" y="-10" on="0"/>
        <pt x="71" y="0" on="0"/>
        <pt x="64" y="24" on="0"/>
        <pt x="64" y="64" on="0"/>
        <pt x="71" y="87" on="0"/>
        <pt x="89" y="97" on="0"/>
      </contour>
      <contour>
        <pt x="344" y="99" on="0"/>
        <pt x="378" y="99" on="0"/>
        <pt x="393" y="97" on="0"/>
        <pt x="411" y="87" on="0"/>
        <pt x="418" y="64" on="0"/>
        <pt x="418" y="24" on="0"/>
        <pt x="411" y="0" on="0"/>
        <pt x="393" y="-10" on="0"/>
        <pt x="378" y="-12" on="0"/>
        <pt x="344" y="-12" on="0"/>
        <pt x="329" y="-10" on="0"/>
        <pt x="311" y="0" on="0"/>
        <pt x="304" y="24" on="0"/>
        <pt x="304" y="64" on="0"/>
        <pt x="311" y="87" on="0"/>
        <pt x="329" y="97" on="0"/>
      </contour>
      <contour>
        <pt x="584" y="99" on="0"/>
        <pt x="618" y="99" on="0"/>
        <pt x="633" y="97" on="0"/>
        <pt x="651" y="87" on="0"/>
        <pt x="658" y="64" on="0"/>
        <pt x="658" y="24" on="0"/>
        <pt x="651" y="0" on="0"/>
        <pt x="633" y="-10" on="0"/>
        <pt x="618" y="-12" on="0"/>
        <pt x="584" y="-12" on="0"/>
        <pt x="569" y="-10" on="0"/>
        <pt x="551" y="0" on="0"/>
        <pt x="544" y="24" on="0"/>
        <pt x="544" y="64" on="0"/>
        <pt x="551" y="87" on="0"/>
        <pt x="569" y="97" on="0"/>
      </contour>
    </TTGlyph>
    <TTGlyph name="emdash" xMin="0" yMin="267" xMax="726" yMax="332">
      <contour>
        <pt x="0" y="267" on="1"/>
        <pt x="0" y="332" on="1"/>
        <pt x="726" y="332" on="1"/>
        <pt x="726" y="267" on="1"/>
      </contour>
    </TTGlyph>
    <TTGlyph name="endash" xMin="0" yMin="267" xMax="592" yMax="332">
      <contour>
        <pt x="0" y="267" on="1"/>
        <pt x="0" y="332" on="1"/>
        <pt x="592" y="332" on="1"/>
        <pt x="592" y="267" on="1"/>
      </contour>
    </TTGlyph>
    <TTGlyph name="equal" xMin="60" yMin="182" xMax="440" yMax="452">
      <contour>
        <pt x="60" y="382" on="1"/>
        <pt x="60" y="452" on="1"/>
        <pt x="440" y="452" on="1"/>
        <pt x="440" y="382" on="1"/>
      </contour>
      <contour>
        <pt x="60" y="182" on="1"/>
        <pt x="60" y="252" on="1"/>
        <pt x="440" y="252" on="1"/>
        <pt x="440" y="182" on="1"/>
      </contour>
    </TTGlyph>
    <TTGlyph name="eslash" xMin="59" yMin="231" xMax="338" yMax="416">
      <contour>
        <pt x="89" y="231" on="1"/>
        <pt x="59" y="289" on="1"/>
        <pt x="308" y="416" on="1"/>
        <pt x="338" y="358" on="1"/>
      </contour>
    </TTGlyph>
    <TTGlyph name="eth" xMin="75" yMin="-12" xMax="499" yMax="761">
      <contour>
        <pt x="438" y="452" on="1"/>
        <pt x="438" y="190" on="1"/>
        <pt x="438" y="137" on="0"/>
        <pt x="428" y="92" on="0"/>
        <pt x="416" y="51" on="0"/>
        <pt x="398" y="32" on="0"/>
        <pt x="370" y="7" on="0"/>
        <pt x="334" y="-4" on="0"/>
        <pt x="286" y="-12" on="0"/>
        <pt x="226" y="-12" on="0"/>
        <pt x="178" y="-4" on="0"/>
        <pt x="142" y="7" on="0"/>
        <pt x="115" y="32" on="0"/>
        <pt x="97" y="51" on="0"/>
        <pt x="85" y="92" on="0"/>
        <pt x="79" y="119" on="0"/>
        <pt x="75" y="174" on="0"/>
        <pt x="75" y="190" on="1"/>
        <pt x="75" y="285" on="1"/>
        <pt x="75" y="341" on="0"/>
        <pt x="82" y="375" on="0"/>
        <pt x="91" y="415" on="0"/>
        <pt x="104" y="433" on="0"/>
        <pt x="124" y="460" on="0"/>
        <pt x="150" y="473" on="0"/>
        <pt x="168" y="480" on="1"/>
        <pt x="198" y="491" on="0"/>
        <pt x="317" y="491" on="0"/>
        <pt x="357" y="475" on="1"/>
        <pt x="355" y="539" on="0"/>
        <pt x="340" y="581" on="1"/>
        <pt x="250" y="535" on="1"/>
        <pt x="220" y="593" on="1"/>
        <pt x="306" y="637" on="1"/>
        <pt x="271" y="678" on="0"/>
        <pt x="207" y="702" on="1"/>
        <pt x="234" y="761" on="1"/>
        <pt x="327" y="725" on="0"/>
        <pt x="373" y="671" on="1"/>
        <pt x="469" y="720" on="1"/>
        <pt x="499" y="662" on="1"/>
        <pt x="408" y="615" on="1"/>
        <pt x="438" y="550" on="0"/>
      </contour>
      <contour>
        <pt x="353" y="145" on="1"/>
        <pt x="353" y="334" on="1"/>
        <pt x="353" y="359" on="0"/>
        <pt x="349" y="383" on="0"/>
        <pt x="333" y="414" on="0"/>
        <pt x="291" y="426" on="0"/>
        <pt x="221" y="426" on="0"/>
        <pt x="178" y="414" on="0"/>
        <pt x="162" y="383" on="0"/>
        <pt x="158" y="359" on="0"/>
        <pt x="158" y="334" on="1"/>
        <pt x="158" y="145" on="1"/>
        <pt x="158" y="120" on="0"/>
        <pt x="162" y="96" on="0"/>
        <pt x="178" y="65" on="0"/>
        <pt x="221" y="53" on="0"/>
        <pt x="291" y="53" on="0"/>
        <pt x="333" y="65" on="0"/>
        <pt x="349" y="96" on="0"/>
        <pt x="353" y="120" on="0"/>
      </contour>
    </TTGlyph>
    <TTGlyph name="exclam" xMin="90" yMin="-12" xMax="204" yMax="696">
      <contour>
        <pt x="130" y="99" on="0"/>
        <pt x="164" y="99" on="0"/>
        <pt x="179" y="97" on="0"/>
        <pt x="197" y="87" on="0"/>
        <pt x="204" y="64" on="0"/>
        <pt x="204" y="24" on="0"/>
        <pt x="197" y="0" on="0"/>
        <pt x="179" y="-10" on="0"/>
        <pt x="164" y="-12" on="0"/>
        <pt x="130" y="-12" on="0"/>
        <pt x="115" y="-10" on="0"/>
        <pt x="97" y="0" on="0"/>
        <pt x="90" y="24" on="0"/>
        <pt x="90" y="64" on="0"/>
        <pt x="97" y="87" on="0"/>
        <pt x="115" y="97" on="0"/>
      </contour>
      <contour>
        <pt x="180" y="179" on="1"/>
        <pt x="114" y="179" on="1"/>
        <pt x="102" y="696" on="1"/>
        <pt x="192" y="696" on="1"/>
      </contour>
    </TTGlyph>
    <TTGlyph name="exclamdown" xMin="76" yMin="-178" xMax="190" yMax="530">
      <contour>
        <pt x="150" y="419" on="0"/>
        <pt x="116" y="419" on="0"/>
        <pt x="101" y="421" on="0"/>
        <pt x="83" y="431" on="0"/>
        <pt x="76" y="454" on="0"/>
        <pt x="76" y="494" on="0"/>
        <pt x="83" y="518" on="0"/>
        <pt x="101" y="528" on="0"/>
        <pt x="116" y="530" on="0"/>
        <pt x="150" y="530" on="0"/>
        <pt x="165" y="528" on="0"/>
        <pt x="183" y="518" on="0"/>
        <pt x="190" y="494" on="0"/>
        <pt x="190" y="454" on="0"/>
        <pt x="183" y="431" on="0"/>
        <pt x="165" y="421" on="0"/>
      </contour>
      <contour>
        <pt x="100" y="339" on="1"/>
        <pt x="166" y="339" on="1"/>
        <pt x="178" y="-178" on="1"/>
        <pt x="88" y="-178" on="1"/>
      </contour>
    </TTGlyph>
    <TTGlyph name="f" xMin="50" yMin="0" xMax="329" yMax="729">
      <contour>
        <pt x="283" y="672" on="1"/>
        <pt x="239" y="672" on="0"/>
        <pt x="201" y="621" on="0"/>
        <pt x="201" y="554" on="1"/>
        <pt x="201" y="520" on="1"/>
        <pt x="295" y="520" on="1"/>
        <pt x="295" y="461" on="1"/>
        <pt x="201" y="461" on="1"/>
        <pt x="201" y="0" on="1"/>
        <pt x="119" y="0" on="1"/>
        <pt x="119" y="461" on="1"/>
        <pt x="50" y="461" on="1"/>
        <pt x="50" y="505" on="1"/>
        <pt x="119" y="519" on="1"/>
        <pt x="122" y="653" on="0"/>
        <pt x="158" y="692" on="1"/>
        <pt x="191" y="729" on="0"/>
        <pt x="256" y="729" on="1"/>
        <pt x="284" y="729" on="0"/>
        <pt x="329" y="721" on="1"/>
        <pt x="323" y="669" on="1"/>
        <pt x="300" y="672" on="0"/>
      </contour>
    </TTGlyph>
    <TTGlyph name="fi" xMin="50" yMin="0" xMax="504" yMax="729">
      <contour>
        <pt x="283" y="672" on="1"/>
        <pt x="239" y="672" on="0"/>
        <pt x="201" y="621" on="0"/>
        <pt x="201" y="554" on="1"/>
        <pt x="201" y="520" on="1"/>
        <pt x="295" y="520" on="1"/>
        <pt x="295" y="461" on="1"/>
        <pt x="201" y="461" on="1"/>
        <pt x="201" y="0" on="1"/>
        <pt x="119" y="0" on="1"/>
        <pt x="119" y="461" on="1"/>
        <pt x="50" y="461" on="1"/>
        <pt x="50" y="505" on="1"/>
        <pt x="119" y="519" on="1"/>
        <pt x="122" y="653" on="0"/>
        <pt x="158" y="692" on="1"/>
        <pt x="191" y="729" on="0"/>
        <pt x="256" y="729" on="1"/>
        <pt x="284" y="729" on="0"/>
        <pt x="329" y="721" on="1"/>
        <pt x="323" y="669" on="1"/>
        <pt x="300" y="672" on="0"/>
      </contour>
      <contour>
        <pt x="411" y="520" on="1"/>
        <pt x="493" y="520" on="1"/>
        <pt x="493" y="0" on="1"/>
        <pt x="411" y="0" on="1"/>
      </contour>
      <contour>
        <pt x="437" y="717" on="0"/>
        <pt x="467" y="717" on="0"/>
        <pt x="481" y="715" on="0"/>
        <pt x="490" y="710" on="1"/>
        <pt x="504" y="703" on="0"/>
        <pt x="504" y="648" on="0"/>
        <pt x="498" y="627" on="0"/>
        <pt x="481" y="618" on="0"/>
        <pt x="467" y="616" on="0"/>
        <pt x="437" y="616" on="0"/>
        <pt x="423" y="618" on="0"/>
        <pt x="414" y="622" on="1"/>
        <pt x="400" y="630" on="0"/>
        <pt x="400" y="685" on="0"/>
        <pt x="406" y="706" on="0"/>
        <pt x="423" y="715" on="0"/>
      </contour>
    </TTGlyph>
    <TTGlyph name="five" xMin="60" yMin="-10" xMax="439" yMax="650">
      <contour>
        <pt x="439" y="184" on="1"/>
        <pt x="439" y="146" on="0"/>
        <pt x="425" y="84" on="0"/>
        <pt x="405" y="54" on="1"/>
        <pt x="363" y="-10" on="0"/>
        <pt x="235" y="-10" on="1"/>
        <pt x="135" y="-10" on="0"/>
        <pt x="60" y="21" on="1"/>
        <pt x="84" y="83" on="1"/>
        <pt x="171" y="63" on="0"/>
        <pt x="276" y="63" on="0"/>
        <pt x="326" y="79" on="0"/>
        <pt x="346" y="116" on="0"/>
        <pt x="350" y="142" on="0"/>
        <pt x="350" y="189" on="0"/>
        <pt x="349" y="212" on="0"/>
        <pt x="340" y="250" on="0"/>
        <pt x="332" y="260" on="1"/>
        <pt x="310" y="287" on="0"/>
        <pt x="265" y="291" on="1"/>
        <pt x="124" y="302" on="1"/>
        <pt x="86" y="340" on="1"/>
        <pt x="86" y="650" on="1"/>
        <pt x="405" y="650" on="1"/>
        <pt x="405" y="580" on="1"/>
        <pt x="166" y="580" on="1"/>
        <pt x="166" y="369" on="1"/>
        <pt x="270" y="361" on="1"/>
        <pt x="373" y="353" on="0"/>
        <pt x="409" y="300" on="1"/>
        <pt x="439" y="254" on="0"/>
      </contour>
    </TTGlyph>
    <TTGlyph name="fiveinferior" xMin="53" yMin="-5" xMax="274" yMax="349">
      <contour>
        <pt x="234" y="195" on="0"/>
        <pt x="274" y="145" on="0"/>
        <pt x="274" y="54" on="0"/>
        <pt x="227" y="-5" on="0"/>
        <pt x="157" y="-5" on="1"/>
        <pt x="110" y="-5" on="0"/>
        <pt x="53" y="15" on="1"/>
        <pt x="67" y="58" on="1"/>
        <pt x="119" y="48" on="0"/>
        <pt x="182" y="48" on="0"/>
        <pt x="208" y="66" on="0"/>
        <pt x="211" y="83" on="0"/>
        <pt x="211" y="113" on="0"/>
        <pt x="208" y="129" on="0"/>
        <pt x="191" y="147" on="0"/>
        <pt x="173" y="149" on="1"/>
        <pt x="87" y="158" on="1"/>
        <pt x="70" y="179" on="1"/>
        <pt x="70" y="349" on="1"/>
        <pt x="256" y="349" on="1"/>
        <pt x="256" y="298" on="1"/>
        <pt x="128" y="298" on="1"/>
        <pt x="128" y="206" on="1"/>
        <pt x="176" y="201" on="1"/>
      </contour>
    </TTGlyph>
    <TTGlyph name="fl" xMin="50" yMin="0" xMax="493" yMax="729">
      <contour>
        <pt x="283" y="672" on="1"/>
        <pt x="239" y="672" on="0"/>
        <pt x="201" y="621" on="0"/>
        <pt x="201" y="554" on="1"/>
        <pt x="201" y="520" on="1"/>
        <pt x="295" y="520" on="1"/>
        <pt x="295" y="461" on="1"/>
        <pt x="201" y="461" on="1"/>
        <pt x="201" y="0" on="1"/>
        <pt x="119" y="0" on="1"/>
        <pt x="119" y="461" on="1"/>
        <pt x="50" y="461" on="1"/>
        <pt x="50" y="505" on="1"/>
        <pt x="119" y="519" on="1"/>
        <pt x="122" y="653" on="0"/>
        <pt x="158" y="692" on="1"/>
        <pt x="191" y="729" on="0"/>
        <pt x="256" y="729" on="1"/>
        <pt x="284" y="729" on="0"/>
        <pt x="329" y="721" on="1"/>
        <pt x="323" y="669" on="1"/>
        <pt x="300" y="672" on="0"/>
      </contour>
      <contour>
        <pt x="493" y="0" on="1"/>
        <pt x="411" y="0" on="1"/>
        <pt x="411" y="720" on="1"/>
        <pt x="493" y="720" on="1"/>
      </contour>
    </TTGlyph>
    <TTGlyph name="florin" xMin="66" yMin="-103" xMax="464" yMax="658">
      <contour>
        <pt x="88" y="288" on="1"/>
        <pt x="88" y="348" on="1"/>
        <pt x="204" y="348" on="1"/>
        <pt x="192" y="451" on="0"/>
        <pt x="192" y="489" on="1"/>
        <pt x="192" y="567" on="0"/>
        <pt x="284" y="658" on="0"/>
        <pt x="374" y="658" on="1"/>
        <pt x="424" y="658" on="0"/>
        <pt x="464" y="644" on="1"/>
        <pt x="446" y="584" on="1"/>
        <pt x="398" y="589" on="0"/>
        <pt x="323" y="589" on="0"/>
        <pt x="272" y="546" on="0"/>
        <pt x="272" y="486" on="1"/>
        <pt x="272" y="449" on="0"/>
        <pt x="284" y="348" on="1"/>
        <pt x="424" y="348" on="1"/>
        <pt x="424" y="288" on="1"/>
        <pt x="291" y="288" on="1"/>
        <pt x="314" y="98" on="0"/>
        <pt x="314" y="65" on="1"/>
        <pt x="314" y="-13" on="0"/>
        <pt x="222" y="-103" on="0"/>
        <pt x="132" y="-103" on="1"/>
        <pt x="107" y="-103" on="0"/>
        <pt x="66" y="-90" on="1"/>
        <pt x="84" y="-29" on="1"/>
        <pt x="114" y="-34" on="0"/>
        <pt x="134" y="-34" on="1"/>
        <pt x="183" y="-34" on="0"/>
        <pt x="234" y="8" on="0"/>
        <pt x="234" y="68" on="1"/>
        <pt x="234" y="98" on="0"/>
        <pt x="211" y="288" on="1"/>
      </contour>
    </TTGlyph>
    <TTGlyph name="four" xMin="30" yMin="0" xMax="469" yMax="650">
      <contour>
        <pt x="396" y="440" on="1"/>
        <pt x="396" y="228" on="1"/>
        <pt x="469" y="228" on="1"/>
        <pt x="469" y="158" on="1"/>
        <pt x="396" y="158" on="1"/>
        <pt x="396" y="0" on="1"/>
        <pt x="316" y="0" on="1"/>
        <pt x="316" y="158" on="1"/>
        <pt x="30" y="158" on="1"/>
        <pt x="30" y="221" on="1"/>
        <pt x="173" y="650" on="1"/>
        <pt x="253" y="650" on="1"/>
        <pt x="112" y="228" on="1"/>
        <pt x="316" y="228" on="1"/>
        <pt x="316" y="354" on="1"/>
        <pt x="341" y="440" on="1"/>
      </contour>
    </TTGlyph>
    <TTGlyph name="fourinferior" xMin="40" yMin="0" xMax="290" yMax="349">
      <contour>
        <pt x="251" y="242" on="1"/>
        <pt x="251" y="133" on="1"/>
        <pt x="290" y="133" on="1"/>
        <pt x="290" y="81" on="1"/>
        <pt x="251" y="81" on="1"/>
        <pt x="251" y="0" on="1"/>
        <pt x="193" y="0" on="1"/>
        <pt x="193" y="81" on="1"/>
        <pt x="40" y="81" on="1"/>
        <pt x="40" y="124" on="1"/>
        <pt x="118" y="349" on="1"/>
        <pt x="179" y="349" on="1"/>
        <pt x="104" y="133" on="1"/>
        <pt x="193" y="133" on="1"/>
        <pt x="193" y="192" on="1"/>
        <pt x="209" y="242" on="1"/>
      </contour>
    </TTGlyph>
    <TTGlyph name="fraction" xMin="45" yMin="0" xMax="265" yMax="646">
      <contour>
        <pt x="90" y="0" on="1"/>
        <pt x="45" y="0" on="1"/>
        <pt x="220" y="646" on="1"/>
        <pt x="265" y="646" on="1"/>
      </contour>
    </TTGlyph>
    <TTGlyph name="g" xMin="75" yMin="-194" xMax="429" yMax="531">
      <contour>
        <pt x="342" y="161" on="1"/>
        <pt x="342" y="455" on="1"/>
        <pt x="287" y="466" on="0"/>
        <pt x="192" y="466" on="0"/>
        <pt x="159" y="428" on="0"/>
        <pt x="159" y="372" on="1"/>
        <pt x="159" y="163" on="1"/>
        <pt x="159" y="114" on="0"/>
        <pt x="189" y="74" on="0"/>
        <pt x="302" y="74" on="0"/>
        <pt x="342" y="119" on="0"/>
      </contour>
      <contour>
        <pt x="347" y="-39" on="1"/>
        <pt x="347" y="49" on="1"/>
        <pt x="305" y="10" on="0"/>
        <pt x="128" y="10" on="0"/>
        <pt x="75" y="124" on="0"/>
        <pt x="75" y="259" on="1"/>
        <pt x="75" y="398" on="0"/>
        <pt x="90" y="438" on="1"/>
        <pt x="109" y="492" on="0"/>
        <pt x="139" y="508" on="1"/>
        <pt x="184" y="531" on="0"/>
        <pt x="330" y="531" on="0"/>
        <pt x="429" y="502" on="1"/>
        <pt x="429" y="-36" on="1"/>
        <pt x="429" y="-76" on="0"/>
        <pt x="418" y="-127" on="0"/>
        <pt x="402" y="-150" on="1"/>
        <pt x="371" y="-194" on="0"/>
        <pt x="181" y="-194" on="0"/>
        <pt x="103" y="-156" on="1"/>
        <pt x="119" y="-106" on="1"/>
        <pt x="187" y="-128" on="0"/>
        <pt x="303" y="-128" on="0"/>
        <pt x="347" y="-91" on="0"/>
      </contour>
    </TTGlyph>
    <TTGlyph name="germandbls" xMin="50" yMin="-12" xMax="530" yMax="729">
      <contour>
        <pt x="251" y="68" on="1"/>
        <pt x="293" y="53" on="0"/>
        <pt x="382" y="53" on="0"/>
        <pt x="421" y="64" on="0"/>
        <pt x="440" y="102" on="0"/>
        <pt x="443" y="139" on="0"/>
        <pt x="443" y="204" on="0"/>
        <pt x="442" y="227" on="0"/>
        <pt x="438" y="269" on="0"/>
        <pt x="426" y="295" on="0"/>
        <pt x="416" y="310" on="1"/>
        <pt x="398" y="338" on="0"/>
        <pt x="353" y="342" on="1"/>
        <pt x="251" y="352" on="1"/>
        <pt x="251" y="410" on="1"/>
        <pt x="331" y="410" on="1"/>
        <pt x="386" y="410" on="0"/>
        <pt x="400" y="436" on="1"/>
        <pt x="406" y="448" on="0"/>
        <pt x="413" y="466" on="0"/>
        <pt x="414" y="487" on="1"/>
        <pt x="416" y="529" on="0"/>
        <pt x="416" y="591" on="0"/>
        <pt x="412" y="615" on="0"/>
        <pt x="394" y="646" on="0"/>
        <pt x="348" y="658" on="0"/>
        <pt x="270" y="658" on="0"/>
        <pt x="224" y="646" on="0"/>
        <pt x="205" y="615" on="0"/>
        <pt x="201" y="591" on="0"/>
        <pt x="201" y="566" on="1"/>
        <pt x="201" y="0" on="1"/>
        <pt x="119" y="0" on="1"/>
        <pt x="119" y="461" on="1"/>
        <pt x="50" y="461" on="1"/>
        <pt x="50" y="505" on="1"/>
        <pt x="119" y="519" on="1"/>
        <pt x="120" y="574" on="0"/>
        <pt x="134" y="642" on="0"/>
        <pt x="153" y="672" on="1"/>
        <pt x="189" y="729" on="0"/>
        <pt x="310" y="729" on="1"/>
        <pt x="426" y="729" on="0"/>
        <pt x="466" y="676" on="1"/>
        <pt x="480" y="658" on="0"/>
        <pt x="494" y="629" on="0"/>
        <pt x="498" y="603" on="1"/>
        <pt x="502" y="570" on="0"/>
        <pt x="502" y="459" on="0"/>
        <pt x="459" y="396" on="0"/>
        <pt x="414" y="376" on="1"/>
        <pt x="414" y="370" on="1"/>
        <pt x="473" y="352" on="0"/>
        <pt x="530" y="268" on="0"/>
        <pt x="530" y="186" on="1"/>
        <pt x="530" y="77" on="0"/>
        <pt x="443" y="-12" on="0"/>
        <pt x="340" y="-12" on="1"/>
        <pt x="280" y="-12" on="0"/>
        <pt x="232" y="13" on="1"/>
      </contour>
    </TTGlyph>
    <TTGlyph name="grave" xMin="94" yMin="586" xMax="305" yMax="756">
      <contour>
        <pt x="305" y="620" on="1"/>
        <pt x="282" y="586" on="1"/>
        <pt x="94" y="689" on="1"/>
        <pt x="140" y="756" on="1"/>
      </contour>
    </TTGlyph>
    <TTGlyph name="grave.case" xMin="94" yMin="731" xMax="305" yMax="901">
      <contour>
        <pt x="305" y="765" on="1"/>
        <pt x="282" y="731" on="1"/>
        <pt x="94" y="834" on="1"/>
        <pt x="140" y="901" on="1"/>
      </contour>
    </TTGlyph>
    <TTGlyph name="greater" xMin="60" yMin="122" xMax="440" yMax="512">
      <contour>
        <pt x="440" y="352" on="1"/>
        <pt x="440" y="282" on="1"/>
        <pt x="60" y="122" on="1"/>
        <pt x="60" y="192" on="1"/>
        <pt x="362" y="317" on="1"/>
        <pt x="60" y="442" on="1"/>
        <pt x="60" y="512" on="1"/>
      </contour>
    </TTGlyph>
    <TTGlyph name="greaterequal" xMin="60" yMin="0" xMax="440" yMax="512">
      <contour>
        <pt x="440" y="352" on="1"/>
        <pt x="440" y="282" on="1"/>
        <pt x="60" y="122" on="1"/>
        <pt x="60" y="192" on="1"/>
        <pt x="362" y="317" on="1"/>
        <pt x="60" y="442" on="1"/>
        <pt x="60" y="512" on="1"/>
      </contour>
      <contour>
        <pt x="60" y="0" on="1"/>
        <pt x="60" y="70" on="1"/>
        <pt x="440" y="70" on="1"/>
        <pt x="440" y="0" on="1"/>
      </contour>
    </TTGlyph>
    <TTGlyph name="guillemotleft" xMin="30" yMin="84" xMax="390" yMax="532">
      <contour>
        <pt x="190" y="520" on="1"/>
        <pt x="115" y="308" on="1"/>
        <pt x="190" y="96" on="1"/>
        <pt x="119" y="84" on="1"/>
        <pt x="30" y="308" on="1"/>
        <pt x="119" y="532" on="1"/>
      </contour>
      <contour>
        <pt x="390" y="520" on="1"/>
        <pt x="315" y="308" on="1"/>
        <pt x="390" y="96" on="1"/>
        <pt x="319" y="84" on="1"/>
        <pt x="230" y="308" on="1"/>
        <pt x="319" y="532" on="1"/>
      </contour>
    </TTGlyph>
    <TTGlyph name="guillemotright" xMin="50" yMin="84" xMax="410" yMax="532">
      <contour>
        <pt x="325" y="308" on="1"/>
        <pt x="250" y="520" on="1"/>
        <pt x="321" y="532" on="1"/>
        <pt x="410" y="308" on="1"/>
        <pt x="321" y="84" on="1"/>
        <pt x="250" y="96" on="1"/>
      </contour>
      <contour>
        <pt x="125" y="308" on="1"/>
        <pt x="50" y="520" on="1"/>
        <pt x="121" y="532" on="1"/>
        <pt x="210" y="308" on="1"/>
        <pt x="121" y="84" on="1"/>
        <pt x="50" y="96" on="1"/>
      </contour>
    </TTGlyph>
    <TTGlyph name="guilsinglleft" xMin="30" yMin="84" xMax="190" yMax="532">
      <contour>
        <pt x="190" y="520" on="1"/>
        <pt x="115" y="308" on="1"/>
        <pt x="190" y="96" on="1"/>
        <pt x="119" y="84" on="1"/>
        <pt x="30" y="308" on="1"/>
        <pt x="119" y="532" on="1"/>
      </contour>
    </TTGlyph>
    <TTGlyph name="guilsinglright" xMin="50" yMin="84" xMax="210" yMax="532">
      <contour>
        <pt x="125" y="308" on="1"/>
        <pt x="50" y="520" on="1"/>
        <pt x="121" y="532" on="1"/>
        <pt x="210" y="308" on="1"/>
        <pt x="121" y="84" on="1"/>
        <pt x="50" y="96" on="1"/>
      </contour>
    </TTGlyph>
    <TTGlyph name="h" xMin="90" yMin="0" xMax="437" yMax="720">
      <contour>
        <pt x="437" y="360" on="1"/>
        <pt x="437" y="0" on="1"/>
        <pt x="355" y="0" on="1"/>
        <pt x="355" y="371" on="1"/>
        <pt x="355" y="420" on="0"/>
        <pt x="325" y="460" on="0"/>
        <pt x="212" y="460" on="0"/>
        <pt x="172" y="415" on="0"/>
        <pt x="172" y="373" on="1"/>
        <pt x="172" y="0" on="1"/>
        <pt x="90" y="0" on="1"/>
        <pt x="90" y="720" on="1"/>
        <pt x="167" y="720" on="1"/>
        <pt x="167" y="475" on="1"/>
        <pt x="214" y="525" on="0"/>
        <pt x="302" y="525" on="1"/>
        <pt x="387" y="525" on="0"/>
        <pt x="414" y="474" on="1"/>
        <pt x="437" y="431" on="0"/>
      </contour>
    </TTGlyph>
    <TTGlyph name="hungarumlaut" xMin="35" yMin="586" xMax="430" yMax="755">
      <contour>
        <pt x="62" y="586" on="1"/>
        <pt x="35" y="619" on="1"/>
        <pt x="180" y="755" on="1"/>
        <pt x="230" y="689" on="1"/>
      </contour>
      <contour>
        <pt x="262" y="586" on="1"/>
        <pt x="235" y="619" on="1"/>
        <pt x="380" y="755" on="1"/>
        <pt x="430" y="689" on="1"/>
      </contour>
    </TTGlyph>
    <TTGlyph name="hungarumlaut.case" xMin="35" yMin="731" xMax="430" yMax="900">
      <contour>
        <pt x="62" y="731" on="1"/>
        <pt x="35" y="764" on="1"/>
        <pt x="180" y="900" on="1"/>
        <pt x="230" y="834" on="1"/>
      </contour>
      <contour>
        <pt x="262" y="731" on="1"/>
        <pt x="235" y="764" on="1"/>
        <pt x="380" y="900" on="1"/>
        <pt x="430" y="834" on="1"/>
      </contour>
    </TTGlyph>
    <TTGlyph name="hyphen" xMin="40" yMin="267" xMax="353" yMax="332">
      <contour>
        <pt x="40" y="267" on="1"/>
        <pt x="40" y="332" on="1"/>
        <pt x="353" y="332" on="1"/>
        <pt x="353" y="267" on="1"/>
      </contour>
    </TTGlyph>
    <TTGlyph name="i" xMin="79" yMin="0" xMax="183" yMax="717">
      <contour>
        <pt x="90" y="520" on="1"/>
        <pt x="172" y="520" on="1"/>
        <pt x="172" y="0" on="1"/>
        <pt x="90" y="0" on="1"/>
      </contour>
      <contour>
        <pt x="116" y="717" on="0"/>
        <pt x="146" y="717" on="0"/>
        <pt x="160" y="715" on="0"/>
        <pt x="168" y="710" on="1"/>
        <pt x="183" y="703" on="0"/>
        <pt x="183" y="648" on="0"/>
        <pt x="177" y="627" on="0"/>
        <pt x="160" y="618" on="0"/>
        <pt x="146" y="616" on="0"/>
        <pt x="116" y="616" on="0"/>
        <pt x="102" y="618" on="0"/>
        <pt x="94" y="622" on="1"/>
        <pt x="79" y="630" on="0"/>
        <pt x="79" y="685" on="0"/>
        <pt x="85" y="706" on="0"/>
        <pt x="102" y="715" on="0"/>
      </contour>
    </TTGlyph>
    <TTGlyph name="iacute" xMin="36" yMin="0" xMax="247" yMax="756">
      <contour>
        <pt x="59" y="586" on="1"/>
        <pt x="36" y="620" on="1"/>
        <pt x="201" y="756" on="1"/>
        <pt x="247" y="689" on="1"/>
      </contour>
      <contour>
        <pt x="90" y="520" on="1"/>
        <pt x="172" y="520" on="1"/>
        <pt x="172" y="0" on="1"/>
        <pt x="90" y="0" on="1"/>
      </contour>
    </TTGlyph>
    <TTGlyph name="icircumflex" xMin="-2" yMin="0" xMax="265" yMax="756">
      <contour>
        <pt x="265" y="640" on="1"/>
        <pt x="234" y="603" on="1"/>
        <pt x="131" y="670" on="1"/>
        <pt x="28" y="603" on="1"/>
        <pt x="-2" y="640" on="1"/>
        <pt x="131" y="756" on="1"/>
      </contour>
      <contour>
        <pt x="90" y="520" on="1"/>
        <pt x="172" y="520" on="1"/>
        <pt x="172" y="0" on="1"/>
        <pt x="90" y="0" on="1"/>
      </contour>
    </TTGlyph>
    <TTGlyph name="idieresis" xMin="-11" yMin="0" xMax="273" yMax="717">
      <contour>
        <pt x="26" y="717" on="0"/>
        <pt x="56" y="717" on="0"/>
        <pt x="70" y="715" on="0"/>
        <pt x="78" y="710" on="1"/>
        <pt x="93" y="703" on="0"/>
        <pt x="93" y="648" on="0"/>
        <pt x="87" y="627" on="0"/>
        <pt x="70" y="618" on="0"/>
        <pt x="56" y="616" on="0"/>
        <pt x="26" y="616" on="0"/>
        <pt x="12" y="618" on="0"/>
        <pt x="4" y="622" on="1"/>
        <pt x="-11" y="630" on="0"/>
        <pt x="-11" y="685" on="0"/>
        <pt x="-5" y="706" on="0"/>
        <pt x="12" y="715" on="0"/>
      </contour>
      <contour>
        <pt x="206" y="717" on="0"/>
        <pt x="236" y="717" on="0"/>
        <pt x="250" y="715" on="0"/>
        <pt x="258" y="710" on="1"/>
        <pt x="273" y="703" on="0"/>
        <pt x="273" y="648" on="0"/>
        <pt x="267" y="627" on="0"/>
        <pt x="250" y="618" on="0"/>
        <pt x="236" y="616" on="0"/>
        <pt x="206" y="616" on="0"/>
        <pt x="192" y="618" on="0"/>
        <pt x="184" y="622" on="1"/>
        <pt x="169" y="630" on="0"/>
        <pt x="169" y="685" on="0"/>
        <pt x="175" y="706" on="0"/>
        <pt x="192" y="715" on="0"/>
      </contour>
      <contour>
        <pt x="90" y="520" on="1"/>
        <pt x="172" y="520" on="1"/>
        <pt x="172" y="0" on="1"/>
        <pt x="90" y="0" on="1"/>
      </contour>
    </TTGlyph>
    <TTGlyph name="igrave" xMin="26" yMin="0" xMax="237" yMax="756">
      <contour>
        <pt x="237" y="620" on="1"/>
        <pt x="214" y="586" on="1"/>
        <pt x="26" y="689" on="1"/>
        <pt x="72" y="756" on="1"/>
      </contour>
      <contour>
        <pt x="90" y="520" on="1"/>
        <pt x="172" y="520" on="1"/>
        <pt x="172" y="0" on="1"/>
        <pt x="90" y="0" on="1"/>
      </contour>
    </TTGlyph>
    <TTGlyph name="infinity" xMin="30" yMin="134" xMax="682" yMax="516">
      <contour>
        <pt x="30" y="274" on="0"/>
        <pt x="30" y="376" on="0"/>
        <pt x="51" y="448" on="0"/>
        <pt x="81" y="488" on="0"/>
        <pt x="106" y="499" on="1"/>
        <pt x="145" y="516" on="0"/>
        <pt x="258" y="516" on="0"/>
        <pt x="319" y="474" on="0"/>
        <pt x="354" y="411" on="1"/>
        <pt x="382" y="476" on="0"/>
        <pt x="447" y="516" on="0"/>
        <pt x="536" y="516" on="0"/>
        <pt x="581" y="510" on="0"/>
        <pt x="631" y="488" on="0"/>
        <pt x="661" y="448" on="0"/>
        <pt x="682" y="376" on="0"/>
        <pt x="682" y="274" on="0"/>
        <pt x="661" y="202" on="0"/>
        <pt x="631" y="162" on="0"/>
        <pt x="606" y="151" on="1"/>
        <pt x="567" y="134" on="0"/>
        <pt x="447" y="134" on="0"/>
        <pt x="382" y="174" on="0"/>
        <pt x="354" y="239" on="1"/>
        <pt x="319" y="176" on="0"/>
        <pt x="258" y="134" on="0"/>
        <pt x="176" y="134" on="0"/>
        <pt x="131" y="140" on="0"/>
        <pt x="81" y="162" on="0"/>
        <pt x="51" y="202" on="0"/>
      </contour>
      <contour>
        <pt x="215" y="444" on="1"/>
        <pt x="178" y="444" on="1"/>
        <pt x="108" y="444" on="0"/>
        <pt x="108" y="206" on="0"/>
        <pt x="178" y="206" on="1"/>
        <pt x="215" y="206" on="1"/>
        <pt x="241" y="206" on="0"/>
        <pt x="272" y="226" on="0"/>
        <pt x="286" y="257" on="1"/>
        <pt x="317" y="325" on="1"/>
        <pt x="286" y="393" on="1"/>
        <pt x="272" y="424" on="0"/>
        <pt x="241" y="444" on="0"/>
      </contour>
      <contour>
        <pt x="497" y="206" on="1"/>
        <pt x="534" y="206" on="1"/>
        <pt x="604" y="206" on="0"/>
        <pt x="604" y="444" on="0"/>
        <pt x="534" y="444" on="1"/>
        <pt x="497" y="444" on="1"/>
        <pt x="472" y="444" on="0"/>
        <pt x="442" y="424" on="0"/>
        <pt x="426" y="393" on="1"/>
        <pt x="393" y="325" on="1"/>
        <pt x="426" y="257" on="1"/>
        <pt x="442" y="226" on="0"/>
        <pt x="472" y="206" on="0"/>
      </contour>
    </TTGlyph>
    <TTGlyph name="integral" xMin="0" yMin="-194" xMax="374" yMax="658">
      <contour>
        <pt x="206" y="487" on="1"/>
        <pt x="206" y="451" on="0"/>
        <pt x="248" y="12" on="0"/>
        <pt x="248" y="-26" on="1"/>
        <pt x="248" y="-104" on="0"/>
        <pt x="156" y="-194" on="0"/>
        <pt x="66" y="-194" on="1"/>
        <pt x="41" y="-194" on="0"/>
        <pt x="0" y="-181" on="1"/>
        <pt x="18" y="-120" on="1"/>
        <pt x="48" y="-125" on="0"/>
        <pt x="68" y="-125" on="1"/>
        <pt x="117" y="-125" on="0"/>
        <pt x="168" y="-83" on="0"/>
        <pt x="168" y="-23" on="1"/>
        <pt x="168" y="13" on="0"/>
        <pt x="126" y="452" on="0"/>
        <pt x="126" y="490" on="1"/>
        <pt x="126" y="568" on="0"/>
        <pt x="218" y="658" on="0"/>
        <pt x="308" y="658" on="1"/>
        <pt x="333" y="658" on="0"/>
        <pt x="374" y="645" on="1"/>
        <pt x="356" y="584" on="1"/>
        <pt x="326" y="589" on="0"/>
        <pt x="306" y="589" on="1"/>
        <pt x="257" y="589" on="0"/>
        <pt x="206" y="547" on="0"/>
      </contour>
    </TTGlyph>
    <TTGlyph name="j" xMin="-18" yMin="-194" xMax="183" yMax="717">
      <contour>
        <pt x="116" y="717" on="0"/>
        <pt x="146" y="717" on="0"/>
        <pt x="160" y="715" on="0"/>
        <pt x="168" y="710" on="1"/>
        <pt x="183" y="703" on="0"/>
        <pt x="183" y="648" on="0"/>
        <pt x="177" y="627" on="0"/>
        <pt x="160" y="618" on="0"/>
        <pt x="146" y="616" on="0"/>
        <pt x="116" y="616" on="0"/>
        <pt x="102" y="618" on="0"/>
        <pt x="94" y="622" on="1"/>
        <pt x="79" y="630" on="0"/>
        <pt x="79" y="685" on="0"/>
        <pt x="85" y="706" on="0"/>
        <pt x="102" y="715" on="0"/>
      </contour>
      <contour>
        <pt x="90" y="-54" on="1"/>
        <pt x="90" y="520" on="1"/>
        <pt x="172" y="520" on="1"/>
        <pt x="172" y="-33" on="1"/>
        <pt x="172" y="-131" on="0"/>
        <pt x="144" y="-161" on="1"/>
        <pt x="114" y="-194" on="0"/>
        <pt x="51" y="-194" on="1"/>
        <pt x="13" y="-194" on="0"/>
        <pt x="-18" y="-180" on="1"/>
        <pt x="0" y="-122" on="1"/>
        <pt x="29" y="-130" on="0"/>
        <pt x="74" y="-130" on="0"/>
        <pt x="90" y="-95" on="0"/>
      </contour>
    </TTGlyph>
    <TTGlyph name="k" xMin="90" yMin="0" xMax="440" yMax="720">
      <contour>
        <pt x="172" y="720" on="1"/>
        <pt x="172" y="0" on="1"/>
        <pt x="90" y="0" on="1"/>
        <pt x="90" y="720" on="1"/>
      </contour>
      <contour>
        <pt x="196" y="276" on="1"/>
        <pt x="345" y="520" on="1"/>
        <pt x="432" y="520" on="1"/>
        <pt x="283" y="276" on="1"/>
        <pt x="440" y="0" on="1"/>
        <pt x="353" y="0" on="1"/>
      </contour>
    </TTGlyph>
    <TTGlyph name="l" xMin="90" yMin="0" xMax="172" yMax="720">
      <contour>
        <pt x="172" y="0" on="1"/>
        <pt x="90" y="0" on="1"/>
        <pt x="90" y="720" on="1"/>
        <pt x="172" y="720" on="1"/>
      </contour>
    </TTGlyph>
    <TTGlyph name="less" xMin="60" yMin="122" xMax="440" yMax="512">
      <contour>
        <pt x="60" y="282" on="1"/>
        <pt x="60" y="352" on="1"/>
        <pt x="440" y="512" on="1"/>
        <pt x="440" y="442" on="1"/>
        <pt x="137" y="317" on="1"/>
        <pt x="440" y="192" on="1"/>
        <pt x="440" y="122" on="1"/>
      </contour>
    </TTGlyph>
    <TTGlyph name="lessequal" xMin="60" yMin="0" xMax="440" yMax="512">
      <contour>
        <pt x="60" y="282" on="1"/>
        <pt x="60" y="352" on="1"/>
        <pt x="440" y="512" on="1"/>
        <pt x="440" y="442" on="1"/>
        <pt x="137" y="317" on="1"/>
        <pt x="440" y="192" on="1"/>
        <pt x="440" y="122" on="1"/>
      </contour>
      <contour>
        <pt x="60" y="0" on="1"/>
        <pt x="60" y="70" on="1"/>
        <pt x="440" y="70" on="1"/>
        <pt x="440" y="0" on="1"/>
      </contour>
    </TTGlyph>
    <TTGlyph name="logicalnot" xMin="60" yMin="149" xMax="440" yMax="352">
      <contour>
        <pt x="60" y="282" on="1"/>
        <pt x="60" y="352" on="1"/>
        <pt x="440" y="352" on="1"/>
        <pt x="440" y="149" on="1"/>
        <pt x="374" y="149" on="1"/>
        <pt x="374" y="282" on="1"/>
      </contour>
    </TTGlyph>
    <TTGlyph name="lozenge" xMin="35" yMin="-182" xMax="513" yMax="646">
      <contour>
        <pt x="35" y="232" on="1"/>
        <pt x="211" y="646" on="1"/>
        <pt x="337" y="646" on="1"/>
        <pt x="513" y="232" on="1"/>
        <pt x="337" y="-182" on="1"/>
        <pt x="211" y="-182" on="1"/>
      </contour>
      <contour>
        <pt x="430" y="232" on="1"/>
        <pt x="274" y="605" on="1"/>
        <pt x="118" y="232" on="1"/>
        <pt x="274" y="-141" on="1"/>
      </contour>
    </TTGlyph>
    <TTGlyph name="lslash" xMin="-8" yMin="0" xMax="271" yMax="720">
      <contour>
        <pt x="90" y="720" on="1"/>
        <pt x="172" y="720" on="1"/>
        <pt x="172" y="495" on="1"/>
        <pt x="241" y="530" on="1"/>
        <pt x="271" y="472" on="1"/>
        <pt x="172" y="421" on="1"/>
        <pt x="172" y="0" on="1"/>
        <pt x="90" y="0" on="1"/>
        <pt x="90" y="379" on="1"/>
        <pt x="22" y="345" on="1"/>
        <pt x="-8" y="403" on="1"/>
        <pt x="90" y="453" on="1"/>
      </contour>
    </TTGlyph>
    <TTGlyph name="m" xMin="90" yMin="0" xMax="672" yMax="531">
      <contour>
        <pt x="672" y="366" on="1"/>
        <pt x="672" y="0" on="1"/>
        <pt x="590" y="0" on="1"/>
        <pt x="590" y="377" on="1"/>
        <pt x="590" y="426" on="0"/>
        <pt x="562" y="466" on="0"/>
        <pt x="459" y="466" on="0"/>
        <pt x="422" y="421" on="0"/>
        <pt x="422" y="379" on="1"/>
        <pt x="422" y="0" on="1"/>
        <pt x="340" y="0" on="1"/>
        <pt x="340" y="377" on="1"/>
        <pt x="340" y="426" on="0"/>
        <pt x="312" y="466" on="0"/>
        <pt x="209" y="466" on="0"/>
        <pt x="172" y="421" on="0"/>
        <pt x="172" y="379" on="1"/>
        <pt x="172" y="0" on="1"/>
        <pt x="90" y="0" on="1"/>
        <pt x="90" y="520" on="1"/>
        <pt x="135" y="520" on="1"/>
        <pt x="148" y="471" on="1"/>
        <pt x="166" y="498" on="0"/>
        <pt x="223" y="527" on="0"/>
        <pt x="261" y="531" on="0"/>
        <pt x="291" y="531" on="1"/>
        <pt x="372" y="531" on="0"/>
        <pt x="402" y="476" on="1"/>
        <pt x="442" y="531" on="0"/>
        <pt x="541" y="531" on="1"/>
        <pt x="624" y="531" on="0"/>
        <pt x="650" y="480" on="1"/>
        <pt x="672" y="436" on="0"/>
      </contour>
    </TTGlyph>
    <TTGlyph name="macron" xMin="80" yMin="635" xMax="320" yMax="698">
      <contour>
        <pt x="80" y="635" on="1"/>
        <pt x="80" y="698" on="1"/>
        <pt x="320" y="698" on="1"/>
        <pt x="320" y="635" on="1"/>
      </contour>
    </TTGlyph>
    <TTGlyph name="macron.case" xMin="80" yMin="780" xMax="320" yMax="843">
      <contour>
        <pt x="80" y="780" on="1"/>
        <pt x="80" y="843" on="1"/>
        <pt x="320" y="843" on="1"/>
        <pt x="320" y="780" on="1"/>
      </contour>
    </TTGlyph>
    <TTGlyph name="minus" xMin="60" yMin="282" xMax="440" yMax="352">
      <contour>
        <pt x="60" y="282" on="1"/>
        <pt x="60" y="352" on="1"/>
        <pt x="440" y="352" on="1"/>
        <pt x="440" y="282" on="1"/>
      </contour>
    </TTGlyph>
</ttFont>
